{"glyphs":{"0":{"ha":711,"x_min":67,"x_max":644,"o":"m 67 451 q 104 726 67 607 q 208 908 142 844 q 357 972 274 972 q 504 917 439 972 q 607 756 569 861 q 644 504 644 650 q 607 230 644 349 q 503 47 569 111 q 354 -17 438 -17 q 207 39 272 -17 q 104 200 142 94 q 67 451 67 306 m 544 436 q 518 699 544 589 q 446 865 492 808 q 343 922 400 921 q 251 872 292 922 q 189 731 211 822 q 167 519 167 640 q 193 257 167 367 q 265 90 219 147 q 368 33 311 33 q 460 83 419 33 q 522 224 500 133 q 544 436 544 315 z "},"1":{"ha":433,"x_min":49,"x_max":322,"o":"m 113 0 q 152 36 132 7 q 172 146 172 65 l 172 860 l 49 854 l 49 874 l 261 972 l 261 146 q 282 36 261 65 q 322 0 303 7 l 113 0 z "},"2":{"ha":667,"x_min":33,"x_max":613,"o":"m 142 129 q 313 337 261 272 q 399 458 365 401 q 451 576 435 519 q 467 690 467 632 q 442 798 467 753 q 376 867 417 843 q 288 890 335 890 q 147 826 200 890 q 93 665 93 763 q 68 757 68 700 q 95 860 68 810 q 176 941 122 910 q 307 972 231 972 q 437 939 378 972 q 531 844 496 906 q 567 703 567 783 q 463 432 567 572 q 215 131 365 299 l 174 83 l 456 83 q 564 105 528 83 q 613 147 600 126 l 586 0 l 33 0 l 142 129 z "},"3":{"ha":667,"x_min":53,"x_max":589,"o":"m 369 542 q 533 444 476 515 q 589 283 589 372 q 552 135 589 204 q 445 25 515 67 q 281 -17 375 -17 q 156 3 207 -17 q 53 56 106 22 l 53 167 q 139 76 76 115 q 278 38 201 38 q 434 99 379 38 q 489 253 489 161 q 422 419 489 361 q 254 478 356 478 l 228 478 l 228 500 q 376 591 319 532 q 433 728 433 650 q 392 844 433 799 q 279 889 351 889 q 196 867 235 889 q 133 802 157 844 q 108 701 108 760 q 83 786 83 735 q 146 922 83 871 q 296 972 208 972 q 457 917 392 972 q 522 767 522 861 q 481 643 522 706 q 369 542 440 581 z "},"4":{"ha":700,"x_min":3,"x_max":628,"o":"m 628 328 l 628 261 l 511 261 l 511 129 q 553 0 511 28 l 382 0 q 408 31 393 3 q 422 131 422 60 l 422 261 l 3 261 l 511 986 l 511 328 l 628 328 m 422 765 l 117 328 l 422 328 l 422 765 z "},"5":{"ha":622,"x_min":57,"x_max":551,"o":"m 151 656 q 342 629 265 653 q 497 525 443 597 q 551 360 551 453 q 490 169 551 253 q 325 38 429 85 q 97 -10 221 -10 l 82 -10 l 57 46 l 71 46 q 356 119 250 46 q 461 329 461 193 q 383 505 461 439 q 136 571 304 571 l 72 571 l 167 956 l 407 956 q 544 979 521 956 l 517 867 l 201 867 l 151 656 z "},"6":{"ha":725,"x_min":89,"x_max":658,"o":"m 558 232 q 539 330 558 283 q 481 406 519 376 q 392 435 443 435 q 251 371 314 435 q 273 424 251 393 q 335 478 294 456 q 433 501 376 501 q 556 469 506 501 q 633 382 607 436 q 658 265 658 328 q 626 128 658 193 q 530 24 593 64 q 381 -17 467 -17 q 223 36 289 -17 q 123 176 157 89 q 89 361 89 263 q 149 608 89 482 q 314 833 208 735 q 549 974 419 932 l 603 949 q 378 795 472 896 q 237 574 285 694 q 189 340 189 453 q 215 178 189 247 q 287 72 242 108 q 385 35 332 35 q 514 90 469 35 q 558 232 558 146 z "},"7":{"ha":633,"x_min":43,"x_max":633,"o":"m 317 347 q 227 160 269 257 q 167 0 185 64 l 72 0 q 176 213 111 88 q 350 543 242 339 q 432 697 369 578 q 518 867 494 817 l 193 867 q 43 799 83 867 l 85 956 l 633 956 l 317 347 z "},"8":{"ha":700,"x_min":67,"x_max":633,"o":"m 281 493 q 118 376 169 435 q 67 233 67 317 q 100 111 67 168 q 197 19 133 54 q 350 -17 261 -17 q 499 19 435 -17 q 599 115 564 56 q 633 239 633 174 q 614 341 633 297 q 551 425 594 385 q 426 514 507 465 q 549 615 503 553 q 594 751 594 676 q 563 862 594 811 q 475 942 531 913 q 350 972 419 972 q 225 941 281 972 q 138 858 169 910 q 107 743 107 806 q 281 493 107 600 m 351 557 q 231 652 278 601 q 183 764 183 703 q 232 878 183 833 q 350 922 281 922 q 467 872 421 922 q 514 750 514 822 q 476 621 514 672 q 379 540 438 569 l 351 557 m 356 449 q 453 383 417 411 q 517 315 490 356 q 543 222 543 275 q 488 85 543 138 q 350 33 432 33 q 244 62 289 33 q 174 138 199 90 q 149 239 149 185 q 174 346 149 303 q 235 413 200 389 q 326 465 271 438 l 356 449 z "},"9":{"ha":725,"x_min":67,"x_max":633,"o":"m 167 725 q 186 627 167 674 q 243 551 206 581 q 332 522 281 522 q 472 586 410 522 q 451 533 472 564 q 388 480 429 503 q 292 457 347 457 q 169 490 219 457 q 92 576 118 522 q 67 692 67 629 q 99 827 67 763 q 194 932 132 892 q 343 972 257 972 q 500 919 435 972 q 599 781 565 867 q 633 596 633 694 q 574 351 633 476 q 410 126 514 225 q 176 -14 306 28 l 122 11 q 346 165 253 64 q 487 385 439 265 q 535 617 535 504 q 508 778 535 710 q 437 884 482 847 q 339 921 392 921 q 210 865 254 921 q 167 725 167 810 z "},"\u0000":{"ha":0,"x_min":0,"x_max":0,"o":""},"\r":{"ha":356,"x_min":0,"x_max":0,"o":""}," ":{"ha":356,"x_min":0,"x_max":0,"o":""},"A":{"ha":956,"x_min":26,"x_max":954,"o":"m 293 371 l 204 150 q 183 65 183 99 q 225 0 183 19 l 26 0 q 67 28 40 0 q 128 138 93 56 l 490 1000 l 850 133 q 909 31 881 58 q 954 0 938 3 l 724 0 q 758 51 758 17 q 736 135 758 81 l 639 371 l 293 371 m 617 428 l 465 799 l 317 428 l 617 428 z "},"Á":{"ha":956,"x_min":26,"x_max":954,"o":"m 293 371 l 204 150 q 183 65 183 99 q 225 0 183 19 l 26 0 q 67 28 40 0 q 128 138 93 56 l 490 1000 l 850 133 q 909 31 881 58 q 954 0 938 3 l 724 0 q 758 51 758 17 q 736 135 758 81 l 639 371 l 293 371 m 617 428 l 465 799 l 317 428 l 617 428 m 535 1192 l 699 1192 l 392 1017 l 535 1192 z "},"Ă":{"ha":956,"x_min":26,"x_max":954,"o":"m 293 371 l 204 150 q 183 65 183 99 q 225 0 183 19 l 26 0 q 67 28 40 0 q 128 138 93 56 l 490 1000 l 850 133 q 909 31 881 58 q 954 0 938 3 l 724 0 q 758 51 758 17 q 736 135 758 81 l 639 371 l 293 371 m 617 428 l 465 799 l 317 428 l 617 428 m 492 1028 q 411 1062 444 1028 q 378 1142 378 1096 q 399 1206 378 1175 q 394 1178 394 1192 q 422 1126 394 1144 q 492 1107 450 1107 q 561 1126 533 1107 q 589 1178 589 1144 q 585 1206 589 1192 q 606 1142 606 1175 q 572 1062 606 1096 q 492 1028 539 1028 z "},"Â":{"ha":956,"x_min":26,"x_max":954,"o":"m 293 371 l 204 150 q 183 65 183 99 q 225 0 183 19 l 26 0 q 67 28 40 0 q 128 138 93 56 l 490 1000 l 850 133 q 909 31 881 58 q 954 0 938 3 l 724 0 q 758 51 758 17 q 736 135 758 81 l 639 371 l 293 371 m 617 428 l 465 799 l 317 428 l 617 428 m 489 1206 l 671 1017 l 489 1099 l 307 1017 l 489 1206 z "},"Ä":{"ha":956,"x_min":26,"x_max":954,"o":"m 293 371 l 204 150 q 183 65 183 99 q 225 0 183 19 l 26 0 q 67 28 40 0 q 128 138 93 56 l 490 1000 l 850 133 q 909 31 881 58 q 954 0 938 3 l 724 0 q 758 51 758 17 q 736 135 758 81 l 639 371 l 293 371 m 617 428 l 465 799 l 317 428 l 617 428 m 332 1029 q 292 1046 307 1029 q 278 1085 278 1063 q 292 1124 278 1107 q 332 1140 307 1140 q 372 1124 357 1140 q 386 1085 386 1107 q 372 1046 386 1063 q 332 1029 357 1029 m 649 1029 q 609 1046 624 1029 q 594 1085 594 1063 q 609 1124 594 1107 q 649 1140 624 1140 q 688 1124 674 1140 q 703 1085 703 1107 q 688 1046 703 1063 q 649 1029 674 1029 z "},"À":{"ha":956,"x_min":26,"x_max":954,"o":"m 293 371 l 204 150 q 183 65 183 99 q 225 0 183 19 l 26 0 q 67 28 40 0 q 128 138 93 56 l 490 1000 l 850 133 q 909 31 881 58 q 954 0 938 3 l 724 0 q 758 51 758 17 q 736 135 758 81 l 639 371 l 293 371 m 617 428 l 465 799 l 317 428 l 617 428 m 444 1192 l 588 1017 l 281 1192 l 444 1192 z "},"Ā":{"ha":956,"x_min":26,"x_max":954,"o":"m 293 371 l 204 150 q 183 65 183 99 q 225 0 183 19 l 26 0 q 67 28 40 0 q 128 138 93 56 l 490 1000 l 850 133 q 909 31 881 58 q 954 0 938 3 l 724 0 q 758 51 758 17 q 736 135 758 81 l 639 371 l 293 371 m 617 428 l 465 799 l 317 428 l 617 428 m 321 1132 l 660 1132 l 660 1068 l 321 1068 l 321 1132 z "},"Ą":{"ha":956,"x_min":26,"x_max":954,"o":"m 293 371 l 204 150 q 183 65 183 99 q 225 0 183 19 l 26 0 q 67 28 40 0 q 128 138 93 56 l 490 1000 l 850 133 q 909 31 881 58 q 954 0 938 3 l 724 0 q 758 51 758 17 q 736 135 758 81 l 639 371 l 293 371 m 617 428 l 465 799 l 317 428 l 617 428 m 885 0 q 811 -76 835 -43 q 788 -139 788 -108 q 805 -180 788 -164 q 850 -196 822 -196 q 938 -167 886 -196 q 883 -226 915 -206 q 815 -246 850 -246 q 745 -219 774 -246 q 717 -147 717 -193 q 818 0 717 -69 l 885 0 z "},"Å":{"ha":956,"x_min":26,"x_max":954,"o":"m 293 371 l 204 150 q 183 65 183 99 q 225 0 183 19 l 26 0 q 67 28 40 0 q 128 138 93 56 l 490 1000 l 850 133 q 909 31 881 58 q 954 0 938 3 l 724 0 q 758 51 758 17 q 736 135 758 81 l 639 371 l 293 371 m 617 428 l 465 799 l 317 428 l 617 428 m 396 1111 q 424 1179 396 1151 q 492 1207 453 1207 q 560 1179 532 1207 q 588 1111 588 1151 q 559 1042 588 1071 q 492 1014 531 1014 q 424 1042 453 1014 q 396 1111 396 1071 m 550 1111 q 533 1150 550 1133 q 492 1167 515 1167 q 451 1150 468 1167 q 433 1111 433 1133 q 451 1072 433 1089 q 492 1054 468 1054 q 533 1072 515 1054 q 550 1111 550 1089 z "},"Ã":{"ha":956,"x_min":26,"x_max":954,"o":"m 293 371 l 204 150 q 183 65 183 99 q 225 0 183 19 l 26 0 q 67 28 40 0 q 128 138 93 56 l 490 1000 l 850 133 q 909 31 881 58 q 954 0 938 3 l 724 0 q 758 51 758 17 q 736 135 758 81 l 639 371 l 293 371 m 617 428 l 465 799 l 317 428 l 617 428 m 317 1078 q 342 1141 317 1118 q 408 1164 368 1164 q 507 1139 449 1164 q 575 1121 551 1121 q 622 1182 622 1121 q 621 1206 622 1197 q 647 1139 647 1182 q 622 1076 647 1099 q 556 1053 596 1053 q 457 1078 515 1053 q 389 1096 413 1096 q 342 1035 342 1096 q 343 1011 342 1019 q 317 1078 317 1035 z "},"Æ":{"ha":1299,"x_min":1,"x_max":1232,"o":"m 1186 817 q 1036 900 1161 900 l 843 900 l 843 506 l 1082 506 q 1129 515 1110 506 q 1158 533 1149 524 q 1169 546 1168 543 l 1169 411 q 1158 424 1168 414 q 1130 442 1149 433 q 1083 450 1111 450 l 843 450 l 843 56 l 1060 56 q 1167 81 1122 56 q 1232 147 1213 107 l 1207 0 l 683 0 q 700 6 683 -4 q 730 48 717 17 q 743 139 743 79 l 743 450 l 439 450 l 235 139 q 199 47 199 82 q 209 16 199 26 q 231 3 219 6 q 244 0 242 0 l 1 0 q 143 125 64 6 l 617 836 q 639 904 639 871 q 613 956 639 939 l 1186 956 l 1186 817 m 475 506 l 743 506 l 743 914 l 475 506 z "},"B":{"ha":822,"x_min":118,"x_max":733,"o":"m 558 24 q 476 6 522 11 q 347 0 429 0 l 118 0 q 157 31 136 4 q 178 136 178 58 l 178 824 q 158 923 178 896 q 119 956 139 950 l 347 956 q 483 948 436 956 q 564 925 529 940 q 658 843 625 896 q 692 729 692 790 q 635 569 692 636 q 488 482 579 501 q 606 446 550 475 q 698 367 663 417 q 733 253 733 317 q 686 108 733 164 q 558 24 639 51 m 519 858 q 460 890 492 879 q 374 900 428 900 l 278 900 l 278 506 l 390 506 q 474 521 440 506 q 532 561 507 536 q 574 625 558 588 q 589 701 589 663 q 572 790 589 749 q 519 858 554 832 m 549 410 q 483 440 522 431 q 378 450 444 450 l 278 450 l 278 56 l 410 56 q 566 103 510 56 q 622 253 622 150 q 549 410 622 349 z "},"C":{"ha":978,"x_min":89,"x_max":883,"o":"m 883 85 q 746 13 831 42 q 575 -17 661 -17 q 335 43 446 -17 q 156 215 224 103 q 89 479 89 328 q 151 733 89 621 q 327 909 213 846 q 594 972 442 972 q 883 901 757 972 l 883 747 q 758 869 840 824 q 583 914 676 914 q 378 858 465 914 q 246 706 292 803 q 200 490 200 610 q 252 256 200 356 q 393 102 304 156 q 592 49 482 49 q 883 151 768 49 l 883 85 z "},"Ć":{"ha":978,"x_min":89,"x_max":883,"o":"m 883 85 q 746 13 831 42 q 575 -17 661 -17 q 335 43 446 -17 q 156 215 224 103 q 89 479 89 328 q 151 733 89 621 q 327 909 213 846 q 594 972 442 972 q 883 901 757 972 l 883 747 q 758 869 840 824 q 583 914 676 914 q 378 858 465 914 q 246 706 292 803 q 200 490 200 610 q 252 256 200 356 q 393 102 304 156 q 592 49 482 49 q 883 151 768 49 l 883 85 m 624 1192 l 788 1192 l 481 1017 l 624 1192 z "},"Č":{"ha":978,"x_min":89,"x_max":883,"o":"m 883 85 q 746 13 831 42 q 575 -17 661 -17 q 335 43 446 -17 q 156 215 224 103 q 89 479 89 328 q 151 733 89 621 q 327 909 213 846 q 594 972 442 972 q 883 901 757 972 l 883 747 q 758 869 840 824 q 583 914 676 914 q 378 858 465 914 q 246 706 292 803 q 200 490 200 610 q 252 256 200 356 q 393 102 304 156 q 592 49 482 49 q 883 151 768 49 l 883 85 m 732 1206 l 550 1017 l 368 1206 l 550 1124 l 732 1206 z "},"Ç":{"ha":978,"x_min":89,"x_max":883,"o":"m 646 -164 q 617 -227 646 -200 q 538 -254 589 -254 q 477 -240 506 -254 q 433 -196 449 -225 q 507 -211 476 -211 q 552 -195 536 -211 q 568 -157 568 -179 q 553 -120 568 -136 q 508 -104 538 -104 l 496 -104 l 535 -15 q 312 56 414 -6 q 149 226 210 117 q 89 479 89 335 q 151 733 89 621 q 327 910 213 846 q 594 974 442 974 q 883 903 757 974 l 883 749 q 758 870 840 825 q 583 915 676 915 q 378 860 465 915 q 246 707 292 804 q 200 490 200 610 q 252 256 200 356 q 393 102 304 156 q 592 49 482 49 q 883 151 768 49 l 883 85 q 751 14 832 43 q 585 -17 669 -15 l 557 -78 q 623 -108 600 -83 q 646 -164 646 -132 z "},"Ĉ":{"ha":978,"x_min":89,"x_max":883,"o":"m 883 85 q 746 13 831 42 q 575 -17 661 -17 q 335 43 446 -17 q 156 215 224 103 q 89 479 89 328 q 151 733 89 621 q 327 909 213 846 q 594 972 442 972 q 883 901 757 972 l 883 747 q 758 869 840 824 q 583 914 676 914 q 378 858 465 914 q 246 706 292 803 q 200 490 200 610 q 252 256 200 356 q 393 102 304 156 q 592 49 482 49 q 883 151 768 49 l 883 85 m 569 1206 l 751 1017 l 569 1099 l 388 1017 l 569 1206 z "},"Ċ":{"ha":978,"x_min":89,"x_max":883,"o":"m 883 85 q 746 13 831 42 q 575 -17 661 -17 q 335 43 446 -17 q 156 215 224 103 q 89 479 89 328 q 151 733 89 621 q 327 909 213 846 q 594 972 442 972 q 883 901 757 972 l 883 747 q 758 869 840 824 q 583 914 676 914 q 378 858 465 914 q 246 706 292 803 q 200 490 200 610 q 252 256 200 356 q 393 102 304 156 q 592 49 482 49 q 883 151 768 49 l 883 85 m 585 1046 q 537 1066 554 1046 q 519 1113 519 1086 q 537 1159 519 1139 q 585 1179 554 1179 q 633 1159 615 1179 q 650 1113 650 1139 q 633 1066 650 1086 q 585 1046 615 1046 z "},"D":{"ha":1033,"x_min":118,"x_max":956,"o":"m 740 78 q 392 0 610 0 l 118 0 q 135 8 118 -4 q 165 51 151 19 q 178 144 178 83 l 178 828 q 165 910 178 882 q 135 949 151 939 q 118 956 118 958 l 390 956 q 726 886 603 956 q 896 721 836 825 q 956 486 956 617 q 899 241 956 344 q 740 78 843 138 m 686 824 q 556 882 625 864 q 390 900 486 900 l 278 900 l 278 56 l 390 56 q 577 75 504 56 q 703 135 650 94 q 808 273 771 188 q 844 472 844 358 q 802 684 844 593 q 686 824 760 775 z "},"Ð":{"ha":1033,"x_min":86,"x_max":956,"o":"m 119 0 q 157 33 136 3 q 178 144 178 64 l 178 450 l 86 450 l 86 506 l 178 506 l 178 828 q 158 924 178 897 q 119 956 139 950 l 390 956 q 726 886 603 956 q 896 721 836 825 q 956 486 956 617 q 886 220 956 329 q 695 56 817 111 q 418 0 574 0 l 119 0 m 686 824 q 558 882 625 864 q 406 900 490 900 l 278 900 l 278 506 l 415 506 l 415 450 l 278 450 l 278 56 l 440 56 q 736 165 628 56 q 844 472 844 274 q 802 684 844 593 q 686 824 760 775 z "},"Ď":{"ha":1033,"x_min":118,"x_max":956,"o":"m 740 78 q 392 0 610 0 l 118 0 q 135 8 118 -4 q 165 51 151 19 q 178 144 178 83 l 178 828 q 165 910 178 882 q 135 949 151 939 q 118 956 118 958 l 390 956 q 726 886 603 956 q 896 721 836 825 q 956 486 956 617 q 899 241 956 344 q 740 78 843 138 m 686 824 q 556 882 625 864 q 390 900 486 900 l 278 900 l 278 56 l 390 56 q 577 75 504 56 q 703 135 650 94 q 808 273 771 188 q 844 472 844 358 q 802 684 844 593 q 686 824 760 775 m 689 1206 l 507 1017 l 325 1206 l 507 1124 l 689 1206 z "},"Đ":{"ha":1033,"x_min":86,"x_max":956,"o":"m 119 0 q 157 33 136 3 q 178 144 178 64 l 178 450 l 86 450 l 86 506 l 178 506 l 178 828 q 158 924 178 897 q 119 956 139 950 l 390 956 q 726 886 603 956 q 896 721 836 825 q 956 486 956 617 q 886 220 956 329 q 695 56 817 111 q 418 0 574 0 l 119 0 m 686 824 q 558 882 625 864 q 406 900 490 900 l 278 900 l 278 506 l 415 506 l 415 450 l 278 450 l 278 56 l 440 56 q 736 165 628 56 q 844 472 844 274 q 802 684 844 593 q 686 824 760 775 z "},"E":{"ha":733,"x_min":118,"x_max":667,"o":"m 118 0 q 135 6 118 -4 q 165 48 151 17 q 178 139 178 79 l 178 821 q 165 908 178 878 q 135 949 151 938 q 118 956 118 960 l 621 956 l 621 817 q 471 900 596 900 l 278 900 l 278 506 l 517 506 q 564 515 544 506 q 593 533 583 524 q 604 546 603 543 l 604 411 q 593 424 603 414 q 565 442 583 433 q 518 450 546 450 l 278 450 l 278 56 l 494 56 q 602 81 557 56 q 667 147 647 107 l 642 0 l 118 0 z "},"É":{"ha":733,"x_min":118,"x_max":667,"o":"m 118 0 q 135 6 118 -4 q 165 48 151 17 q 178 139 178 79 l 178 821 q 165 908 178 878 q 135 949 151 938 q 118 956 118 960 l 621 956 l 621 817 q 471 900 596 900 l 278 900 l 278 506 l 517 506 q 564 515 544 506 q 593 533 583 524 q 604 546 603 543 l 604 411 q 593 424 603 414 q 565 442 583 433 q 518 450 546 450 l 278 450 l 278 56 l 494 56 q 602 81 557 56 q 667 147 647 107 l 642 0 l 118 0 m 465 1192 l 629 1192 l 322 1017 l 465 1192 z "},"Ĕ":{"ha":733,"x_min":118,"x_max":667,"o":"m 118 0 q 135 6 118 -4 q 165 48 151 17 q 178 139 178 79 l 178 821 q 165 908 178 878 q 135 949 151 938 q 118 956 118 960 l 621 956 l 621 817 q 471 900 596 900 l 278 900 l 278 506 l 517 506 q 564 515 544 506 q 593 533 583 524 q 604 546 603 543 l 604 411 q 593 424 603 414 q 565 442 583 433 q 518 450 546 450 l 278 450 l 278 56 l 494 56 q 602 81 557 56 q 667 147 647 107 l 642 0 l 118 0 m 396 1028 q 315 1062 349 1028 q 282 1142 282 1096 q 303 1206 282 1175 q 299 1178 299 1192 q 326 1126 299 1144 q 396 1107 354 1107 q 465 1126 438 1107 q 493 1178 493 1144 q 489 1206 493 1192 q 510 1142 510 1175 q 476 1062 510 1096 q 396 1028 443 1028 z "},"Ě":{"ha":733,"x_min":118,"x_max":667,"o":"m 118 0 q 135 6 118 -4 q 165 48 151 17 q 178 139 178 79 l 178 821 q 165 908 178 878 q 135 949 151 938 q 118 956 118 960 l 621 956 l 621 817 q 471 900 596 900 l 278 900 l 278 506 l 517 506 q 564 515 544 506 q 593 533 583 524 q 604 546 603 543 l 604 411 q 593 424 603 414 q 565 442 583 433 q 518 450 546 450 l 278 450 l 278 56 l 494 56 q 602 81 557 56 q 667 147 647 107 l 642 0 l 118 0 m 579 1206 l 397 1017 l 215 1206 l 397 1124 l 579 1206 z "},"Ê":{"ha":733,"x_min":118,"x_max":667,"o":"m 118 0 q 135 6 118 -4 q 165 48 151 17 q 178 139 178 79 l 178 821 q 165 908 178 878 q 135 949 151 938 q 118 956 118 960 l 621 956 l 621 817 q 471 900 596 900 l 278 900 l 278 506 l 517 506 q 564 515 544 506 q 593 533 583 524 q 604 546 603 543 l 604 411 q 593 424 603 414 q 565 442 583 433 q 518 450 546 450 l 278 450 l 278 56 l 494 56 q 602 81 557 56 q 667 147 647 107 l 642 0 l 118 0 m 392 1206 l 574 1017 l 392 1099 l 210 1017 l 392 1206 z "},"Ë":{"ha":733,"x_min":118,"x_max":667,"o":"m 118 0 q 135 6 118 -4 q 165 48 151 17 q 178 139 178 79 l 178 821 q 165 908 178 878 q 135 949 151 938 q 118 956 118 960 l 621 956 l 621 817 q 471 900 596 900 l 278 900 l 278 506 l 517 506 q 564 515 544 506 q 593 533 583 524 q 604 546 603 543 l 604 411 q 593 424 603 414 q 565 442 583 433 q 518 450 546 450 l 278 450 l 278 56 l 494 56 q 602 81 557 56 q 667 147 647 107 l 642 0 l 118 0 m 236 1029 q 197 1046 211 1029 q 182 1085 182 1063 q 197 1124 182 1107 q 236 1140 211 1140 q 276 1124 261 1140 q 290 1085 290 1107 q 276 1046 290 1063 q 236 1029 261 1029 m 553 1029 q 513 1046 528 1029 q 499 1085 499 1063 q 513 1124 499 1107 q 553 1140 528 1140 q 592 1124 578 1140 q 607 1085 607 1107 q 592 1046 607 1063 q 553 1029 578 1029 z "},"Ė":{"ha":733,"x_min":118,"x_max":667,"o":"m 118 0 q 135 6 118 -4 q 165 48 151 17 q 178 139 178 79 l 178 821 q 165 908 178 878 q 135 949 151 938 q 118 956 118 960 l 621 956 l 621 817 q 471 900 596 900 l 278 900 l 278 506 l 517 506 q 564 515 544 506 q 593 533 583 524 q 604 546 603 543 l 604 411 q 593 424 603 414 q 565 442 583 433 q 518 450 546 450 l 278 450 l 278 56 l 494 56 q 602 81 557 56 q 667 147 647 107 l 642 0 l 118 0 m 393 1046 q 345 1066 363 1046 q 328 1113 328 1086 q 345 1159 328 1139 q 393 1179 363 1179 q 441 1159 424 1179 q 458 1113 458 1139 q 441 1066 458 1086 q 393 1046 424 1046 z "},"È":{"ha":733,"x_min":118,"x_max":667,"o":"m 118 0 q 135 6 118 -4 q 165 48 151 17 q 178 139 178 79 l 178 821 q 165 908 178 878 q 135 949 151 938 q 118 956 118 960 l 621 956 l 621 817 q 471 900 596 900 l 278 900 l 278 506 l 517 506 q 564 515 544 506 q 593 533 583 524 q 604 546 603 543 l 604 411 q 593 424 603 414 q 565 442 583 433 q 518 450 546 450 l 278 450 l 278 56 l 494 56 q 602 81 557 56 q 667 147 647 107 l 642 0 l 118 0 m 306 1192 l 449 1017 l 142 1192 l 306 1192 z "},"Ē":{"ha":733,"x_min":118,"x_max":667,"o":"m 118 0 q 135 6 118 -4 q 165 48 151 17 q 178 139 178 79 l 178 821 q 165 908 178 878 q 135 949 151 938 q 118 956 118 960 l 621 956 l 621 817 q 471 900 596 900 l 278 900 l 278 506 l 517 506 q 564 515 544 506 q 593 533 583 524 q 604 546 603 543 l 604 411 q 593 424 603 414 q 565 442 583 433 q 518 450 546 450 l 278 450 l 278 56 l 494 56 q 602 81 557 56 q 667 147 647 107 l 642 0 l 118 0 m 211 1132 l 550 1132 l 550 1068 l 211 1068 l 211 1132 z "},"Ę":{"ha":733,"x_min":118,"x_max":667,"o":"m 118 0 q 135 6 118 -4 q 165 48 151 17 q 178 139 178 79 l 178 821 q 165 908 178 878 q 135 949 151 938 q 118 956 118 960 l 621 956 l 621 817 q 471 900 596 900 l 278 900 l 278 506 l 517 506 q 564 515 544 506 q 593 533 583 524 q 604 546 603 543 l 604 411 q 593 424 603 414 q 565 442 583 433 q 518 450 546 450 l 278 450 l 278 56 l 494 56 q 602 81 557 56 q 667 147 647 107 l 642 0 l 118 0 m 600 0 q 526 -76 550 -43 q 503 -139 503 -108 q 520 -180 503 -164 q 565 -196 538 -196 q 653 -167 601 -196 q 598 -226 631 -206 q 531 -246 565 -246 q 460 -219 489 -246 q 432 -147 432 -193 q 533 0 432 -69 l 600 0 z "},"F":{"ha":689,"x_min":118,"x_max":621,"o":"m 278 900 l 278 506 l 518 506 q 587 521 569 506 q 604 546 604 536 l 604 410 q 598 423 604 414 q 573 441 592 432 q 518 450 554 450 l 278 450 l 278 129 q 292 47 278 75 q 322 8 306 18 q 339 0 339 -3 l 118 0 q 135 7 118 -3 q 165 45 151 17 q 178 129 178 74 l 178 819 q 165 906 178 876 q 135 948 151 936 q 118 956 118 960 l 621 956 l 621 814 q 582 874 614 847 q 492 900 550 900 l 278 900 z "},"G":{"ha":1044,"x_min":89,"x_max":972,"o":"m 582 -15 q 338 40 450 -15 q 157 207 225 96 q 89 478 89 318 q 153 732 89 619 q 335 908 218 844 q 606 972 453 972 q 781 950 703 972 q 906 901 860 928 l 906 747 q 777 868 863 822 q 603 914 692 914 q 388 862 479 914 q 249 714 297 810 q 200 489 200 618 q 256 249 200 349 q 406 99 313 149 q 608 49 499 49 q 712 60 658 49 q 811 94 765 72 l 811 324 q 797 391 811 367 q 767 426 783 415 q 750 433 750 436 l 972 433 q 956 428 972 436 q 925 397 939 419 q 911 332 911 374 l 911 79 q 752 9 838 33 q 582 -15 667 -15 z "},"Ğ":{"ha":1044,"x_min":89,"x_max":972,"o":"m 582 -15 q 338 40 450 -15 q 157 207 225 96 q 89 478 89 318 q 153 732 89 619 q 335 908 218 844 q 606 972 453 972 q 781 950 703 972 q 906 901 860 928 l 906 747 q 777 868 863 822 q 603 914 692 914 q 388 862 479 914 q 249 714 297 810 q 200 489 200 618 q 256 249 200 349 q 406 99 313 149 q 608 49 499 49 q 712 60 658 49 q 811 94 765 72 l 811 324 q 797 391 811 367 q 767 426 783 415 q 750 433 750 436 l 972 433 q 956 428 972 436 q 925 397 939 419 q 911 332 911 374 l 911 79 q 752 9 838 33 q 582 -15 667 -15 m 579 1028 q 499 1062 532 1028 q 465 1142 465 1096 q 486 1206 465 1175 q 482 1178 482 1192 q 510 1126 482 1144 q 579 1107 538 1107 q 649 1126 621 1107 q 676 1178 676 1144 q 672 1206 676 1192 q 693 1142 693 1175 q 660 1062 693 1096 q 579 1028 626 1028 z "},"Ĝ":{"ha":1044,"x_min":89,"x_max":972,"o":"m 582 -15 q 338 40 450 -15 q 157 207 225 96 q 89 478 89 318 q 153 732 89 619 q 335 908 218 844 q 606 972 453 972 q 781 950 703 972 q 906 901 860 928 l 906 747 q 777 868 863 822 q 603 914 692 914 q 388 862 479 914 q 249 714 297 810 q 200 489 200 618 q 256 249 200 349 q 406 99 313 149 q 608 49 499 49 q 712 60 658 49 q 811 94 765 72 l 811 324 q 797 391 811 367 q 767 426 783 415 q 750 433 750 436 l 972 433 q 956 428 972 436 q 925 397 939 419 q 911 332 911 374 l 911 79 q 752 9 838 33 q 582 -15 667 -15 m 575 1206 l 757 1017 l 575 1099 l 393 1017 l 575 1206 z "},"Ģ":{"ha":1044,"x_min":89,"x_max":972,"o":"m 582 -15 q 338 40 450 -15 q 157 207 225 96 q 89 478 89 318 q 153 732 89 619 q 335 908 218 844 q 606 972 453 972 q 781 950 703 972 q 906 901 860 928 l 906 747 q 777 868 863 822 q 603 914 692 914 q 388 862 479 914 q 249 714 297 810 q 200 489 200 618 q 256 249 200 349 q 406 99 313 149 q 608 49 499 49 q 712 60 658 49 q 811 94 765 72 l 811 324 q 797 391 811 367 q 767 426 783 415 q 750 433 750 436 l 972 433 q 956 428 972 436 q 925 397 939 419 q 911 332 911 374 l 911 79 q 752 9 838 33 q 582 -15 667 -15 m 492 -339 q 546 -290 524 -328 q 568 -207 568 -253 l 560 -207 q 514 -191 529 -207 q 499 -151 499 -175 q 515 -109 499 -126 q 558 -92 531 -92 q 611 -117 589 -92 q 633 -189 633 -142 q 597 -292 633 -247 q 492 -339 560 -336 z "},"Ġ":{"ha":1044,"x_min":89,"x_max":972,"o":"m 582 -15 q 338 40 450 -15 q 157 207 225 96 q 89 478 89 318 q 153 732 89 619 q 335 908 218 844 q 606 972 453 972 q 781 950 703 972 q 906 901 860 928 l 906 747 q 777 868 863 822 q 603 914 692 914 q 388 862 479 914 q 249 714 297 810 q 200 489 200 618 q 256 249 200 349 q 406 99 313 149 q 608 49 499 49 q 712 60 658 49 q 811 94 765 72 l 811 324 q 797 391 811 367 q 767 426 783 415 q 750 433 750 436 l 972 433 q 956 428 972 436 q 925 397 939 419 q 911 332 911 374 l 911 79 q 752 9 838 33 q 582 -15 667 -15 m 554 1046 q 506 1066 524 1046 q 489 1113 489 1086 q 506 1159 489 1139 q 554 1179 524 1179 q 602 1159 585 1179 q 619 1113 619 1139 q 602 1066 619 1086 q 554 1046 585 1046 z "},"H":{"ha":1056,"x_min":118,"x_max":961,"o":"m 739 0 q 756 6 739 -4 q 786 45 772 17 q 800 129 800 74 l 800 444 l 278 444 l 278 129 q 292 45 278 74 q 322 7 306 17 q 339 0 339 -3 l 118 0 q 135 6 118 -4 q 165 45 151 17 q 178 129 178 74 l 178 826 q 165 910 178 882 q 135 949 151 939 q 118 956 118 958 l 339 956 q 322 949 339 958 q 292 910 306 939 q 278 826 278 882 l 278 506 l 800 506 l 800 826 q 786 910 800 882 q 756 949 772 939 q 739 956 739 958 l 960 956 q 943 949 960 960 q 913 910 926 939 q 900 826 900 882 l 900 129 q 914 45 900 74 q 944 7 928 17 q 961 0 961 -3 l 739 0 z "},"Ħ":{"ha":1056,"x_min":119,"x_max":960,"o":"m 178 765 l 178 826 q 158 924 178 897 q 119 956 139 950 l 338 956 q 299 926 319 953 q 278 826 278 899 l 278 765 l 800 765 l 800 826 q 780 924 800 897 q 740 956 760 950 l 958 956 q 920 926 940 953 q 900 826 900 900 l 900 765 l 953 765 l 953 704 l 900 704 l 900 129 q 921 31 900 58 q 960 0 942 3 l 740 0 q 779 29 758 3 q 800 129 800 56 l 800 444 l 278 444 l 278 129 q 299 30 278 57 q 338 0 319 3 l 119 0 q 158 30 138 4 q 178 129 178 56 l 178 704 l 125 704 l 125 765 l 178 765 m 800 704 l 278 704 l 278 506 l 800 506 l 800 704 z "},"Ĥ":{"ha":1056,"x_min":118,"x_max":961,"o":"m 739 0 q 756 6 739 -4 q 786 45 772 17 q 800 129 800 74 l 800 444 l 278 444 l 278 129 q 292 45 278 74 q 322 7 306 17 q 339 0 339 -3 l 118 0 q 135 6 118 -4 q 165 45 151 17 q 178 129 178 74 l 178 826 q 165 910 178 882 q 135 949 151 939 q 118 956 118 958 l 339 956 q 322 949 339 958 q 292 910 306 939 q 278 826 278 882 l 278 506 l 800 506 l 800 826 q 786 910 800 882 q 756 949 772 939 q 739 956 739 958 l 960 956 q 943 949 960 960 q 913 910 926 939 q 900 826 900 882 l 900 129 q 914 45 900 74 q 944 7 928 17 q 961 0 961 -3 l 739 0 m 539 1206 l 721 1017 l 539 1099 l 357 1017 l 539 1206 z "},"I":{"ha":433,"x_min":117,"x_max":339,"o":"m 117 0 q 133 6 117 -4 q 164 45 150 17 q 178 129 178 74 l 178 826 q 165 910 178 882 q 135 949 151 939 q 118 956 118 958 l 339 956 q 322 949 339 958 q 292 910 306 939 q 278 826 278 882 l 278 129 q 292 45 278 74 q 322 7 306 17 q 339 0 339 -3 l 117 0 z "},"Ĳ":{"ha":867,"x_min":117,"x_max":771,"o":"m 117 0 q 133 6 117 -4 q 164 45 150 17 q 178 129 178 74 l 178 826 q 165 910 178 882 q 135 949 151 939 q 118 956 118 958 l 339 956 q 322 949 339 958 q 292 910 306 939 q 278 826 278 882 l 278 129 q 292 45 278 74 q 322 7 306 17 q 339 0 339 -3 l 117 0 m 711 43 q 676 -103 711 -37 q 581 -204 640 -168 q 456 -240 522 -240 q 569 -134 528 -211 q 611 49 611 -57 l 611 828 q 597 910 611 882 q 567 949 583 939 q 550 956 550 958 l 771 956 q 754 949 771 958 q 724 910 738 939 q 711 828 711 882 l 711 43 z "},"Í":{"ha":433,"x_min":103,"x_max":410,"o":"m 117 0 q 133 6 117 -4 q 164 45 150 17 q 178 129 178 74 l 178 826 q 165 910 178 882 q 135 949 151 939 q 118 956 118 958 l 339 956 q 322 949 339 958 q 292 910 306 939 q 278 826 278 882 l 278 129 q 292 45 278 74 q 322 7 306 17 q 339 0 339 -3 l 117 0 m 246 1192 l 410 1192 l 103 1017 l 246 1192 z "},"Ĭ":{"ha":433,"x_min":114,"x_max":342,"o":"m 117 0 q 133 6 117 -4 q 164 45 150 17 q 178 129 178 74 l 178 826 q 165 910 178 882 q 135 949 151 939 q 118 956 118 958 l 339 956 q 322 949 339 958 q 292 910 306 939 q 278 826 278 882 l 278 129 q 292 45 278 74 q 322 7 306 17 q 339 0 339 -3 l 117 0 m 228 1028 q 147 1062 181 1028 q 114 1142 114 1096 q 135 1206 114 1175 q 131 1178 131 1192 q 158 1126 131 1144 q 228 1107 186 1107 q 297 1126 269 1107 q 325 1178 325 1144 q 321 1206 325 1192 q 342 1142 342 1175 q 308 1062 342 1096 q 228 1028 275 1028 z "},"Î":{"ha":433,"x_min":44,"x_max":408,"o":"m 117 0 q 133 6 117 -4 q 164 45 150 17 q 178 129 178 74 l 178 826 q 165 910 178 882 q 135 949 151 939 q 118 956 118 958 l 339 956 q 322 949 339 958 q 292 910 306 939 q 278 826 278 882 l 278 129 q 292 45 278 74 q 322 7 306 17 q 339 0 339 -3 l 117 0 m 226 1206 l 408 1017 l 226 1099 l 44 1017 l 226 1206 z "},"Ï":{"ha":433,"x_min":15,"x_max":440,"o":"m 117 0 q 133 6 117 -4 q 164 45 150 17 q 178 129 178 74 l 178 826 q 165 910 178 882 q 135 949 151 939 q 118 956 118 958 l 339 956 q 322 949 339 958 q 292 910 306 939 q 278 826 278 882 l 278 129 q 292 45 278 74 q 322 7 306 17 q 339 0 339 -3 l 117 0 m 69 1029 q 30 1046 44 1029 q 15 1085 15 1063 q 30 1124 15 1107 q 69 1140 44 1140 q 109 1124 94 1140 q 124 1085 124 1107 q 109 1046 124 1063 q 69 1029 94 1029 m 386 1029 q 347 1046 361 1029 q 332 1085 332 1063 q 347 1124 332 1107 q 386 1140 361 1140 q 426 1124 411 1140 q 440 1085 440 1107 q 426 1046 440 1063 q 386 1029 411 1029 z "},"İ":{"ha":433,"x_min":117,"x_max":339,"o":"m 117 0 q 133 6 117 -4 q 164 45 150 17 q 178 129 178 74 l 178 826 q 165 910 178 882 q 135 949 151 939 q 118 956 118 958 l 339 956 q 322 949 339 958 q 292 910 306 939 q 278 826 278 882 l 278 129 q 292 45 278 74 q 322 7 306 17 q 339 0 339 -3 l 117 0 m 228 1046 q 180 1066 197 1046 q 163 1113 163 1086 q 180 1159 163 1139 q 228 1179 197 1179 q 276 1159 258 1179 q 293 1113 293 1139 q 276 1066 293 1086 q 228 1046 258 1046 z "},"Ì":{"ha":433,"x_min":-8,"x_max":339,"o":"m 117 0 q 133 6 117 -4 q 164 45 150 17 q 178 129 178 74 l 178 826 q 165 910 178 882 q 135 949 151 939 q 118 956 118 958 l 339 956 q 322 949 339 958 q 292 910 306 939 q 278 826 278 882 l 278 129 q 292 45 278 74 q 322 7 306 17 q 339 0 339 -3 l 117 0 m 156 1192 l 299 1017 l -8 1192 l 156 1192 z "},"Ī":{"ha":433,"x_min":58,"x_max":397,"o":"m 117 0 q 133 6 117 -4 q 164 45 150 17 q 178 129 178 74 l 178 826 q 165 910 178 882 q 135 949 151 939 q 118 956 118 958 l 339 956 q 322 949 339 958 q 292 910 306 939 q 278 826 278 882 l 278 129 q 292 45 278 74 q 322 7 306 17 q 339 0 339 -3 l 117 0 m 58 1132 l 397 1132 l 397 1068 l 58 1068 l 58 1132 z "},"Į":{"ha":433,"x_min":117,"x_max":350,"o":"m 117 0 q 133 6 117 -4 q 164 45 150 17 q 178 129 178 74 l 178 826 q 165 910 178 882 q 135 949 151 939 q 118 956 118 958 l 339 956 q 322 949 339 958 q 292 910 306 939 q 278 826 278 882 l 278 129 q 292 45 278 74 q 322 7 306 17 q 339 0 339 -3 l 117 0 m 297 0 q 224 -76 247 -43 q 200 -139 200 -108 q 217 -180 200 -164 q 263 -196 235 -196 q 350 -167 299 -196 q 295 -226 328 -206 q 228 -246 263 -246 q 158 -219 186 -246 q 129 -147 129 -193 q 231 0 129 -69 l 297 0 z "},"Ĩ":{"ha":433,"x_min":60,"x_max":390,"o":"m 117 0 q 133 6 117 -4 q 164 45 150 17 q 178 129 178 74 l 178 826 q 165 910 178 882 q 135 949 151 939 q 118 956 118 958 l 339 956 q 322 949 339 958 q 292 910 306 939 q 278 826 278 882 l 278 129 q 292 45 278 74 q 322 7 306 17 q 339 0 339 -3 l 117 0 m 60 1079 q 85 1142 60 1119 q 151 1165 111 1165 q 250 1140 192 1165 q 318 1122 294 1122 q 365 1183 365 1122 q 364 1207 365 1199 q 390 1140 390 1183 q 365 1077 390 1100 q 299 1054 339 1054 q 200 1079 258 1054 q 132 1097 156 1097 q 85 1036 85 1097 q 86 1013 85 1021 q 60 1079 60 1036 z "},"J":{"ha":433,"x_min":22,"x_max":338,"o":"m 278 43 q 242 -103 278 -37 q 148 -204 207 -168 q 22 -240 89 -240 q 136 -134 94 -211 q 178 49 178 -57 l 178 828 q 164 910 178 882 q 133 949 150 939 q 117 956 117 958 l 338 956 q 321 949 338 958 q 291 910 304 939 q 278 828 278 882 l 278 43 z "},"Ĵ":{"ha":433,"x_min":22,"x_max":408,"o":"m 278 43 q 242 -103 278 -37 q 148 -204 207 -168 q 22 -240 89 -240 q 136 -134 94 -211 q 178 49 178 -57 l 178 828 q 164 910 178 882 q 133 949 150 939 q 117 956 117 958 l 338 956 q 321 949 338 958 q 291 910 304 939 q 278 828 278 882 l 278 43 m 226 1206 l 408 1017 l 226 1099 l 44 1017 l 226 1206 z "},"K":{"ha":922,"x_min":119,"x_max":885,"o":"m 714 0 l 278 486 l 278 128 q 297 31 278 58 q 333 0 317 3 l 119 0 q 157 30 136 3 q 178 128 178 57 l 178 826 q 158 924 178 897 q 119 956 139 950 l 333 956 q 297 926 317 953 q 278 826 278 899 l 278 490 l 607 818 q 686 926 686 897 q 667 956 686 951 l 885 956 q 815 926 863 953 q 692 824 767 899 l 381 515 l 732 133 q 833 33 796 60 q 885 0 869 6 l 714 0 z "},"Ķ":{"ha":922,"x_min":119,"x_max":885,"o":"m 714 0 l 278 486 l 278 128 q 297 31 278 58 q 333 0 317 3 l 119 0 q 157 30 136 3 q 178 128 178 57 l 178 826 q 158 924 178 897 q 119 956 139 950 l 333 956 q 297 926 317 953 q 278 826 278 899 l 278 490 l 607 818 q 686 926 686 897 q 667 956 686 951 l 885 956 q 815 926 863 953 q 692 824 767 899 l 381 515 l 732 133 q 833 33 796 60 q 885 0 869 6 l 714 0 m 396 -339 q 450 -290 428 -328 q 472 -207 472 -253 l 464 -207 q 418 -191 433 -207 q 403 -151 403 -175 q 419 -109 403 -126 q 463 -92 435 -92 q 515 -117 493 -92 q 538 -189 538 -142 q 501 -292 538 -247 q 396 -339 464 -336 z "},"L":{"ha":703,"x_min":118,"x_max":678,"o":"m 178 826 q 165 910 178 882 q 135 949 151 939 q 118 956 118 958 l 339 956 q 322 949 339 958 q 292 910 306 939 q 278 826 278 882 l 278 56 l 506 56 q 613 81 568 56 q 678 147 658 107 l 653 0 l 118 0 q 135 6 118 -4 q 165 48 151 17 q 178 139 178 79 l 178 826 z "},"Ĺ":{"ha":703,"x_min":118,"x_max":678,"o":"m 178 826 q 165 910 178 882 q 135 949 151 939 q 118 956 118 958 l 339 956 q 322 949 339 958 q 292 910 306 939 q 278 826 278 882 l 278 56 l 506 56 q 613 81 568 56 q 678 147 658 107 l 653 0 l 118 0 q 135 6 118 -4 q 165 48 151 17 q 178 139 178 79 l 178 826 m 381 1192 l 544 1192 l 238 1017 l 381 1192 z "},"Ľ":{"ha":703,"x_min":118,"x_max":678,"o":"m 178 826 q 165 910 178 882 q 135 949 151 939 q 118 956 118 958 l 339 956 q 322 949 339 958 q 292 910 306 939 q 278 826 278 882 l 278 56 l 506 56 q 613 81 568 56 q 678 147 658 107 l 653 0 l 118 0 q 135 6 118 -4 q 165 48 151 17 q 178 139 178 79 l 178 826 m 479 1010 l 575 1010 l 435 750 l 479 1010 z "},"Ļ":{"ha":703,"x_min":118,"x_max":678,"o":"m 178 826 q 165 910 178 882 q 135 949 151 939 q 118 956 118 958 l 339 956 q 322 949 339 958 q 292 910 306 939 q 278 826 278 882 l 278 56 l 506 56 q 613 81 568 56 q 678 147 658 107 l 653 0 l 118 0 q 135 6 118 -4 q 165 48 151 17 q 178 139 178 79 l 178 826 m 315 -339 q 369 -290 347 -328 q 392 -207 392 -253 l 383 -207 q 338 -191 353 -207 q 322 -151 322 -175 q 338 -109 322 -126 q 382 -92 354 -92 q 435 -117 413 -92 q 457 -189 457 -142 q 420 -292 457 -247 q 315 -339 383 -336 z "},"Ŀ":{"ha":703,"x_min":118,"x_max":678,"o":"m 178 826 q 165 910 178 882 q 135 949 151 939 q 118 956 118 958 l 339 956 q 322 949 339 958 q 292 910 306 939 q 278 826 278 882 l 278 56 l 506 56 q 613 81 568 56 q 678 147 658 107 l 653 0 l 118 0 q 135 6 118 -4 q 165 48 151 17 q 178 139 178 79 l 178 826 m 557 382 q 509 402 526 382 q 492 449 492 422 q 509 495 492 475 q 557 515 526 515 q 605 495 588 515 q 622 449 622 475 q 605 402 622 422 q 557 382 588 382 z "},"Ł":{"ha":703,"x_min":83,"x_max":678,"o":"m 178 826 q 158 924 178 897 q 119 956 139 950 l 338 956 q 299 926 319 953 q 278 826 278 899 l 278 524 l 481 683 l 481 614 l 278 456 l 278 56 l 506 56 q 613 81 568 56 q 678 147 658 107 l 653 0 l 119 0 q 158 32 138 4 q 178 139 178 60 l 178 376 l 83 303 l 83 371 l 178 444 l 178 826 z "},"M":{"ha":1233,"x_min":107,"x_max":1138,"o":"m 922 0 q 958 30 939 3 q 978 131 978 57 l 978 825 l 614 -15 l 244 824 l 244 138 q 269 33 244 63 q 313 0 293 3 l 107 0 q 153 31 128 3 q 178 138 178 60 l 178 833 q 154 925 178 900 q 107 956 131 950 l 294 956 l 635 179 l 969 956 l 1138 956 q 1099 926 1119 953 q 1078 829 1078 900 l 1078 125 q 1099 29 1078 56 q 1138 0 1119 3 l 922 0 z "},"N":{"ha":1111,"x_min":65,"x_max":1013,"o":"m 1013 956 q 974 924 993 951 q 956 829 956 897 l 956 -39 l 244 790 l 244 125 q 268 31 244 58 q 314 0 292 4 l 118 0 q 158 31 138 4 q 178 126 178 58 l 178 821 q 146 907 178 868 q 65 956 114 946 l 238 956 l 889 196 l 889 829 q 817 956 889 936 l 1013 956 z "},"Ń":{"ha":1111,"x_min":65,"x_max":1013,"o":"m 1013 956 q 974 924 993 951 q 956 829 956 897 l 956 -39 l 244 790 l 244 125 q 268 31 244 58 q 314 0 292 4 l 118 0 q 158 31 138 4 q 178 126 178 58 l 178 821 q 146 907 178 868 q 65 956 114 946 l 238 956 l 889 196 l 889 829 q 817 956 889 936 l 1013 956 m 585 1192 l 749 1192 l 442 1017 l 585 1192 z "},"Ň":{"ha":1111,"x_min":65,"x_max":1013,"o":"m 1013 956 q 974 924 993 951 q 956 829 956 897 l 956 -39 l 244 790 l 244 125 q 268 31 244 58 q 314 0 292 4 l 118 0 q 158 31 138 4 q 178 126 178 58 l 178 821 q 146 907 178 868 q 65 956 114 946 l 238 956 l 889 196 l 889 829 q 817 956 889 936 l 1013 956 m 738 1206 l 556 1017 l 374 1206 l 556 1124 l 738 1206 z "},"Ņ":{"ha":1111,"x_min":65,"x_max":1013,"o":"m 1013 956 q 974 924 993 951 q 956 829 956 897 l 956 -39 l 244 790 l 244 125 q 268 31 244 58 q 314 0 292 4 l 118 0 q 158 31 138 4 q 178 126 178 58 l 178 821 q 146 907 178 868 q 65 956 114 946 l 238 956 l 889 196 l 889 829 q 817 956 889 936 l 1013 956 m 492 -339 q 546 -290 524 -328 q 568 -207 568 -253 l 560 -207 q 514 -191 529 -207 q 499 -151 499 -175 q 515 -109 499 -126 q 558 -92 531 -92 q 611 -117 589 -92 q 633 -189 633 -142 q 597 -292 633 -247 q 492 -339 560 -336 z "},"Ŋ":{"ha":1111,"x_min":65,"x_max":1014,"o":"m 1014 956 q 976 924 994 951 q 957 829 957 897 l 957 43 q 887 -167 957 -93 q 701 -240 817 -240 q 876 -17 876 -164 q 826 111 876 51 l 244 790 l 244 125 q 268 31 244 58 q 314 0 292 4 l 118 0 q 158 31 138 4 q 178 126 178 58 l 178 821 q 146 907 178 868 q 65 956 114 946 l 238 956 l 890 196 l 890 829 q 818 956 890 936 l 1014 956 z "},"Ñ":{"ha":1111,"x_min":65,"x_max":1013,"o":"m 1013 956 q 974 924 993 951 q 956 829 956 897 l 956 -39 l 244 790 l 244 125 q 268 31 244 58 q 314 0 292 4 l 118 0 q 158 31 138 4 q 178 126 178 58 l 178 821 q 146 907 178 868 q 65 956 114 946 l 238 956 l 889 196 l 889 829 q 817 956 889 936 l 1013 956 m 400 1078 q 426 1141 400 1118 q 492 1164 451 1164 q 590 1139 532 1164 q 658 1121 635 1121 q 706 1182 706 1121 q 704 1206 706 1197 q 731 1139 731 1182 q 705 1076 731 1099 q 639 1053 679 1053 q 540 1078 599 1053 q 472 1096 496 1096 q 425 1035 425 1096 q 426 1011 425 1019 q 400 1078 400 1035 z "},"O":{"ha":1136,"x_min":89,"x_max":1069,"o":"m 89 467 q 152 729 89 614 q 330 908 215 844 q 594 972 444 972 q 828 917 719 972 q 1003 753 938 863 q 1069 489 1069 643 q 1006 226 1069 342 q 828 47 943 111 q 564 -17 714 -17 q 330 38 439 -17 q 155 203 221 93 q 89 467 89 313 m 958 468 q 906 697 958 594 q 763 856 854 799 q 558 914 672 914 q 373 861 454 914 q 246 712 292 808 q 200 488 200 615 q 252 259 200 361 q 395 99 304 157 q 600 42 486 42 q 785 94 704 42 q 913 244 867 147 q 958 468 958 340 z "},"Ó":{"ha":1136,"x_min":89,"x_max":1069,"o":"m 89 467 q 152 729 89 614 q 330 908 215 844 q 594 972 444 972 q 828 917 719 972 q 1003 753 938 863 q 1069 489 1069 643 q 1006 226 1069 342 q 828 47 943 111 q 564 -17 714 -17 q 330 38 439 -17 q 155 203 221 93 q 89 467 89 313 m 958 468 q 906 697 958 594 q 763 856 854 799 q 558 914 672 914 q 373 861 454 914 q 246 712 292 808 q 200 488 200 615 q 252 259 200 361 q 395 99 304 157 q 600 42 486 42 q 785 94 704 42 q 913 244 867 147 q 958 468 958 340 m 611 1192 l 775 1192 l 468 1017 l 611 1192 z "},"Ŏ":{"ha":1136,"x_min":89,"x_max":1069,"o":"m 89 467 q 152 729 89 614 q 330 908 215 844 q 594 972 444 972 q 828 917 719 972 q 1003 753 938 863 q 1069 489 1069 643 q 1006 226 1069 342 q 828 47 943 111 q 564 -17 714 -17 q 330 38 439 -17 q 155 203 221 93 q 89 467 89 313 m 958 468 q 906 697 958 594 q 763 856 854 799 q 558 914 672 914 q 373 861 454 914 q 246 712 292 808 q 200 488 200 615 q 252 259 200 361 q 395 99 304 157 q 600 42 486 42 q 785 94 704 42 q 913 244 867 147 q 958 468 958 340 m 569 1028 q 489 1062 522 1028 q 456 1142 456 1096 q 476 1206 456 1175 q 472 1178 472 1192 q 500 1126 472 1144 q 569 1107 528 1107 q 639 1126 611 1107 q 667 1178 667 1144 q 663 1206 667 1192 q 683 1142 683 1175 q 650 1062 683 1096 q 569 1028 617 1028 z "},"Ô":{"ha":1136,"x_min":89,"x_max":1069,"o":"m 89 467 q 152 729 89 614 q 330 908 215 844 q 594 972 444 972 q 828 917 719 972 q 1003 753 938 863 q 1069 489 1069 643 q 1006 226 1069 342 q 828 47 943 111 q 564 -17 714 -17 q 330 38 439 -17 q 155 203 221 93 q 89 467 89 313 m 958 468 q 906 697 958 594 q 763 856 854 799 q 558 914 672 914 q 373 861 454 914 q 246 712 292 808 q 200 488 200 615 q 252 259 200 361 q 395 99 304 157 q 600 42 486 42 q 785 94 704 42 q 913 244 867 147 q 958 468 958 340 m 565 1206 l 747 1017 l 565 1099 l 383 1017 l 565 1206 z "},"Ö":{"ha":1136,"x_min":89,"x_max":1069,"o":"m 89 467 q 152 729 89 614 q 330 908 215 844 q 594 972 444 972 q 828 917 719 972 q 1003 753 938 863 q 1069 489 1069 643 q 1006 226 1069 342 q 828 47 943 111 q 564 -17 714 -17 q 330 38 439 -17 q 155 203 221 93 q 89 467 89 313 m 958 468 q 906 697 958 594 q 763 856 854 799 q 558 914 672 914 q 373 861 454 914 q 246 712 292 808 q 200 488 200 615 q 252 259 200 361 q 395 99 304 157 q 600 42 486 42 q 785 94 704 42 q 913 244 867 147 q 958 468 958 340 m 410 1029 q 370 1046 385 1029 q 356 1085 356 1063 q 370 1124 356 1107 q 410 1140 385 1140 q 449 1124 435 1140 q 464 1085 464 1107 q 449 1046 464 1063 q 410 1029 435 1029 m 726 1029 q 687 1046 701 1029 q 672 1085 672 1063 q 687 1124 672 1107 q 726 1140 701 1140 q 766 1124 751 1140 q 781 1085 781 1107 q 766 1046 781 1063 q 726 1029 751 1029 z "},"Ò":{"ha":1136,"x_min":89,"x_max":1069,"o":"m 89 467 q 152 729 89 614 q 330 908 215 844 q 594 972 444 972 q 828 917 719 972 q 1003 753 938 863 q 1069 489 1069 643 q 1006 226 1069 342 q 828 47 943 111 q 564 -17 714 -17 q 330 38 439 -17 q 155 203 221 93 q 89 467 89 313 m 958 468 q 906 697 958 594 q 763 856 854 799 q 558 914 672 914 q 373 861 454 914 q 246 712 292 808 q 200 488 200 615 q 252 259 200 361 q 395 99 304 157 q 600 42 486 42 q 785 94 704 42 q 913 244 867 147 q 958 468 958 340 m 507 1192 l 650 1017 l 343 1192 l 507 1192 z "},"Ő":{"ha":1136,"x_min":89,"x_max":1069,"o":"m 89 467 q 152 729 89 614 q 330 908 215 844 q 594 972 444 972 q 828 917 719 972 q 1003 753 938 863 q 1069 489 1069 643 q 1006 226 1069 342 q 828 47 943 111 q 564 -17 714 -17 q 330 38 439 -17 q 155 203 221 93 q 89 467 89 313 m 958 468 q 906 697 958 594 q 763 856 854 799 q 558 914 672 914 q 373 861 454 914 q 246 712 292 808 q 200 488 200 615 q 252 259 200 361 q 395 99 304 157 q 600 42 486 42 q 785 94 704 42 q 913 244 867 147 q 958 468 958 340 m 544 1192 l 708 1192 l 401 1017 l 544 1192 m 754 1192 l 918 1192 l 611 1017 l 754 1192 z "},"Ō":{"ha":1136,"x_min":89,"x_max":1069,"o":"m 89 467 q 152 729 89 614 q 330 908 215 844 q 594 972 444 972 q 828 917 719 972 q 1003 753 938 863 q 1069 489 1069 643 q 1006 226 1069 342 q 828 47 943 111 q 564 -17 714 -17 q 330 38 439 -17 q 155 203 221 93 q 89 467 89 313 m 958 468 q 906 697 958 594 q 763 856 854 799 q 558 914 672 914 q 373 861 454 914 q 246 712 292 808 q 200 488 200 615 q 252 259 200 361 q 395 99 304 157 q 600 42 486 42 q 785 94 704 42 q 913 244 867 147 q 958 468 958 340 m 399 1132 l 738 1132 l 738 1068 l 399 1068 l 399 1132 z "},"Ø":{"ha":1136,"x_min":89,"x_max":1069,"o":"m 165 -17 l 121 24 l 214 125 q 122 272 154 186 q 89 467 89 358 q 152 729 89 614 q 330 908 215 844 q 594 972 444 972 q 758 946 679 972 q 900 869 838 919 l 994 972 l 1038 933 l 943 831 q 1036 683 1003 768 q 1069 489 1069 597 q 1006 226 1069 342 q 828 47 943 111 q 564 -17 714 -17 q 400 9 479 -17 q 258 85 321 35 l 165 -17 m 835 799 q 710 884 781 854 q 558 914 639 914 q 373 861 454 914 q 246 712 292 808 q 200 488 200 615 q 222 333 200 406 q 286 203 244 260 l 835 799 m 958 468 q 936 623 958 550 q 872 753 914 696 l 324 156 q 448 72 378 101 q 600 42 518 42 q 785 94 704 42 q 913 244 867 147 q 958 468 958 340 z "},"Õ":{"ha":1136,"x_min":89,"x_max":1069,"o":"m 89 467 q 152 729 89 614 q 330 908 215 844 q 594 972 444 972 q 828 917 719 972 q 1003 753 938 863 q 1069 489 1069 643 q 1006 226 1069 342 q 828 47 943 111 q 564 -17 714 -17 q 330 38 439 -17 q 155 203 221 93 q 89 467 89 313 m 958 468 q 906 697 958 594 q 763 856 854 799 q 558 914 672 914 q 373 861 454 914 q 246 712 292 808 q 200 488 200 615 q 252 259 200 361 q 395 99 304 157 q 600 42 486 42 q 785 94 704 42 q 913 244 867 147 q 958 468 958 340 m 414 1078 q 440 1141 414 1118 q 506 1164 465 1164 q 604 1139 546 1164 q 672 1121 649 1121 q 719 1182 719 1121 q 718 1206 719 1197 q 744 1139 744 1182 q 719 1076 744 1099 q 653 1053 693 1053 q 554 1078 613 1053 q 486 1096 510 1096 q 439 1035 439 1096 q 440 1011 439 1019 q 414 1078 414 1035 z "},"Œ":{"ha":1293,"x_min":89,"x_max":1226,"o":"m 707 0 q 564 -17 640 -17 q 330 38 439 -17 q 155 203 221 93 q 89 467 89 313 q 152 729 89 614 q 330 908 215 844 q 594 972 444 972 q 728 956 664 972 l 1181 956 l 1181 817 q 1031 900 1156 900 l 838 900 l 838 506 l 1076 506 q 1124 515 1104 506 q 1153 533 1143 524 q 1164 546 1163 543 l 1164 411 q 1153 424 1163 414 q 1124 442 1143 433 q 1078 450 1106 450 l 838 450 l 838 56 l 1054 56 q 1162 81 1117 56 q 1226 147 1207 107 l 1201 0 l 707 0 m 729 65 q 738 139 738 93 l 738 821 q 733 872 738 851 q 558 913 657 913 q 373 860 454 913 q 246 711 292 807 q 200 488 200 615 q 252 259 200 361 q 395 99 304 157 q 600 42 486 42 q 729 65 674 42 z "},"P":{"ha":761,"x_min":118,"x_max":717,"o":"m 717 697 q 678 553 717 617 q 569 454 640 490 q 403 418 499 418 q 278 431 344 418 l 278 128 q 292 45 278 74 q 322 7 306 17 q 339 0 339 -3 l 118 0 q 135 7 118 -3 q 165 44 151 17 q 178 128 178 72 l 178 824 q 165 908 178 879 q 135 948 151 938 q 118 956 118 958 l 390 956 q 507 947 461 956 q 588 919 553 938 q 683 827 650 888 q 717 697 717 767 m 610 679 q 549 839 610 778 q 386 900 488 900 l 278 900 l 278 485 q 403 474 338 474 q 555 530 500 474 q 610 679 610 586 z "},"Þ":{"ha":761,"x_min":119,"x_max":717,"o":"m 178 828 q 158 924 178 897 q 119 956 139 950 l 336 956 q 298 926 318 953 q 278 828 278 900 l 278 768 l 390 768 q 507 759 461 768 q 588 732 553 750 q 683 640 650 700 q 717 510 717 579 q 668 351 717 419 q 533 251 619 282 q 465 235 503 240 q 361 231 426 231 l 278 231 l 278 128 q 299 31 278 58 q 338 0 319 3 l 119 0 q 158 30 138 4 q 178 128 178 56 l 178 828 m 278 713 l 278 286 l 361 286 q 451 292 419 286 q 507 308 483 297 q 583 380 557 332 q 610 492 610 428 q 549 651 610 590 q 386 713 488 713 l 278 713 z "},"Q":{"ha":1158,"x_min":89,"x_max":1211,"o":"m 89 467 q 152 729 89 614 q 330 908 215 844 q 594 972 444 972 q 828 917 719 972 q 1003 753 938 863 q 1069 489 1069 643 q 1005 223 1069 339 q 824 44 940 107 q 960 -65 883 -15 q 1103 -142 1036 -114 q 1203 -171 1169 -171 l 1211 -171 q 1150 -189 1188 -182 q 1076 -196 1113 -196 q 906 -147 1003 -196 q 708 0 810 -99 q 564 -17 629 -17 q 330 38 439 -17 q 155 203 221 93 q 89 467 89 313 m 958 468 q 906 697 958 594 q 763 856 854 799 q 558 914 672 914 q 373 861 454 914 q 246 712 292 808 q 200 488 200 615 q 252 259 200 361 q 395 99 304 157 q 600 42 486 42 q 785 94 704 42 q 913 244 867 147 q 958 468 958 340 z "},"R":{"ha":861,"x_min":118,"x_max":854,"o":"m 397 481 q 508 510 461 481 q 580 588 556 540 q 604 689 604 636 q 581 791 604 743 q 511 869 558 839 q 396 900 464 900 l 278 900 l 278 128 q 292 44 278 72 q 322 6 306 15 q 339 0 339 -3 l 118 0 q 135 7 118 -3 q 165 44 151 17 q 178 128 178 72 l 178 822 q 165 909 178 879 q 135 949 151 939 q 118 956 118 960 l 393 956 q 572 920 501 956 q 673 828 642 885 q 704 706 704 772 q 678 597 704 650 q 602 503 651 543 q 488 449 553 464 l 465 444 l 710 133 q 790 50 758 79 q 837 11 822 21 q 854 0 851 1 l 692 0 l 314 481 l 397 481 z "},"Ŕ":{"ha":861,"x_min":118,"x_max":854,"o":"m 397 481 q 508 510 461 481 q 580 588 556 540 q 604 689 604 636 q 581 791 604 743 q 511 869 558 839 q 396 900 464 900 l 278 900 l 278 128 q 292 44 278 72 q 322 6 306 15 q 339 0 339 -3 l 118 0 q 135 7 118 -3 q 165 44 151 17 q 178 128 178 72 l 178 822 q 165 909 178 879 q 135 949 151 939 q 118 956 118 960 l 393 956 q 572 920 501 956 q 673 828 642 885 q 704 706 704 772 q 678 597 704 650 q 602 503 651 543 q 488 449 553 464 l 465 444 l 710 133 q 790 50 758 79 q 837 11 822 21 q 854 0 851 1 l 692 0 l 314 481 l 397 481 m 474 1192 l 638 1192 l 331 1017 l 474 1192 z "},"Ř":{"ha":861,"x_min":118,"x_max":854,"o":"m 397 481 q 508 510 461 481 q 580 588 556 540 q 604 689 604 636 q 581 791 604 743 q 511 869 558 839 q 396 900 464 900 l 278 900 l 278 128 q 292 44 278 72 q 322 6 306 15 q 339 0 339 -3 l 118 0 q 135 7 118 -3 q 165 44 151 17 q 178 128 178 72 l 178 822 q 165 909 178 879 q 135 949 151 939 q 118 956 118 960 l 393 956 q 572 920 501 956 q 673 828 642 885 q 704 706 704 772 q 678 597 704 650 q 602 503 651 543 q 488 449 553 464 l 465 444 l 710 133 q 790 50 758 79 q 837 11 822 21 q 854 0 851 1 l 692 0 l 314 481 l 397 481 m 601 1206 l 419 1017 l 238 1206 l 419 1124 l 601 1206 z "},"Ŗ":{"ha":861,"x_min":118,"x_max":854,"o":"m 397 481 q 508 510 461 481 q 580 588 556 540 q 604 689 604 636 q 581 791 604 743 q 511 869 558 839 q 396 900 464 900 l 278 900 l 278 128 q 292 44 278 72 q 322 6 306 15 q 339 0 339 -3 l 118 0 q 135 7 118 -3 q 165 44 151 17 q 178 128 178 72 l 178 822 q 165 909 178 879 q 135 949 151 939 q 118 956 118 960 l 393 956 q 572 920 501 956 q 673 828 642 885 q 704 706 704 772 q 678 597 704 650 q 602 503 651 543 q 488 449 553 464 l 465 444 l 710 133 q 790 50 758 79 q 837 11 822 21 q 854 0 851 1 l 692 0 l 314 481 l 397 481 m 374 -339 q 428 -290 406 -328 q 450 -207 450 -253 l 442 -207 q 396 -191 411 -207 q 381 -151 381 -175 q 397 -109 381 -126 q 440 -92 413 -92 q 493 -117 471 -92 q 515 -189 515 -142 q 478 -292 515 -247 q 374 -339 442 -336 z "},"S":{"ha":733,"x_min":113,"x_max":660,"o":"m 371 -17 q 232 3 299 -17 q 113 60 165 24 l 113 228 q 223 87 149 135 q 378 39 297 39 q 513 92 458 39 q 567 225 567 146 q 545 315 567 278 q 476 385 524 353 q 343 458 429 418 q 167 574 222 514 q 113 721 113 635 q 148 852 113 794 q 244 941 183 910 q 376 972 304 972 q 499 955 439 972 q 610 906 558 938 l 610 756 q 509 874 576 832 q 372 917 442 917 q 244 865 293 917 q 196 743 196 814 q 225 655 196 692 q 297 593 254 618 q 415 532 339 568 q 543 463 493 494 q 626 379 593 431 q 660 254 660 328 q 620 110 660 171 q 515 16 581 49 q 371 -17 449 -17 z "},"Ś":{"ha":733,"x_min":113,"x_max":660,"o":"m 371 -17 q 232 3 299 -17 q 113 60 165 24 l 113 228 q 223 87 149 135 q 378 39 297 39 q 513 92 458 39 q 567 225 567 146 q 545 315 567 278 q 476 385 524 353 q 343 458 429 418 q 167 574 222 514 q 113 721 113 635 q 148 852 113 794 q 244 941 183 910 q 376 972 304 972 q 499 955 439 972 q 610 906 558 938 l 610 756 q 509 874 576 832 q 372 917 442 917 q 244 865 293 917 q 196 743 196 814 q 225 655 196 692 q 297 593 254 618 q 415 532 339 568 q 543 463 493 494 q 626 379 593 431 q 660 254 660 328 q 620 110 660 171 q 515 16 581 49 q 371 -17 449 -17 m 396 1192 l 560 1192 l 253 1017 l 396 1192 z "},"Š":{"ha":733,"x_min":113,"x_max":660,"o":"m 371 -17 q 232 3 299 -17 q 113 60 165 24 l 113 228 q 223 87 149 135 q 378 39 297 39 q 513 92 458 39 q 567 225 567 146 q 545 315 567 278 q 476 385 524 353 q 343 458 429 418 q 167 574 222 514 q 113 721 113 635 q 148 852 113 794 q 244 941 183 910 q 376 972 304 972 q 499 955 439 972 q 610 906 558 938 l 610 756 q 509 874 576 832 q 372 917 442 917 q 244 865 293 917 q 196 743 196 814 q 225 655 196 692 q 297 593 254 618 q 415 532 339 568 q 543 463 493 494 q 626 379 593 431 q 660 254 660 328 q 620 110 660 171 q 515 16 581 49 q 371 -17 449 -17 m 551 1206 l 369 1017 l 188 1206 l 369 1124 l 551 1206 z "},"Ş":{"ha":733,"x_min":113,"x_max":660,"o":"m 461 -164 q 433 -227 461 -200 q 353 -254 404 -254 q 292 -240 321 -254 q 249 -196 264 -225 q 322 -211 292 -211 q 367 -195 351 -211 q 383 -157 383 -179 q 368 -120 383 -136 q 324 -104 353 -104 l 311 -104 l 349 -17 q 113 60 210 -10 l 113 228 q 223 87 149 135 q 378 39 297 39 q 513 92 458 39 q 567 225 567 146 q 545 315 567 278 q 476 385 524 353 q 343 458 429 418 q 167 574 222 514 q 113 721 113 635 q 148 852 113 794 q 244 941 183 910 q 376 972 304 972 q 499 955 439 972 q 610 906 558 938 l 610 756 q 509 874 576 832 q 372 917 442 917 q 244 865 293 917 q 196 743 196 814 q 225 655 196 692 q 297 593 254 618 q 415 532 339 568 q 543 463 493 494 q 626 379 593 431 q 660 254 660 328 q 625 117 660 176 q 531 25 590 58 q 400 -15 472 -8 l 372 -78 q 438 -108 415 -83 q 461 -164 461 -132 z "},"Ŝ":{"ha":733,"x_min":113,"x_max":660,"o":"m 371 -17 q 232 3 299 -17 q 113 60 165 24 l 113 228 q 223 87 149 135 q 378 39 297 39 q 513 92 458 39 q 567 225 567 146 q 545 315 567 278 q 476 385 524 353 q 343 458 429 418 q 167 574 222 514 q 113 721 113 635 q 148 852 113 794 q 244 941 183 910 q 376 972 304 972 q 499 955 439 972 q 610 906 558 938 l 610 756 q 509 874 576 832 q 372 917 442 917 q 244 865 293 917 q 196 743 196 814 q 225 655 196 692 q 297 593 254 618 q 415 532 339 568 q 543 463 493 494 q 626 379 593 431 q 660 254 660 328 q 620 110 660 171 q 515 16 581 49 q 371 -17 449 -17 m 374 1206 l 556 1017 l 374 1099 l 192 1017 l 374 1206 z "},"Ș":{"ha":733,"x_min":113,"x_max":660,"o":"m 371 -17 q 232 3 299 -17 q 113 60 165 24 l 113 228 q 223 87 149 135 q 378 39 297 39 q 513 92 458 39 q 567 225 567 146 q 545 315 567 278 q 476 385 524 353 q 343 458 429 418 q 167 574 222 514 q 113 721 113 635 q 148 852 113 794 q 244 941 183 910 q 376 972 304 972 q 499 955 439 972 q 610 906 558 938 l 610 756 q 509 874 576 832 q 372 917 442 917 q 244 865 293 917 q 196 743 196 814 q 225 655 196 692 q 297 593 254 618 q 415 532 339 568 q 543 463 493 494 q 626 379 593 431 q 660 254 660 328 q 620 110 660 171 q 515 16 581 49 q 371 -17 449 -17 m 293 -339 q 347 -290 325 -328 q 369 -207 369 -253 l 361 -207 q 315 -191 331 -207 q 300 -151 300 -175 q 316 -109 300 -126 q 360 -92 332 -92 q 413 -117 390 -92 q 435 -189 435 -142 q 398 -292 435 -247 q 293 -339 361 -336 z "},"ẞ":{"ha":1019,"x_min":118,"x_max":922,"o":"m 178 540 q 228 760 178 665 q 370 905 279 854 q 576 956 461 956 l 888 956 l 653 538 q 777 498 715 529 q 881 408 839 467 q 922 268 922 350 q 884 128 922 193 q 776 23 846 63 q 618 -17 707 -17 q 499 1 554 -17 q 414 43 444 19 l 414 151 q 500 71 446 103 q 611 39 554 39 q 756 101 701 39 q 811 265 811 163 q 747 438 811 379 q 568 497 683 497 l 529 497 l 749 900 l 550 900 q 344 803 411 900 q 278 543 278 706 l 278 129 q 299 30 278 57 q 338 0 319 3 l 118 0 q 157 29 136 3 q 178 129 178 56 l 178 540 z "},"T":{"ha":767,"x_min":46,"x_max":743,"o":"m 206 900 q 104 876 144 900 q 46 817 64 853 l 65 956 l 724 956 l 743 817 q 685 876 725 853 q 583 900 644 900 l 444 900 l 444 129 q 458 44 444 74 q 489 6 472 15 q 506 0 506 -4 l 285 0 q 301 6 285 -4 q 331 44 318 15 q 344 129 344 72 l 344 900 l 206 900 z "},"Ŧ":{"ha":767,"x_min":46,"x_max":743,"o":"m 444 129 q 465 30 444 57 q 504 0 486 3 l 288 0 q 325 29 306 3 q 344 129 344 56 l 344 450 l 225 450 l 225 506 l 344 506 l 344 900 l 206 900 q 104 876 144 900 q 46 817 64 853 l 65 956 l 724 956 l 743 817 q 685 876 725 853 q 583 900 644 900 l 444 900 l 444 506 l 564 506 l 564 450 l 444 450 l 444 129 z "},"Ť":{"ha":767,"x_min":46,"x_max":743,"o":"m 206 900 q 104 876 144 900 q 46 817 64 853 l 65 956 l 724 956 l 743 817 q 685 876 725 853 q 583 900 644 900 l 444 900 l 444 129 q 458 44 444 74 q 489 6 472 15 q 506 0 506 -4 l 285 0 q 301 6 285 -4 q 331 44 318 15 q 344 129 344 72 l 344 900 l 206 900 m 563 1206 l 381 1017 l 199 1206 l 381 1124 l 563 1206 z "},"Ţ":{"ha":767,"x_min":46,"x_max":743,"o":"m 206 900 q 104 876 144 900 q 46 817 64 853 l 65 956 l 724 956 l 743 817 q 685 876 725 853 q 583 900 644 900 l 444 900 l 444 129 q 458 44 444 74 q 489 6 472 15 q 506 0 506 -4 l 285 0 q 301 6 285 -4 q 331 44 318 15 q 344 129 344 72 l 344 900 l 206 900 m 490 -153 q 462 -216 490 -189 q 382 -243 433 -243 q 322 -228 350 -243 q 278 -185 293 -214 q 351 -200 321 -200 q 397 -184 381 -200 q 413 -146 413 -168 q 397 -109 413 -125 q 353 -93 382 -93 l 340 -93 l 381 0 l 432 0 l 401 -67 q 467 -97 444 -72 q 490 -153 490 -121 z "},"Ț":{"ha":767,"x_min":46,"x_max":743,"o":"m 206 900 q 104 876 144 900 q 46 817 64 853 l 65 956 l 724 956 l 743 817 q 685 876 725 853 q 583 900 644 900 l 444 900 l 444 129 q 458 44 444 74 q 489 6 472 15 q 506 0 506 -4 l 285 0 q 301 6 285 -4 q 331 44 318 15 q 344 129 344 72 l 344 900 l 206 900 m 324 -339 q 378 -290 356 -328 q 400 -207 400 -253 l 392 -207 q 346 -191 361 -207 q 331 -151 331 -175 q 347 -109 331 -126 q 390 -92 363 -92 q 443 -117 421 -92 q 465 -189 465 -142 q 428 -292 465 -247 q 324 -339 392 -336 z "},"U":{"ha":989,"x_min":119,"x_max":919,"o":"m 858 332 q 817 144 858 222 q 699 24 775 65 q 524 -17 624 -17 q 268 75 358 -17 q 178 329 178 167 l 178 826 q 165 910 178 882 q 135 949 151 939 q 119 956 119 958 l 336 956 q 320 949 336 958 q 291 911 304 939 q 278 831 278 883 l 278 329 q 342 121 278 194 q 532 47 407 47 q 714 117 647 47 q 781 325 781 188 l 781 826 q 767 910 781 882 q 736 949 753 939 q 719 956 719 958 l 919 956 q 903 949 919 958 q 872 910 886 939 q 858 826 858 882 l 858 332 z "},"Ú":{"ha":989,"x_min":119,"x_max":919,"o":"m 858 332 q 817 144 858 222 q 699 24 775 65 q 524 -17 624 -17 q 268 75 358 -17 q 178 329 178 167 l 178 826 q 165 910 178 882 q 135 949 151 939 q 119 956 119 958 l 336 956 q 320 949 336 958 q 291 911 304 939 q 278 831 278 883 l 278 329 q 342 121 278 194 q 532 47 407 47 q 714 117 647 47 q 781 325 781 188 l 781 826 q 767 910 781 882 q 736 949 753 939 q 719 956 719 958 l 919 956 q 903 949 919 958 q 872 910 886 939 q 858 826 858 882 l 858 332 m 593 1192 l 757 1192 l 450 1017 l 593 1192 z "},"Ŭ":{"ha":989,"x_min":119,"x_max":919,"o":"m 858 332 q 817 144 858 222 q 699 24 775 65 q 524 -17 624 -17 q 268 75 358 -17 q 178 329 178 167 l 178 826 q 165 910 178 882 q 135 949 151 939 q 119 956 119 958 l 336 956 q 320 949 336 958 q 291 911 304 939 q 278 831 278 883 l 278 329 q 342 121 278 194 q 532 47 407 47 q 714 117 647 47 q 781 325 781 188 l 781 826 q 767 910 781 882 q 736 949 753 939 q 719 956 719 958 l 919 956 q 903 949 919 958 q 872 910 886 939 q 858 826 858 882 l 858 332 m 524 1028 q 443 1062 476 1028 q 410 1142 410 1096 q 431 1206 410 1175 q 426 1178 426 1192 q 454 1126 426 1144 q 524 1107 482 1107 q 593 1126 565 1107 q 621 1178 621 1144 q 617 1206 621 1192 q 638 1142 638 1175 q 604 1062 638 1096 q 524 1028 571 1028 z "},"Û":{"ha":989,"x_min":119,"x_max":919,"o":"m 858 332 q 817 144 858 222 q 699 24 775 65 q 524 -17 624 -17 q 268 75 358 -17 q 178 329 178 167 l 178 826 q 165 910 178 882 q 135 949 151 939 q 119 956 119 958 l 336 956 q 320 949 336 958 q 291 911 304 939 q 278 831 278 883 l 278 329 q 342 121 278 194 q 532 47 407 47 q 714 117 647 47 q 781 325 781 188 l 781 826 q 767 910 781 882 q 736 949 753 939 q 719 956 719 958 l 919 956 q 903 949 919 958 q 872 910 886 939 q 858 826 858 882 l 858 332 m 525 1206 l 707 1017 l 525 1099 l 343 1017 l 525 1206 z "},"Ü":{"ha":989,"x_min":119,"x_max":919,"o":"m 858 332 q 817 144 858 222 q 699 24 775 65 q 524 -17 624 -17 q 268 75 358 -17 q 178 329 178 167 l 178 826 q 165 910 178 882 q 135 949 151 939 q 119 956 119 958 l 336 956 q 320 949 336 958 q 291 911 304 939 q 278 831 278 883 l 278 329 q 342 121 278 194 q 532 47 407 47 q 714 117 647 47 q 781 325 781 188 l 781 826 q 767 910 781 882 q 736 949 753 939 q 719 956 719 958 l 919 956 q 903 949 919 958 q 872 910 886 939 q 858 826 858 882 l 858 332 m 365 1029 q 326 1046 340 1029 q 311 1085 311 1063 q 326 1124 311 1107 q 365 1140 340 1140 q 405 1124 390 1140 q 419 1085 419 1107 q 405 1046 419 1063 q 365 1029 390 1029 m 682 1029 q 642 1046 657 1029 q 628 1085 628 1063 q 642 1124 628 1107 q 682 1140 657 1140 q 722 1124 707 1140 q 736 1085 736 1107 q 722 1046 736 1063 q 682 1029 707 1029 z "},"Ù":{"ha":989,"x_min":119,"x_max":919,"o":"m 858 332 q 817 144 858 222 q 699 24 775 65 q 524 -17 624 -17 q 268 75 358 -17 q 178 329 178 167 l 178 826 q 165 910 178 882 q 135 949 151 939 q 119 956 119 958 l 336 956 q 320 949 336 958 q 291 911 304 939 q 278 831 278 883 l 278 329 q 342 121 278 194 q 532 47 407 47 q 714 117 647 47 q 781 325 781 188 l 781 826 q 767 910 781 882 q 736 949 753 939 q 719 956 719 958 l 919 956 q 903 949 919 958 q 872 910 886 939 q 858 826 858 882 l 858 332 m 433 1192 l 576 1017 l 269 1192 l 433 1192 z "},"Ű":{"ha":989,"x_min":119,"x_max":919,"o":"m 858 332 q 817 144 858 222 q 699 24 775 65 q 524 -17 624 -17 q 268 75 358 -17 q 178 329 178 167 l 178 826 q 165 910 178 882 q 135 949 151 939 q 119 956 119 958 l 336 956 q 320 949 336 958 q 291 911 304 939 q 278 831 278 883 l 278 329 q 342 121 278 194 q 532 47 407 47 q 714 117 647 47 q 781 325 781 188 l 781 826 q 767 910 781 882 q 736 949 753 939 q 719 956 719 958 l 919 956 q 903 949 919 958 q 872 910 886 939 q 858 826 858 882 l 858 332 m 503 1192 l 667 1192 l 360 1017 l 503 1192 m 713 1192 l 876 1192 l 569 1017 l 713 1192 z "},"Ū":{"ha":989,"x_min":119,"x_max":919,"o":"m 858 332 q 817 144 858 222 q 699 24 775 65 q 524 -17 624 -17 q 268 75 358 -17 q 178 329 178 167 l 178 826 q 165 910 178 882 q 135 949 151 939 q 119 956 119 958 l 336 956 q 320 949 336 958 q 291 911 304 939 q 278 831 278 883 l 278 329 q 342 121 278 194 q 532 47 407 47 q 714 117 647 47 q 781 325 781 188 l 781 826 q 767 910 781 882 q 736 949 753 939 q 719 956 719 958 l 919 956 q 903 949 919 958 q 872 910 886 939 q 858 826 858 882 l 858 332 m 353 1132 l 692 1132 l 692 1068 l 353 1068 l 353 1132 z "},"Ų":{"ha":989,"x_min":121,"x_max":918,"o":"m 918 956 q 879 926 900 953 q 858 826 858 899 l 858 332 q 788 101 858 190 q 599 -10 718 11 q 534 -79 554 -49 q 514 -139 514 -110 q 531 -180 514 -164 q 576 -196 549 -196 q 664 -167 613 -196 q 609 -226 642 -206 q 542 -246 576 -246 q 472 -219 500 -246 q 443 -147 443 -193 q 521 -17 443 -78 q 267 76 357 -15 q 178 329 178 167 l 178 826 q 159 924 178 899 q 121 956 140 950 l 335 956 q 298 926 318 953 q 278 831 278 900 l 278 329 q 342 121 278 194 q 532 47 407 47 q 714 117 647 47 q 781 325 781 188 l 781 826 q 760 924 781 899 q 721 956 740 950 l 918 956 z "},"Ů":{"ha":989,"x_min":119,"x_max":919,"o":"m 858 332 q 817 144 858 222 q 699 24 775 65 q 524 -17 624 -17 q 268 75 358 -17 q 178 329 178 167 l 178 826 q 165 910 178 882 q 135 949 151 939 q 119 956 119 958 l 336 956 q 320 949 336 958 q 291 911 304 939 q 278 831 278 883 l 278 329 q 342 121 278 194 q 532 47 407 47 q 714 117 647 47 q 781 325 781 188 l 781 826 q 767 910 781 882 q 736 949 753 939 q 719 956 719 958 l 919 956 q 903 949 919 958 q 872 910 886 939 q 858 826 858 882 l 858 332 m 431 1110 q 459 1178 431 1150 q 526 1206 488 1206 q 594 1178 567 1206 q 622 1110 622 1150 q 594 1041 622 1069 q 526 1013 565 1013 q 459 1041 488 1013 q 431 1110 431 1069 m 585 1110 q 567 1149 585 1132 q 526 1165 550 1165 q 485 1149 503 1165 q 468 1110 468 1132 q 485 1070 468 1088 q 526 1053 503 1053 q 567 1070 550 1053 q 585 1110 585 1088 z "},"Ũ":{"ha":989,"x_min":119,"x_max":919,"o":"m 858 332 q 817 144 858 222 q 699 24 775 65 q 524 -17 624 -17 q 268 75 358 -17 q 178 329 178 167 l 178 826 q 165 910 178 882 q 135 949 151 939 q 119 956 119 958 l 336 956 q 320 949 336 958 q 291 911 304 939 q 278 831 278 883 l 278 329 q 342 121 278 194 q 532 47 407 47 q 714 117 647 47 q 781 325 781 188 l 781 826 q 767 910 781 882 q 736 949 753 939 q 719 956 719 958 l 919 956 q 903 949 919 958 q 872 910 886 939 q 858 826 858 882 l 858 332 m 364 1079 q 390 1142 364 1119 q 456 1165 415 1165 q 554 1140 496 1165 q 622 1122 599 1122 q 669 1183 669 1122 q 668 1207 669 1199 q 694 1140 694 1183 q 669 1077 694 1100 q 603 1054 643 1054 q 504 1079 563 1054 q 436 1097 460 1097 q 389 1036 389 1097 q 390 1013 389 1021 q 364 1079 364 1036 z "},"V":{"ha":872,"x_min":-18,"x_max":913,"o":"m 742 882 q 726 930 742 910 q 679 956 711 950 l 913 956 q 864 924 894 953 q 800 815 833 894 l 449 -33 l 92 819 q 31 922 61 893 q -18 956 1 950 l 214 956 q 176 907 176 946 q 186 863 176 886 q 197 835 196 839 l 467 175 l 728 817 q 742 882 742 849 z "},"W":{"ha":1333,"x_min":8,"x_max":1346,"o":"m 1164 817 q 1181 894 1181 867 q 1131 956 1181 951 l 1346 956 q 1292 924 1325 951 q 1232 815 1260 896 l 932 -33 l 664 736 l 388 -33 l 114 819 q 8 956 78 936 l 239 956 q 200 910 200 949 q 217 840 200 890 l 232 792 l 407 213 l 689 982 l 957 218 l 1164 817 z "},"Ẃ":{"ha":1333,"x_min":8,"x_max":1346,"o":"m 1164 817 q 1181 894 1181 867 q 1131 956 1181 951 l 1346 956 q 1292 924 1325 951 q 1232 815 1260 896 l 932 -33 l 664 736 l 388 -33 l 114 819 q 8 956 78 936 l 239 956 q 200 910 200 949 q 217 840 200 890 l 232 792 l 407 213 l 689 982 l 957 218 l 1164 817 m 785 1192 l 949 1192 l 642 1017 l 785 1192 z "},"Ŵ":{"ha":1333,"x_min":8,"x_max":1346,"o":"m 1164 817 q 1181 894 1181 867 q 1131 956 1181 951 l 1346 956 q 1292 924 1325 951 q 1232 815 1260 896 l 932 -33 l 664 736 l 388 -33 l 114 819 q 8 956 78 936 l 239 956 q 200 910 200 949 q 217 840 200 890 l 232 792 l 407 213 l 689 982 l 957 218 l 1164 817 m 688 1206 l 869 1017 l 688 1099 l 506 1017 l 688 1206 z "},"Ẅ":{"ha":1333,"x_min":8,"x_max":1346,"o":"m 1164 817 q 1181 894 1181 867 q 1131 956 1181 951 l 1346 956 q 1292 924 1325 951 q 1232 815 1260 896 l 932 -33 l 664 736 l 388 -33 l 114 819 q 8 956 78 936 l 239 956 q 200 910 200 949 q 217 840 200 890 l 232 792 l 407 213 l 689 982 l 957 218 l 1164 817 m 528 1029 q 488 1046 503 1029 q 474 1085 474 1063 q 488 1124 474 1107 q 528 1140 503 1140 q 567 1124 553 1140 q 582 1085 582 1107 q 567 1046 582 1063 q 528 1029 553 1029 m 844 1029 q 805 1046 819 1029 q 790 1085 790 1063 q 805 1124 790 1107 q 844 1140 819 1140 q 884 1124 869 1140 q 899 1085 899 1107 q 884 1046 899 1063 q 844 1029 869 1029 z "},"Ẁ":{"ha":1333,"x_min":8,"x_max":1346,"o":"m 1164 817 q 1181 894 1181 867 q 1131 956 1181 951 l 1346 956 q 1292 924 1325 951 q 1232 815 1260 896 l 932 -33 l 664 736 l 388 -33 l 114 819 q 8 956 78 936 l 239 956 q 200 910 200 949 q 217 840 200 890 l 232 792 l 407 213 l 689 982 l 957 218 l 1164 817 m 597 1192 l 740 1017 l 433 1192 l 597 1192 z "},"X":{"ha":994,"x_min":72,"x_max":944,"o":"m 713 0 q 738 25 738 4 q 717 81 738 50 q 693 117 696 113 l 499 417 l 281 125 q 248 76 260 97 q 236 36 236 54 q 281 0 236 6 l 72 0 q 89 7 72 -3 q 137 47 106 17 q 213 136 168 76 l 465 471 l 242 817 q 172 907 203 876 q 122 948 142 938 q 103 956 103 958 l 335 956 q 308 929 308 950 q 339 861 308 908 l 532 561 l 733 828 q 776 919 776 885 q 735 956 776 951 l 942 956 q 924 949 942 957 q 880 917 907 942 q 818 846 853 893 l 565 508 l 789 161 q 868 56 833 92 q 924 9 903 21 q 944 0 944 -3 l 713 0 z "},"Y":{"ha":778,"x_min":-8,"x_max":808,"o":"m 808 956 q 764 925 794 953 q 690 822 733 897 l 450 410 l 450 129 q 469 31 450 58 q 506 0 489 3 l 294 0 q 331 30 311 3 q 350 129 350 57 l 350 411 l 113 824 q 40 923 71 896 q -8 956 10 950 l 225 956 q 190 911 190 949 q 199 881 190 899 q 225 832 207 864 l 426 478 l 628 826 q 651 906 651 865 q 635 942 651 932 q 604 956 619 953 l 808 956 z "},"Ý":{"ha":778,"x_min":-8,"x_max":808,"o":"m 808 956 q 764 925 794 953 q 690 822 733 897 l 450 410 l 450 129 q 469 31 450 58 q 506 0 489 3 l 294 0 q 331 30 311 3 q 350 129 350 57 l 350 411 l 113 824 q 40 923 71 896 q -8 956 10 950 l 225 956 q 190 911 190 949 q 199 881 190 899 q 225 832 207 864 l 426 478 l 628 826 q 651 906 651 865 q 635 942 651 932 q 604 956 619 953 l 808 956 m 440 1192 l 604 1192 l 297 1017 l 440 1192 z "},"Ŷ":{"ha":778,"x_min":-8,"x_max":808,"o":"m 808 956 q 764 925 794 953 q 690 822 733 897 l 450 410 l 450 129 q 469 31 450 58 q 506 0 489 3 l 294 0 q 331 30 311 3 q 350 129 350 57 l 350 411 l 113 824 q 40 923 71 896 q -8 956 10 950 l 225 956 q 190 911 190 949 q 199 881 190 899 q 225 832 207 864 l 426 478 l 628 826 q 651 906 651 865 q 635 942 651 932 q 604 956 619 953 l 808 956 m 414 1204 l 596 1015 l 414 1097 l 232 1015 l 414 1204 z "},"Ÿ":{"ha":778,"x_min":-8,"x_max":808,"o":"m 808 956 q 764 925 794 953 q 690 822 733 897 l 450 410 l 450 129 q 469 31 450 58 q 506 0 489 3 l 294 0 q 331 30 311 3 q 350 129 350 57 l 350 411 l 113 824 q 40 923 71 896 q -8 956 10 950 l 225 956 q 190 911 190 949 q 199 881 190 899 q 225 832 207 864 l 426 478 l 628 826 q 651 906 651 865 q 635 942 651 932 q 604 956 619 953 l 808 956 m 253 1029 q 213 1046 228 1029 q 199 1085 199 1063 q 213 1124 199 1107 q 253 1140 228 1140 q 292 1124 278 1140 q 307 1085 307 1107 q 292 1046 307 1063 q 253 1029 278 1029 m 569 1029 q 530 1046 544 1029 q 515 1085 515 1063 q 530 1124 515 1107 q 569 1140 544 1140 q 609 1124 594 1140 q 624 1085 624 1107 q 609 1046 624 1063 q 569 1029 594 1029 z "},"Z":{"ha":906,"x_min":81,"x_max":839,"o":"m 261 900 q 111 817 136 900 l 111 956 l 817 956 l 239 56 l 667 56 q 774 81 729 56 q 839 147 819 107 l 814 0 l 81 0 l 660 900 l 261 900 z "},"Ź":{"ha":906,"x_min":81,"x_max":839,"o":"m 261 900 q 111 817 136 900 l 111 956 l 817 956 l 239 56 l 667 56 q 774 81 729 56 q 839 147 819 107 l 814 0 l 81 0 l 660 900 l 261 900 m 510 1192 l 674 1192 l 367 1017 l 510 1192 z "},"Ž":{"ha":906,"x_min":81,"x_max":839,"o":"m 261 900 q 111 817 136 900 l 111 956 l 817 956 l 239 56 l 667 56 q 774 81 729 56 q 839 147 819 107 l 814 0 l 81 0 l 660 900 l 261 900 m 624 1206 l 442 1017 l 260 1206 l 442 1124 l 624 1206 z "},"Ż":{"ha":906,"x_min":81,"x_max":839,"o":"m 261 900 q 111 817 136 900 l 111 956 l 817 956 l 239 56 l 667 56 q 774 81 729 56 q 839 147 819 107 l 814 0 l 81 0 l 660 900 l 261 900 m 463 1046 q 415 1066 432 1046 q 397 1113 397 1086 q 415 1159 397 1139 q 463 1179 432 1179 q 510 1159 493 1179 q 528 1113 528 1139 q 510 1066 528 1086 q 463 1046 493 1046 z "},"a":{"ha":556,"x_min":67,"x_max":556,"o":"m 474 -17 q 399 7 429 -15 q 364 58 368 29 q 298 3 339 22 q 217 -17 257 -17 q 110 20 153 -17 q 67 117 67 57 q 356 271 67 271 l 356 286 q 333 399 356 363 q 233 450 303 450 q 144 418 179 450 q 108 335 108 386 q 95 360 100 349 q 90 390 90 371 q 138 478 90 440 q 261 517 185 517 q 415 444 369 517 q 438 389 431 422 q 444 301 444 356 l 444 136 q 469 69 444 93 q 538 46 493 46 l 556 46 l 474 -17 m 356 229 q 206 201 244 229 q 167 126 167 174 q 188 65 167 88 q 243 43 208 43 q 293 56 269 43 q 333 90 317 68 q 356 169 356 119 l 356 229 z "},"á":{"ha":556,"x_min":67,"x_max":556,"o":"m 474 -17 q 399 7 429 -15 q 364 58 368 29 q 298 3 339 22 q 217 -17 257 -17 q 110 20 153 -17 q 67 117 67 57 q 356 271 67 271 l 356 286 q 333 399 356 363 q 233 450 303 450 q 144 418 179 450 q 108 335 108 386 q 95 360 100 349 q 90 390 90 371 q 138 478 90 440 q 261 517 185 517 q 415 444 369 517 q 438 389 431 422 q 444 301 444 356 l 444 136 q 469 69 444 93 q 538 46 493 46 l 556 46 l 474 -17 m 356 229 q 206 201 244 229 q 167 126 167 174 q 188 65 167 88 q 243 43 208 43 q 293 56 269 43 q 333 90 317 68 q 356 169 356 119 l 356 229 m 297 885 l 421 885 l 196 621 l 297 885 z "},"ă":{"ha":556,"x_min":67,"x_max":556,"o":"m 474 -17 q 399 7 429 -15 q 364 58 368 29 q 298 3 339 22 q 217 -17 257 -17 q 110 20 153 -17 q 67 117 67 57 q 356 271 67 271 l 356 286 q 333 399 356 363 q 233 450 303 450 q 144 418 179 450 q 108 335 108 386 q 95 360 100 349 q 90 390 90 371 q 138 478 90 440 q 261 517 185 517 q 415 444 369 517 q 438 389 431 422 q 444 301 444 356 l 444 136 q 469 69 444 93 q 538 46 493 46 l 556 46 l 474 -17 m 356 229 q 206 201 244 229 q 167 126 167 174 q 188 65 167 88 q 243 43 208 43 q 293 56 269 43 q 333 90 317 68 q 356 169 356 119 l 356 229 m 165 785 q 171 826 165 803 q 186 861 176 849 q 181 831 181 844 q 210 772 181 796 q 279 747 240 747 q 348 772 318 747 q 378 831 378 796 q 372 861 378 844 q 388 826 382 849 q 393 785 393 803 q 361 704 393 740 q 279 668 329 668 q 197 704 229 668 q 165 785 165 740 z "},"â":{"ha":556,"x_min":67,"x_max":556,"o":"m 474 -17 q 399 7 429 -15 q 364 58 368 29 q 298 3 339 22 q 217 -17 257 -17 q 110 20 153 -17 q 67 117 67 57 q 356 271 67 271 l 356 286 q 333 399 356 363 q 233 450 303 450 q 144 418 179 450 q 108 335 108 386 q 95 360 100 349 q 90 390 90 371 q 138 478 90 440 q 261 517 185 517 q 415 444 369 517 q 438 389 431 422 q 444 301 444 356 l 444 136 q 469 69 444 93 q 538 46 493 46 l 556 46 l 474 -17 m 356 229 q 206 201 244 229 q 167 126 167 174 q 188 65 167 88 q 243 43 208 43 q 293 56 269 43 q 333 90 317 68 q 356 169 356 119 l 356 229 m 276 899 l 431 635 l 276 768 l 122 635 l 276 899 z "},"ä":{"ha":556,"x_min":67,"x_max":556,"o":"m 474 -17 q 399 7 429 -15 q 364 58 368 29 q 298 3 339 22 q 217 -17 257 -17 q 110 20 153 -17 q 67 117 67 57 q 356 271 67 271 l 356 286 q 333 399 356 363 q 233 450 303 450 q 144 418 179 450 q 108 335 108 386 q 95 360 100 349 q 90 390 90 371 q 138 478 90 440 q 261 517 185 517 q 415 444 369 517 q 438 389 431 422 q 444 301 444 356 l 444 136 q 469 69 444 93 q 538 46 493 46 l 556 46 l 474 -17 m 356 229 q 206 201 244 229 q 167 126 167 174 q 188 65 167 88 q 243 43 208 43 q 293 56 269 43 q 333 90 317 68 q 356 169 356 119 l 356 229 m 168 678 q 128 694 143 678 q 114 733 114 711 q 128 772 114 756 q 168 789 143 789 q 208 772 193 789 q 222 733 222 756 q 208 694 222 711 q 168 678 193 678 m 385 678 q 345 694 360 678 q 331 733 331 711 q 345 772 331 756 q 385 789 360 789 q 424 772 410 789 q 439 733 439 756 q 424 694 439 711 q 385 678 410 678 z "},"à":{"ha":556,"x_min":67,"x_max":556,"o":"m 474 -17 q 399 7 429 -15 q 364 58 368 29 q 298 3 339 22 q 217 -17 257 -17 q 110 20 153 -17 q 67 117 67 57 q 356 271 67 271 l 356 286 q 333 399 356 363 q 233 450 303 450 q 144 418 179 450 q 108 335 108 386 q 95 360 100 349 q 90 390 90 371 q 138 478 90 440 q 261 517 185 517 q 415 444 369 517 q 438 389 431 422 q 444 301 444 356 l 444 136 q 469 69 444 93 q 538 46 493 46 l 556 46 l 474 -17 m 356 229 q 206 201 244 229 q 167 126 167 174 q 188 65 167 88 q 243 43 208 43 q 293 56 269 43 q 333 90 317 68 q 356 169 356 119 l 356 229 m 260 885 l 361 621 l 136 885 l 260 885 z "},"ā":{"ha":556,"x_min":67,"x_max":556,"o":"m 474 -17 q 399 7 429 -15 q 364 58 368 29 q 298 3 339 22 q 217 -17 257 -17 q 110 20 153 -17 q 67 117 67 57 q 356 271 67 271 l 356 286 q 333 399 356 363 q 233 450 303 450 q 144 418 179 450 q 108 335 108 386 q 95 360 100 349 q 90 390 90 371 q 138 478 90 440 q 261 517 185 517 q 415 444 369 517 q 438 389 431 422 q 444 301 444 356 l 444 136 q 469 69 444 93 q 538 46 493 46 l 556 46 l 474 -17 m 356 229 q 206 201 244 229 q 167 126 167 174 q 188 65 167 88 q 243 43 208 43 q 293 56 269 43 q 333 90 317 68 q 356 169 356 119 l 356 229 m 108 778 l 447 778 l 447 714 l 108 714 l 108 778 z "},"ą":{"ha":556,"x_min":67,"x_max":556,"o":"m 403 -136 q 421 -180 403 -164 q 469 -196 439 -196 q 556 -167 511 -196 q 500 -226 533 -206 q 431 -246 467 -246 q 360 -219 389 -246 q 332 -147 332 -193 q 358 -69 332 -106 q 424 -6 383 -33 q 382 22 397 4 q 364 58 367 39 q 298 3 339 22 q 217 -17 257 -17 q 111 20 156 -17 q 67 117 67 57 q 356 271 67 271 q 352 344 356 317 q 336 393 349 371 q 294 435 322 421 q 232 450 265 450 q 144 417 176 450 q 108 339 111 385 q 97 363 103 346 q 92 394 92 381 q 112 453 92 425 q 171 499 132 481 q 265 517 210 517 q 396 469 347 517 q 444 338 444 422 l 444 136 q 469 69 444 93 q 538 46 493 46 l 556 46 q 403 -136 403 -53 m 356 229 q 206 201 244 229 q 167 125 167 172 q 188 65 167 88 q 244 43 208 43 q 322 75 288 43 q 356 161 356 107 l 356 229 z "},"å":{"ha":556,"x_min":67,"x_max":556,"o":"m 474 -17 q 399 7 429 -15 q 364 58 368 29 q 298 3 339 22 q 217 -17 257 -17 q 110 20 153 -17 q 67 117 67 57 q 356 271 67 271 l 356 286 q 333 399 356 363 q 233 450 303 450 q 144 418 179 450 q 108 335 108 386 q 95 360 100 349 q 90 390 90 371 q 138 478 90 440 q 261 517 185 517 q 415 444 369 517 q 438 389 431 422 q 444 301 444 356 l 444 136 q 469 69 444 93 q 538 46 493 46 l 556 46 l 474 -17 m 356 229 q 206 201 244 229 q 167 126 167 174 q 188 65 167 88 q 243 43 208 43 q 293 56 269 43 q 333 90 317 68 q 356 169 356 119 l 356 229 m 171 733 q 199 801 171 774 q 267 829 228 829 q 335 801 307 829 q 363 733 363 774 q 334 665 363 693 q 267 636 306 636 q 199 665 228 636 q 171 733 171 693 m 325 733 q 308 772 325 756 q 267 789 290 789 q 226 772 243 789 q 208 733 208 756 q 226 694 208 711 q 267 676 243 676 q 308 694 290 676 q 325 733 325 711 z "},"ã":{"ha":556,"x_min":67,"x_max":556,"o":"m 474 -17 q 399 7 429 -15 q 364 58 368 29 q 298 3 339 22 q 217 -17 257 -17 q 110 20 153 -17 q 67 117 67 57 q 356 271 67 271 l 356 286 q 333 399 356 363 q 233 450 303 450 q 144 418 179 450 q 108 335 108 386 q 95 360 100 349 q 90 390 90 371 q 138 478 90 440 q 261 517 185 517 q 415 444 369 517 q 438 389 431 422 q 444 301 444 356 l 444 136 q 469 69 444 93 q 538 46 493 46 l 556 46 l 474 -17 m 356 229 q 206 201 244 229 q 167 126 167 174 q 188 65 167 88 q 243 43 208 43 q 293 56 269 43 q 333 90 317 68 q 356 169 356 119 l 356 229 m 106 715 q 131 778 106 756 q 197 801 157 801 q 296 776 238 801 q 364 758 340 758 q 411 819 411 758 q 410 843 411 835 q 436 776 436 819 q 410 713 436 736 q 344 690 385 690 q 246 715 304 690 q 178 733 201 733 q 131 672 131 733 q 132 649 131 657 q 106 715 106 672 z "},"æ":{"ha":833,"x_min":67,"x_max":778,"o":"m 443 253 q 506 115 453 164 q 626 65 558 65 q 710 87 669 65 q 778 150 750 108 q 711 26 763 68 q 593 -17 660 -17 q 477 15 533 -17 q 392 103 421 47 q 332 17 376 50 q 222 -17 288 -17 q 108 21 150 -17 q 67 115 67 58 q 94 196 67 161 q 199 251 122 231 q 357 283 265 268 q 239 449 357 449 q 141 415 174 449 q 108 333 108 381 q 98 356 103 340 q 93 386 93 372 q 138 481 93 444 q 256 517 183 517 q 360 490 318 517 q 419 419 403 463 q 488 492 444 468 q 581 517 531 517 q 715 460 658 517 q 776 299 771 404 q 443 253 599 276 m 671 329 q 640 433 669 397 q 565 469 611 469 q 479 424 515 469 q 442 297 443 378 l 671 329 m 357 240 q 228 213 264 225 q 161 119 161 190 q 183 64 161 85 q 240 43 204 43 q 314 68 286 43 q 347 115 336 88 q 357 192 357 143 l 357 240 z "},"b":{"ha":644,"x_min":42,"x_max":589,"o":"m 111 854 q 92 934 111 913 q 50 956 74 956 l 42 956 l 200 1028 l 200 426 q 260 485 217 454 q 375 517 304 517 q 485 486 436 517 q 561 401 533 456 q 589 281 589 347 q 554 131 589 196 q 464 26 519 65 q 322 -17 401 -17 q 204 7 267 -17 q 160 18 175 18 q 111 -10 136 18 l 111 854 m 200 169 q 210 97 200 125 q 243 56 219 69 q 332 33 278 33 q 444 90 399 33 q 489 239 489 146 q 448 391 489 326 q 329 456 407 456 q 269 440 300 456 q 219 396 239 424 q 200 333 200 368 l 200 169 z "},"c":{"ha":556,"x_min":56,"x_max":511,"o":"m 301 -17 q 170 19 226 -17 q 85 115 114 56 q 56 242 56 175 q 85 374 56 311 q 172 477 115 438 q 307 517 229 517 q 442 476 400 517 q 500 392 483 436 l 408 347 q 367 432 400 397 q 288 467 335 467 q 182 414 219 467 q 144 285 144 361 q 169 180 144 231 q 238 97 193 129 q 344 65 283 65 q 440 88 394 65 q 511 150 485 111 q 439 28 496 72 q 301 -17 382 -17 z "},"ć":{"ha":556,"x_min":56,"x_max":511,"o":"m 301 -17 q 170 19 226 -17 q 85 115 114 56 q 56 242 56 175 q 85 374 56 311 q 172 477 115 438 q 307 517 229 517 q 442 476 400 517 q 500 392 483 436 l 408 347 q 367 432 400 397 q 288 467 335 467 q 182 414 219 467 q 144 285 144 361 q 169 180 144 231 q 238 97 193 129 q 344 65 283 65 q 440 88 394 65 q 511 150 485 111 q 439 28 496 72 q 301 -17 382 -17 m 354 885 l 478 885 l 253 621 l 354 885 z "},"č":{"ha":556,"x_min":56,"x_max":511,"o":"m 301 -17 q 170 19 226 -17 q 85 115 114 56 q 56 242 56 175 q 85 374 56 311 q 172 477 115 438 q 307 517 229 517 q 442 476 400 517 q 500 392 483 436 l 408 347 q 367 432 400 397 q 288 467 335 467 q 182 414 219 467 q 144 285 144 361 q 169 180 144 231 q 238 97 193 129 q 344 65 283 65 q 440 88 394 65 q 511 150 485 111 q 439 28 496 72 q 301 -17 382 -17 m 447 899 l 293 635 l 139 899 l 293 765 l 447 899 z "},"ç":{"ha":556,"x_min":56,"x_max":511,"o":"m 372 -164 q 344 -227 372 -200 q 264 -254 315 -254 q 203 -240 232 -254 q 160 -196 175 -225 q 233 -211 203 -211 q 278 -195 263 -211 q 294 -157 294 -179 q 279 -120 294 -136 q 235 -104 264 -104 l 222 -104 l 261 -14 q 111 74 167 0 q 56 242 56 147 q 85 374 56 311 q 172 477 115 438 q 307 517 229 517 q 442 476 400 517 q 500 392 483 436 l 408 347 q 367 432 400 397 q 288 467 335 467 q 182 414 219 467 q 144 285 144 361 q 169 180 144 231 q 238 97 193 129 q 344 65 283 65 q 440 88 394 65 q 511 150 485 111 q 442 30 496 74 q 311 -17 389 -14 l 283 -78 q 349 -108 326 -83 q 372 -164 372 -132 z "},"ĉ":{"ha":556,"x_min":56,"x_max":511,"o":"m 301 -17 q 170 19 226 -17 q 85 115 114 56 q 56 242 56 175 q 85 374 56 311 q 172 477 115 438 q 307 517 229 517 q 442 476 400 517 q 500 392 483 436 l 408 347 q 367 432 400 397 q 288 467 335 467 q 182 414 219 467 q 144 285 144 361 q 169 180 144 231 q 238 97 193 129 q 344 65 283 65 q 440 88 394 65 q 511 150 485 111 q 439 28 496 72 q 301 -17 382 -17 m 290 899 l 444 635 l 290 768 l 136 635 l 290 899 z "},"ċ":{"ha":556,"x_min":56,"x_max":511,"o":"m 301 -17 q 170 19 226 -17 q 85 115 114 56 q 56 242 56 175 q 85 374 56 311 q 172 477 115 438 q 307 517 229 517 q 442 476 400 517 q 500 392 483 436 l 408 347 q 367 432 400 397 q 288 467 335 467 q 182 414 219 467 q 144 285 144 361 q 169 180 144 231 q 238 97 193 129 q 344 65 283 65 q 440 88 394 65 q 511 150 485 111 q 439 28 496 72 q 301 -17 382 -17 m 289 685 q 241 705 258 685 q 224 751 224 725 q 241 798 224 778 q 289 818 258 818 q 337 798 319 818 q 354 751 354 778 q 337 705 354 725 q 289 685 319 685 z "},"d":{"ha":644,"x_min":56,"x_max":603,"o":"m 444 854 q 426 934 444 913 q 383 956 407 956 l 375 956 l 533 1028 l 533 157 q 552 77 533 99 q 594 56 571 56 l 603 56 l 444 -17 l 444 74 q 384 15 428 46 q 269 -17 340 -17 q 160 14 208 -17 q 83 99 111 44 q 56 219 56 153 q 90 369 56 304 q 181 474 125 435 q 317 517 243 517 q 397 503 365 517 q 444 479 429 490 l 444 854 m 156 261 q 197 109 156 174 q 315 44 238 44 q 375 60 344 44 q 425 104 406 76 q 444 167 444 132 l 444 331 q 434 403 444 375 q 401 444 424 431 q 317 467 367 467 q 201 410 247 467 q 156 261 156 354 z "},"ð":{"ha":644,"x_min":56,"x_max":581,"o":"m 313 -15 q 180 19 239 -15 q 88 110 121 53 q 56 238 56 168 q 90 376 56 313 q 185 476 124 439 q 324 513 246 513 q 407 488 365 513 q 474 415 449 463 l 481 419 q 401 660 465 542 q 263 846 336 779 l 168 799 l 147 838 l 225 876 q 111 951 167 922 l 244 974 q 315 926 283 957 l 415 976 l 438 935 l 347 893 q 517 649 454 794 q 581 344 581 504 q 508 78 581 171 q 313 -15 436 -15 m 307 463 q 194 409 233 463 q 156 278 156 356 q 177 163 156 219 q 239 69 199 106 q 332 33 279 33 q 439 94 401 33 q 476 235 476 154 q 431 394 476 326 q 307 463 386 463 z "},"ď":{"ha":644,"x_min":56,"x_max":761,"o":"m 444 854 q 426 934 444 913 q 383 956 407 956 l 375 956 l 533 1028 l 533 157 q 552 77 533 99 q 594 56 571 56 l 603 56 l 444 -17 l 444 74 q 384 15 428 46 q 269 -17 340 -17 q 160 14 208 -17 q 83 99 111 44 q 56 219 56 153 q 90 369 56 304 q 181 474 125 435 q 317 517 243 517 q 397 503 365 517 q 444 479 429 490 l 444 854 m 156 261 q 197 109 156 174 q 315 44 238 44 q 375 60 344 44 q 425 104 406 76 q 444 167 444 132 l 444 331 q 434 403 444 375 q 401 444 424 431 q 317 467 367 467 q 201 410 247 467 q 156 261 156 354 m 665 972 l 761 972 l 621 713 l 665 972 z "},"đ":{"ha":644,"x_min":56,"x_max":618,"o":"m 533 157 q 552 77 533 99 q 594 56 571 56 l 603 56 l 444 -17 l 444 74 q 384 15 428 46 q 269 -17 340 -17 q 160 14 208 -17 q 83 99 111 44 q 56 219 56 153 q 90 369 56 304 q 181 474 125 435 q 317 517 243 517 q 397 503 365 517 q 444 479 429 490 l 444 796 l 279 796 l 279 860 l 444 860 q 424 935 443 914 q 383 956 406 956 l 375 956 l 533 1028 l 533 860 l 618 860 l 618 796 l 533 796 l 533 157 m 156 261 q 197 109 156 174 q 315 44 238 44 q 375 60 344 44 q 425 104 406 76 q 444 167 444 132 l 444 331 q 434 403 444 375 q 401 444 424 431 q 317 467 367 467 q 201 410 247 467 q 156 261 156 354 z "},"e":{"ha":556,"x_min":56,"x_max":500,"o":"m 296 -17 q 167 20 221 -17 q 84 116 113 57 q 56 242 56 175 q 90 390 56 328 q 178 485 124 453 q 290 517 232 517 q 434 456 374 517 q 500 289 494 396 l 139 289 q 164 172 139 222 q 231 94 189 121 q 324 67 274 67 q 500 150 454 67 q 432 29 488 75 q 296 -17 376 -17 m 281 471 q 188 433 226 471 q 140 333 149 394 l 393 333 q 359 434 393 397 q 281 471 325 471 z "},"é":{"ha":556,"x_min":56,"x_max":500,"o":"m 296 -17 q 167 20 221 -17 q 84 116 113 57 q 56 242 56 175 q 90 390 56 328 q 178 485 124 453 q 290 517 232 517 q 434 456 374 517 q 500 289 494 396 l 139 289 q 164 172 139 222 q 231 94 189 121 q 324 67 274 67 q 500 150 454 67 q 432 29 488 75 q 296 -17 376 -17 m 281 471 q 188 433 226 471 q 140 333 149 394 l 393 333 q 359 434 393 397 q 281 471 325 471 m 339 885 l 463 885 l 238 621 l 339 885 z "},"ĕ":{"ha":556,"x_min":56,"x_max":500,"o":"m 296 -17 q 167 20 221 -17 q 84 116 113 57 q 56 242 56 175 q 90 390 56 328 q 178 485 124 453 q 290 517 232 517 q 434 456 374 517 q 500 289 494 396 l 139 289 q 164 172 139 222 q 231 94 189 121 q 324 67 274 67 q 500 150 454 67 q 432 29 488 75 q 296 -17 376 -17 m 281 471 q 188 433 226 471 q 140 333 149 394 l 393 333 q 359 434 393 397 q 281 471 325 471 m 165 785 q 171 826 165 803 q 186 861 176 849 q 181 831 181 844 q 210 772 181 796 q 279 747 240 747 q 348 772 318 747 q 378 831 378 796 q 372 861 378 844 q 388 826 382 849 q 393 785 393 803 q 361 704 393 740 q 279 668 329 668 q 197 704 229 668 q 165 785 165 740 z "},"ě":{"ha":556,"x_min":56,"x_max":500,"o":"m 296 -17 q 167 20 221 -17 q 84 116 113 57 q 56 242 56 175 q 90 390 56 328 q 178 485 124 453 q 290 517 232 517 q 434 456 374 517 q 500 289 494 396 l 139 289 q 164 172 139 222 q 231 94 189 121 q 324 67 274 67 q 500 150 454 67 q 432 29 488 75 q 296 -17 376 -17 m 281 471 q 188 433 226 471 q 140 333 149 394 l 393 333 q 359 434 393 397 q 281 471 325 471 m 439 899 l 285 635 l 131 899 l 285 765 l 439 899 z "},"ê":{"ha":556,"x_min":56,"x_max":500,"o":"m 296 -17 q 167 20 221 -17 q 84 116 113 57 q 56 242 56 175 q 90 390 56 328 q 178 485 124 453 q 290 517 232 517 q 434 456 374 517 q 500 289 494 396 l 139 289 q 164 172 139 222 q 231 94 189 121 q 324 67 274 67 q 500 150 454 67 q 432 29 488 75 q 296 -17 376 -17 m 281 471 q 188 433 226 471 q 140 333 149 394 l 393 333 q 359 434 393 397 q 281 471 325 471 m 276 899 l 431 635 l 276 768 l 122 635 l 276 899 z "},"ë":{"ha":556,"x_min":56,"x_max":500,"o":"m 296 -17 q 167 20 221 -17 q 84 116 113 57 q 56 242 56 175 q 90 390 56 328 q 178 485 124 453 q 290 517 232 517 q 434 456 374 517 q 500 289 494 396 l 139 289 q 164 172 139 222 q 231 94 189 121 q 324 67 274 67 q 500 150 454 67 q 432 29 488 75 q 296 -17 376 -17 m 281 471 q 188 433 226 471 q 140 333 149 394 l 393 333 q 359 434 393 397 q 281 471 325 471 m 168 678 q 128 694 143 678 q 114 733 114 711 q 128 772 114 756 q 168 789 143 789 q 208 772 193 789 q 222 733 222 756 q 208 694 222 711 q 168 678 193 678 m 385 678 q 345 694 360 678 q 331 733 331 711 q 345 772 331 756 q 385 789 360 789 q 424 772 410 789 q 439 733 439 756 q 424 694 439 711 q 385 678 410 678 z "},"ė":{"ha":556,"x_min":56,"x_max":500,"o":"m 296 -17 q 167 20 221 -17 q 84 116 113 57 q 56 242 56 175 q 90 390 56 328 q 178 485 124 453 q 290 517 232 517 q 434 456 374 517 q 500 289 494 396 l 139 289 q 164 172 139 222 q 231 94 189 121 q 324 67 274 67 q 500 150 454 67 q 432 29 488 75 q 296 -17 376 -17 m 281 471 q 188 433 226 471 q 140 333 149 394 l 393 333 q 359 434 393 397 q 281 471 325 471 m 275 685 q 227 705 244 685 q 210 751 210 725 q 227 798 210 778 q 275 818 244 818 q 323 798 306 818 q 340 751 340 778 q 323 705 340 725 q 275 685 306 685 z "},"è":{"ha":556,"x_min":56,"x_max":500,"o":"m 296 -17 q 167 20 221 -17 q 84 116 113 57 q 56 242 56 175 q 90 390 56 328 q 178 485 124 453 q 290 517 232 517 q 434 456 374 517 q 500 289 494 396 l 139 289 q 164 172 139 222 q 231 94 189 121 q 324 67 274 67 q 500 150 454 67 q 432 29 488 75 q 296 -17 376 -17 m 281 471 q 188 433 226 471 q 140 333 149 394 l 393 333 q 359 434 393 397 q 281 471 325 471 m 246 885 l 347 621 l 122 885 l 246 885 z "},"ē":{"ha":556,"x_min":56,"x_max":500,"o":"m 296 -17 q 167 20 221 -17 q 84 116 113 57 q 56 242 56 175 q 90 390 56 328 q 178 485 124 453 q 290 517 232 517 q 434 456 374 517 q 500 289 494 396 l 139 289 q 164 172 139 222 q 231 94 189 121 q 324 67 274 67 q 500 150 454 67 q 432 29 488 75 q 296 -17 376 -17 m 281 471 q 188 433 226 471 q 140 333 149 394 l 393 333 q 359 434 393 397 q 281 471 325 471 m 108 778 l 447 778 l 447 714 l 108 714 l 108 778 z "},"ę":{"ha":556,"x_min":56,"x_max":500,"o":"m 386 -17 q 326 -82 346 -54 q 306 -139 306 -110 q 323 -180 306 -164 q 368 -196 340 -196 q 456 -167 404 -196 q 401 -226 433 -206 q 333 -246 368 -246 q 263 -219 292 -246 q 235 -147 235 -193 q 325 -14 235 -78 q 296 -17 306 -17 q 167 20 221 -17 q 84 116 113 57 q 56 242 56 175 q 90 390 56 328 q 178 485 124 453 q 290 517 232 517 q 434 456 374 517 q 500 289 494 396 l 139 289 q 164 172 139 222 q 231 94 189 121 q 324 67 274 67 q 500 150 454 67 q 474 81 493 114 q 408 4 456 49 l 386 -17 m 281 471 q 188 434 226 471 q 140 336 149 397 l 393 336 q 359 435 393 400 q 281 471 325 471 z "},"f":{"ha":356,"x_min":33,"x_max":465,"o":"m 465 907 q 405 947 440 932 q 333 961 369 961 q 232 912 264 961 q 200 785 200 863 l 200 506 l 344 506 l 344 450 l 200 450 l 200 139 q 213 48 200 79 q 240 6 225 17 q 256 0 256 -4 l 54 0 q 70 6 54 -4 q 99 48 86 17 q 111 139 111 79 l 111 450 l 33 450 l 33 506 l 111 506 l 111 699 q 144 870 111 796 q 235 986 176 944 q 371 1028 294 1028 q 465 1015 431 1028 l 465 907 z "},"g":{"ha":578,"x_min":44,"x_max":554,"o":"m 554 506 l 554 450 l 439 450 q 489 325 489 389 q 463 224 489 271 q 387 150 436 178 q 272 122 338 122 q 206 128 239 122 q 156 65 156 100 q 163 39 156 51 q 183 21 169 26 q 233 9 203 13 q 297 4 264 6 q 344 3 331 3 q 499 -39 453 -1 q 544 -129 544 -76 q 509 -231 544 -185 q 407 -305 474 -278 q 253 -332 340 -332 q 142 -314 189 -332 q 69 -267 94 -296 q 44 -204 44 -237 q 83 -122 44 -160 q 178 -64 121 -83 q 105 -33 132 -61 q 78 26 78 -6 q 101 87 78 61 q 169 142 125 113 q 93 211 119 164 q 67 311 67 258 q 92 410 67 363 q 169 487 118 457 q 289 517 219 517 q 364 506 325 517 l 554 506 m 274 467 q 189 430 222 467 q 156 336 156 393 q 192 220 156 265 q 282 175 229 175 q 369 212 338 175 q 400 310 400 249 q 363 423 400 379 q 274 467 326 467 m 250 -81 q 166 -112 199 -81 q 133 -183 133 -144 q 176 -248 133 -221 q 289 -275 218 -275 q 420 -243 374 -275 q 467 -164 467 -211 q 422 -101 467 -122 q 279 -81 378 -81 l 250 -81 z "},"ğ":{"ha":578,"x_min":44,"x_max":554,"o":"m 554 506 l 554 450 l 439 450 q 489 325 489 389 q 463 224 489 271 q 387 150 436 178 q 272 122 338 122 q 206 128 239 122 q 156 65 156 100 q 163 39 156 51 q 183 21 169 26 q 233 9 203 13 q 297 4 264 6 q 344 3 331 3 q 499 -39 453 -1 q 544 -129 544 -76 q 509 -231 544 -185 q 407 -305 474 -278 q 253 -332 340 -332 q 142 -314 189 -332 q 69 -267 94 -296 q 44 -204 44 -237 q 83 -122 44 -160 q 178 -64 121 -83 q 105 -33 132 -61 q 78 26 78 -6 q 101 87 78 61 q 169 142 125 113 q 93 211 119 164 q 67 311 67 258 q 92 410 67 363 q 169 487 118 457 q 289 517 219 517 q 364 506 325 517 l 554 506 m 274 467 q 189 430 222 467 q 156 336 156 393 q 192 220 156 265 q 282 175 229 175 q 369 212 338 175 q 400 310 400 249 q 363 423 400 379 q 274 467 326 467 m 250 -81 q 166 -112 199 -81 q 133 -183 133 -144 q 176 -248 133 -221 q 289 -275 218 -275 q 420 -243 374 -275 q 467 -164 467 -211 q 422 -101 467 -122 q 279 -81 378 -81 l 250 -81 m 163 785 q 168 826 163 803 q 183 861 174 849 q 178 831 178 844 q 208 772 178 796 q 276 747 238 747 q 345 772 315 747 q 375 831 375 796 q 369 861 375 844 q 385 826 379 849 q 390 785 390 803 q 358 704 390 740 q 276 668 326 668 q 194 704 226 668 q 163 785 163 740 z "},"ĝ":{"ha":578,"x_min":44,"x_max":554,"o":"m 554 506 l 554 450 l 439 450 q 489 325 489 389 q 463 224 489 271 q 387 150 436 178 q 272 122 338 122 q 206 128 239 122 q 156 65 156 100 q 163 39 156 51 q 183 21 169 26 q 233 9 203 13 q 297 4 264 6 q 344 3 331 3 q 499 -39 453 -1 q 544 -129 544 -76 q 509 -231 544 -185 q 407 -305 474 -278 q 253 -332 340 -332 q 142 -314 189 -332 q 69 -267 94 -296 q 44 -204 44 -237 q 83 -122 44 -160 q 178 -64 121 -83 q 105 -33 132 -61 q 78 26 78 -6 q 101 87 78 61 q 169 142 125 113 q 93 211 119 164 q 67 311 67 258 q 92 410 67 363 q 169 487 118 457 q 289 517 219 517 q 364 506 325 517 l 554 506 m 274 467 q 189 430 222 467 q 156 336 156 393 q 192 220 156 265 q 282 175 229 175 q 369 212 338 175 q 400 310 400 249 q 363 423 400 379 q 274 467 326 467 m 250 -81 q 166 -112 199 -81 q 133 -183 133 -144 q 176 -248 133 -221 q 289 -275 218 -275 q 420 -243 374 -275 q 467 -164 467 -211 q 422 -101 467 -122 q 279 -81 378 -81 l 250 -81 m 288 899 l 442 635 l 288 768 l 133 635 l 288 899 z "},"ģ":{"ha":578,"x_min":44,"x_max":554,"o":"m 554 506 l 554 450 l 439 450 q 489 325 489 389 q 463 224 489 271 q 387 150 436 178 q 272 122 338 122 q 206 128 239 122 q 156 65 156 100 q 163 39 156 51 q 183 21 169 26 q 233 9 203 13 q 297 4 264 6 q 344 3 331 3 q 499 -39 453 -1 q 544 -129 544 -76 q 509 -231 544 -185 q 407 -305 474 -278 q 253 -332 340 -332 q 142 -314 189 -332 q 69 -267 94 -296 q 44 -204 44 -237 q 83 -122 44 -160 q 178 -64 121 -83 q 105 -33 132 -61 q 78 26 78 -6 q 101 87 78 61 q 169 142 125 113 q 93 211 119 164 q 67 311 67 258 q 92 410 67 363 q 169 487 118 457 q 289 517 219 517 q 364 506 325 517 l 554 506 m 274 467 q 189 430 222 467 q 156 336 156 393 q 192 220 156 265 q 282 175 229 175 q 369 212 338 175 q 400 310 400 249 q 363 423 400 379 q 274 467 326 467 m 250 -81 q 166 -112 199 -81 q 133 -183 133 -144 q 176 -248 133 -221 q 289 -275 218 -275 q 420 -243 374 -275 q 467 -164 467 -211 q 422 -101 467 -122 q 279 -81 378 -81 l 250 -81 m 333 878 q 287 834 306 867 q 268 763 268 801 l 275 763 q 315 748 301 763 q 328 714 328 733 q 314 677 328 693 q 276 661 300 661 q 231 683 250 661 q 211 746 211 706 q 242 836 211 797 q 333 878 274 875 z "},"ġ":{"ha":578,"x_min":44,"x_max":554,"o":"m 554 506 l 554 450 l 439 450 q 489 325 489 389 q 463 224 489 271 q 387 150 436 178 q 272 122 338 122 q 206 128 239 122 q 156 65 156 100 q 163 39 156 51 q 183 21 169 26 q 233 9 203 13 q 297 4 264 6 q 344 3 331 3 q 499 -39 453 -1 q 544 -129 544 -76 q 509 -231 544 -185 q 407 -305 474 -278 q 253 -332 340 -332 q 142 -314 189 -332 q 69 -267 94 -296 q 44 -204 44 -237 q 83 -122 44 -160 q 178 -64 121 -83 q 105 -33 132 -61 q 78 26 78 -6 q 101 87 78 61 q 169 142 125 113 q 93 211 119 164 q 67 311 67 258 q 92 410 67 363 q 169 487 118 457 q 289 517 219 517 q 364 506 325 517 l 554 506 m 274 467 q 189 430 222 467 q 156 336 156 393 q 192 220 156 265 q 282 175 229 175 q 369 212 338 175 q 400 310 400 249 q 363 423 400 379 q 274 467 326 467 m 250 -81 q 166 -112 199 -81 q 133 -183 133 -144 q 176 -248 133 -221 q 289 -275 218 -275 q 420 -243 374 -275 q 467 -164 467 -211 q 422 -101 467 -122 q 279 -81 378 -81 l 250 -81 m 275 685 q 227 705 244 685 q 210 751 210 725 q 227 798 210 778 q 275 818 244 818 q 323 798 306 818 q 340 751 340 778 q 323 705 340 725 q 275 685 306 685 z "},"h":{"ha":644,"x_min":42,"x_max":589,"o":"m 200 435 q 275 494 231 471 q 368 517 319 517 q 488 469 443 517 q 533 331 533 421 l 533 138 q 546 49 533 79 q 574 7 558 18 q 589 0 589 -4 l 389 0 q 404 6 389 -4 q 432 47 419 17 q 444 139 444 78 l 444 297 q 432 372 444 344 q 399 418 419 400 q 322 444 367 444 q 236 412 272 444 q 200 321 200 379 l 200 139 q 213 49 200 79 q 241 7 225 18 q 257 0 257 -4 l 57 0 q 72 6 57 -4 q 99 48 88 17 q 111 139 111 79 l 111 854 q 92 934 111 913 q 50 956 74 956 l 42 956 l 200 1028 l 200 435 z "},"ħ":{"ha":644,"x_min":35,"x_max":588,"o":"m 200 435 q 275 494 231 471 q 368 517 319 517 q 488 469 443 517 q 533 331 533 421 l 533 138 q 552 33 533 63 q 588 0 571 3 l 390 0 q 426 31 407 3 q 444 139 444 60 l 444 297 q 432 372 444 344 q 399 418 419 400 q 322 444 367 444 q 236 412 272 444 q 200 321 200 379 l 200 139 q 219 32 200 61 q 256 0 239 3 l 58 0 q 93 31 75 3 q 111 139 111 60 l 111 796 l 35 796 l 35 860 l 111 860 q 91 935 110 914 q 50 956 72 956 l 42 956 l 200 1028 l 200 860 l 374 860 l 374 796 l 200 796 l 200 435 z "},"ĥ":{"ha":644,"x_min":42,"x_max":589,"o":"m 200 435 q 275 494 231 471 q 368 517 319 517 q 488 469 443 517 q 533 331 533 421 l 533 138 q 546 49 533 79 q 574 7 558 18 q 589 0 589 -4 l 389 0 q 404 6 389 -4 q 432 47 419 17 q 444 139 444 78 l 444 297 q 432 372 444 344 q 399 418 419 400 q 322 444 367 444 q 236 412 272 444 q 200 321 200 379 l 200 139 q 213 49 200 79 q 241 7 225 18 q 257 0 257 -4 l 57 0 q 72 6 57 -4 q 99 48 88 17 q 111 139 111 79 l 111 854 q 92 934 111 913 q 50 956 74 956 l 42 956 l 200 1028 l 200 435 m 344 1206 l 526 1017 l 344 1099 l 163 1017 l 344 1206 z "},"i":{"ha":311,"x_min":50,"x_max":256,"o":"m 111 349 q 92 428 111 407 q 50 450 74 450 l 200 517 l 200 139 q 213 47 200 78 q 240 6 225 17 q 256 0 256 -4 l 56 0 q 71 6 56 -4 q 99 47 86 17 q 111 139 111 78 l 111 349 m 154 685 q 106 705 124 685 q 89 751 89 725 q 106 798 89 778 q 154 818 124 818 q 202 798 185 818 q 219 751 219 778 q 202 705 219 725 q 154 685 185 685 z "},"ı":{"ha":311,"x_min":50,"x_max":256,"o":"m 111 349 q 92 428 111 407 q 50 450 74 450 l 200 517 l 200 139 q 213 47 200 78 q 240 6 225 17 q 256 0 256 -4 l 56 0 q 71 6 56 -4 q 99 47 86 17 q 111 139 111 78 l 111 349 z "},"í":{"ha":311,"x_min":50,"x_max":306,"o":"m 111 349 q 92 428 111 407 q 50 450 74 450 l 200 517 l 200 139 q 213 47 200 78 q 240 6 225 17 q 256 0 256 -4 l 56 0 q 71 6 56 -4 q 99 47 86 17 q 111 139 111 78 l 111 349 m 182 885 l 306 885 l 81 621 l 182 885 z "},"ĭ":{"ha":311,"x_min":39,"x_max":267,"o":"m 111 349 q 92 428 111 407 q 50 450 74 450 l 200 517 l 200 139 q 213 47 200 78 q 240 6 225 17 q 256 0 256 -4 l 56 0 q 71 6 56 -4 q 99 47 86 17 q 111 139 111 78 l 111 349 m 39 785 q 44 826 39 803 q 60 861 50 849 q 54 831 54 844 q 84 772 54 796 q 153 747 114 747 q 222 772 192 747 q 251 831 251 796 q 246 861 251 844 q 261 826 256 849 q 267 785 267 803 q 235 704 267 740 q 153 668 203 668 q 71 704 103 668 q 39 785 39 740 z "},"î":{"ha":311,"x_min":1,"x_max":310,"o":"m 111 349 q 92 428 111 407 q 50 450 74 450 l 200 517 l 200 139 q 213 47 200 78 q 240 6 225 17 q 256 0 256 -4 l 56 0 q 71 6 56 -4 q 99 47 86 17 q 111 139 111 78 l 111 349 m 156 899 l 310 635 l 156 768 l 1 635 l 156 899 z "},"ï":{"ha":311,"x_min":-7,"x_max":318,"o":"m 111 349 q 92 428 111 407 q 50 450 74 450 l 200 517 l 200 139 q 213 47 200 78 q 240 6 225 17 q 256 0 256 -4 l 56 0 q 71 6 56 -4 q 99 47 86 17 q 111 139 111 78 l 111 349 m 47 678 q 8 694 22 678 q -7 733 -7 711 q 8 772 -7 756 q 47 789 22 789 q 87 772 72 789 q 101 733 101 756 q 87 694 101 711 q 47 678 72 678 m 264 678 q 224 694 239 678 q 210 733 210 711 q 224 772 210 756 q 264 789 239 789 q 303 772 289 789 q 318 733 318 756 q 303 694 318 711 q 264 678 289 678 z "},"ì":{"ha":311,"x_min":21,"x_max":256,"o":"m 111 349 q 92 428 111 407 q 50 450 74 450 l 200 517 l 200 139 q 213 47 200 78 q 240 6 225 17 q 256 0 256 -4 l 56 0 q 71 6 56 -4 q 99 47 86 17 q 111 139 111 78 l 111 349 m 144 885 l 246 621 l 21 885 l 144 885 z "},"ĳ":{"ha":622,"x_min":50,"x_max":531,"o":"m 111 349 q 92 428 111 407 q 50 450 74 450 l 200 517 l 200 139 q 213 47 200 78 q 240 6 225 17 q 256 0 256 -4 l 56 0 q 71 6 56 -4 q 99 47 86 17 q 111 139 111 78 l 111 349 m 465 685 q 417 705 435 685 q 400 751 400 725 q 417 798 400 778 q 465 818 435 818 q 513 798 496 818 q 531 751 531 778 q 513 705 531 725 q 465 685 496 685 m 422 349 q 403 428 422 407 q 361 450 385 450 l 511 517 l 511 -131 q 472 -276 511 -224 q 368 -329 432 -329 q 283 -308 329 -329 q 385 -271 354 -300 q 414 -219 406 -251 q 422 -132 422 -186 l 422 349 m 154 685 q 106 705 124 685 q 89 751 89 725 q 106 798 89 778 q 154 818 124 818 q 202 798 185 818 q 219 751 219 778 q 202 705 219 725 q 154 685 185 685 z "},"ī":{"ha":311,"x_min":-17,"x_max":322,"o":"m 111 349 q 92 428 111 407 q 50 450 74 450 l 200 517 l 200 139 q 213 47 200 78 q 240 6 225 17 q 256 0 256 -4 l 56 0 q 71 6 56 -4 q 99 47 86 17 q 111 139 111 78 l 111 349 m -17 778 l 322 778 l 322 714 l -17 714 l -17 778 z "},"į":{"ha":311,"x_min":49,"x_max":269,"o":"m 217 0 q 143 -76 167 -43 q 119 -139 119 -108 q 137 -180 119 -164 q 182 -196 154 -196 q 269 -167 218 -196 q 215 -226 247 -206 q 147 -246 182 -246 q 77 -219 106 -246 q 49 -147 49 -193 q 150 0 49 -69 l 217 0 m 111 349 q 92 428 111 407 q 50 450 74 450 l 200 517 l 200 139 q 213 47 200 78 q 240 6 225 17 q 256 0 256 -4 l 56 0 q 71 6 56 -4 q 99 47 86 17 q 111 139 111 78 l 111 349 m 154 685 q 106 705 124 685 q 89 751 89 725 q 106 798 89 778 q 154 818 124 818 q 202 798 185 818 q 219 751 219 778 q 202 705 219 725 q 154 685 185 685 z "},"ĩ":{"ha":311,"x_min":-12,"x_max":318,"o":"m 111 349 q 92 428 111 407 q 50 450 74 450 l 200 517 l 200 139 q 213 47 200 78 q 240 6 225 17 q 256 0 256 -4 l 56 0 q 71 6 56 -4 q 99 47 86 17 q 111 139 111 78 l 111 349 m -12 715 q 13 778 -12 756 q 79 801 39 801 q 178 776 119 801 q 246 758 222 758 q 293 819 293 758 q 292 843 293 835 q 318 776 318 819 q 292 713 318 736 q 226 690 267 690 q 128 715 186 690 q 60 733 83 733 q 13 672 13 733 q 14 649 13 657 q -12 715 -12 672 z "},"j":{"ha":311,"x_min":-28,"x_max":219,"o":"m 154 685 q 106 705 124 685 q 89 751 89 725 q 106 798 89 778 q 154 818 124 818 q 202 798 185 818 q 219 751 219 778 q 202 705 219 725 q 154 685 185 685 m 111 349 q 92 428 111 407 q 50 450 74 450 l 200 517 l 200 -131 q 160 -276 200 -224 q 57 -329 121 -329 q -28 -308 18 -329 q 74 -271 43 -300 q 103 -219 94 -251 q 111 -132 111 -186 l 111 349 z "},"ȷ":{"ha":311,"x_min":-28,"x_max":200,"o":"m 111 349 q 92 428 111 407 q 50 450 74 450 l 200 517 l 200 -131 q 160 -276 200 -224 q 57 -329 121 -329 q -28 -308 18 -329 q 74 -271 43 -300 q 103 -219 94 -251 q 111 -132 111 -186 l 111 349 z "},"ĵ":{"ha":311,"x_min":-28,"x_max":308,"o":"m 111 349 q 92 428 111 407 q 50 450 74 450 l 200 517 l 200 -131 q 160 -276 200 -224 q 57 -329 121 -329 q -28 -308 18 -329 q 74 -271 43 -300 q 103 -219 94 -251 q 111 -132 111 -186 l 111 349 m 154 899 l 308 635 l 154 768 l 0 635 l 154 899 z "},"k":{"ha":600,"x_min":42,"x_max":603,"o":"m 111 854 q 92 934 111 913 q 50 956 74 956 l 42 956 l 200 1028 l 200 272 l 339 390 q 390 442 369 417 q 411 478 411 467 q 404 495 411 489 q 390 503 397 501 q 381 506 383 506 l 581 506 q 557 493 576 504 q 497 453 538 482 q 400 376 457 424 l 297 292 l 463 121 q 549 44 517 65 q 597 22 582 22 l 603 22 q 553 0 582 8 q 503 -8 524 -8 q 451 12 476 -8 q 386 74 425 32 l 365 94 l 200 268 l 200 139 q 213 47 200 78 q 242 6 226 17 q 258 0 258 -4 l 58 0 q 73 6 58 -4 q 99 48 88 17 q 111 139 111 79 l 111 854 z "},"ķ":{"ha":600,"x_min":42,"x_max":603,"o":"m 111 854 q 92 934 111 913 q 50 956 74 956 l 42 956 l 200 1028 l 200 272 l 339 390 q 390 442 369 417 q 411 478 411 467 q 404 495 411 489 q 390 503 397 501 q 381 506 383 506 l 581 506 q 557 493 576 504 q 497 453 538 482 q 400 376 457 424 l 297 292 l 463 121 q 549 44 517 65 q 597 22 582 22 l 603 22 q 553 0 582 8 q 503 -8 524 -8 q 451 12 476 -8 q 386 74 425 32 l 365 94 l 200 268 l 200 139 q 213 47 200 78 q 242 6 226 17 q 258 0 258 -4 l 58 0 q 73 6 58 -4 q 99 48 88 17 q 111 139 111 79 l 111 854 m 257 -339 q 311 -290 289 -328 q 333 -207 333 -253 l 325 -207 q 279 -191 294 -207 q 264 -151 264 -175 q 280 -109 264 -126 q 324 -92 296 -92 q 376 -117 354 -92 q 399 -189 399 -142 q 362 -292 399 -247 q 257 -339 325 -336 z "},"ĸ":{"ha":600,"x_min":50,"x_max":603,"o":"m 111 349 q 92 428 111 407 q 50 450 74 450 l 200 517 l 200 272 l 339 390 q 390 442 369 417 q 411 478 411 467 q 404 495 411 489 q 390 503 397 501 q 381 506 383 506 l 581 506 q 557 493 576 504 q 497 453 538 482 q 400 376 457 424 l 297 292 l 463 121 q 549 44 517 65 q 597 22 582 22 l 603 22 q 553 0 582 8 q 503 -8 524 -8 q 451 12 476 -8 q 386 74 425 32 l 365 94 l 200 268 l 200 139 q 213 47 200 78 q 242 6 226 17 q 258 0 258 -4 l 58 0 q 73 6 58 -4 q 99 48 88 17 q 111 139 111 79 l 111 349 z "},"l":{"ha":311,"x_min":42,"x_max":256,"o":"m 111 854 q 92 934 111 913 q 50 956 74 956 l 42 956 l 200 1028 l 200 139 q 213 47 200 78 q 240 6 225 17 q 256 0 256 -4 l 56 0 q 71 6 56 -4 q 99 48 86 17 q 111 139 111 79 l 111 854 z "},"ĺ":{"ha":311,"x_min":35,"x_max":342,"o":"m 111 854 q 92 934 111 913 q 50 956 74 956 l 42 956 l 200 1028 l 200 139 q 213 47 200 78 q 240 6 225 17 q 256 0 256 -4 l 56 0 q 71 6 56 -4 q 99 48 86 17 q 111 139 111 79 l 111 854 m 178 1192 l 342 1192 l 35 1017 l 178 1192 z "},"ľ":{"ha":311,"x_min":42,"x_max":428,"o":"m 111 854 q 92 934 111 913 q 50 956 74 956 l 42 956 l 200 1028 l 200 139 q 213 47 200 78 q 240 6 225 17 q 256 0 256 -4 l 56 0 q 71 6 56 -4 q 99 48 86 17 q 111 139 111 79 l 111 854 m 332 972 l 428 972 l 288 713 l 332 972 z "},"ļ":{"ha":311,"x_min":42,"x_max":256,"o":"m 111 854 q 92 934 111 913 q 50 956 74 956 l 42 956 l 200 1028 l 200 139 q 213 47 200 78 q 240 6 225 17 q 256 0 256 -4 l 56 0 q 71 6 56 -4 q 99 48 86 17 q 111 139 111 79 l 111 854 m 81 -339 q 135 -290 113 -328 q 157 -207 157 -253 l 149 -207 q 103 -191 118 -207 q 88 -151 88 -175 q 103 -109 88 -126 q 147 -92 119 -92 q 200 -117 178 -92 q 222 -189 222 -142 q 185 -292 222 -247 q 81 -339 149 -336 z "},"ŀ":{"ha":311,"x_min":42,"x_max":454,"o":"m 111 854 q 92 934 111 913 q 50 956 74 956 l 42 956 l 200 1028 l 200 139 q 213 47 200 78 q 240 6 225 17 q 256 0 256 -4 l 56 0 q 71 6 56 -4 q 99 48 86 17 q 111 139 111 79 l 111 854 m 389 382 q 341 402 358 382 q 324 449 324 422 q 341 495 324 475 q 389 515 358 515 q 437 495 419 515 q 454 449 454 475 q 437 402 454 422 q 389 382 419 382 z "},"ł":{"ha":311,"x_min":10,"x_max":296,"o":"m 10 342 l 10 411 l 111 489 l 111 854 q 92 934 111 913 q 50 956 74 956 l 42 956 l 200 1028 l 200 558 l 296 633 l 296 564 l 200 489 l 200 139 q 219 32 200 61 q 254 0 238 3 l 57 0 q 92 31 74 3 q 111 139 111 60 l 111 419 l 10 342 z "},"m":{"ha":978,"x_min":50,"x_max":921,"o":"m 200 422 q 278 491 235 465 q 368 517 321 517 q 459 492 419 517 q 517 422 499 468 q 602 493 554 469 q 701 517 650 517 q 822 469 776 517 q 867 331 867 421 l 867 138 q 886 32 867 61 q 921 0 906 3 l 724 0 q 759 32 740 3 q 778 139 778 61 l 778 297 q 765 372 778 344 q 732 418 753 400 q 656 444 700 444 q 570 412 607 444 q 533 321 533 379 l 533 139 q 552 32 533 61 q 588 0 571 3 l 390 0 q 426 32 407 3 q 444 139 444 61 l 444 297 q 432 372 444 344 q 399 418 419 400 q 322 444 367 444 q 236 412 272 444 q 200 321 200 379 l 200 139 q 219 31 200 60 q 256 0 239 3 l 58 0 q 93 32 75 3 q 111 139 111 61 l 111 349 q 92 428 111 407 q 50 450 74 450 l 200 517 l 200 422 z "},"n":{"ha":644,"x_min":50,"x_max":589,"o":"m 200 422 q 276 491 232 465 q 368 517 319 517 q 488 469 443 517 q 533 331 533 421 l 533 138 q 546 49 533 79 q 574 7 558 18 q 589 0 589 -4 l 389 0 q 404 6 389 -4 q 432 47 419 17 q 444 139 444 78 l 444 297 q 432 372 444 344 q 399 418 419 400 q 322 444 367 444 q 236 412 272 444 q 200 321 200 379 l 200 139 q 213 49 200 79 q 241 7 225 18 q 257 0 257 -4 l 57 0 q 72 6 57 -4 q 99 48 88 17 q 111 139 111 79 l 111 349 q 92 428 111 407 q 50 450 74 450 l 200 517 l 200 422 z "},"ń":{"ha":644,"x_min":50,"x_max":589,"o":"m 200 422 q 276 491 232 465 q 368 517 319 517 q 488 469 443 517 q 533 331 533 421 l 533 138 q 546 49 533 79 q 574 7 558 18 q 589 0 589 -4 l 389 0 q 404 6 389 -4 q 432 47 419 17 q 444 139 444 78 l 444 297 q 432 372 444 344 q 399 418 419 400 q 322 444 367 444 q 236 412 272 444 q 200 321 200 379 l 200 139 q 213 49 200 79 q 241 7 225 18 q 257 0 257 -4 l 57 0 q 72 6 57 -4 q 99 48 88 17 q 111 139 111 79 l 111 349 q 92 428 111 407 q 50 450 74 450 l 200 517 l 200 422 m 342 885 l 465 885 l 240 621 l 342 885 z "},"ŉ":{"ha":644,"x_min":0,"x_max":589,"o":"m 200 422 q 276 491 232 465 q 368 517 319 517 q 488 469 443 517 q 533 331 533 421 l 533 138 q 546 49 533 79 q 574 7 558 18 q 589 0 589 -4 l 389 0 q 404 6 389 -4 q 432 47 419 17 q 444 139 444 78 l 444 297 q 432 372 444 344 q 399 418 419 400 q 322 444 367 444 q 236 412 272 444 q 200 321 200 379 l 200 139 q 213 49 200 79 q 241 7 225 18 q 257 0 257 -4 l 57 0 q 72 6 57 -4 q 99 48 88 17 q 111 139 111 79 l 111 349 q 92 428 111 407 q 50 450 74 450 l 200 517 l 200 422 m 0 689 q 54 738 32 700 q 76 821 76 775 l 68 821 q 22 837 38 821 q 7 876 7 853 q 23 919 7 901 q 67 936 39 936 q 119 911 97 936 q 142 839 142 886 q 105 736 142 781 q 0 689 68 692 z "},"ň":{"ha":644,"x_min":50,"x_max":589,"o":"m 200 422 q 276 491 232 465 q 368 517 319 517 q 488 469 443 517 q 533 331 533 421 l 533 138 q 546 49 533 79 q 574 7 558 18 q 589 0 589 -4 l 389 0 q 404 6 389 -4 q 432 47 419 17 q 444 139 444 78 l 444 297 q 432 372 444 344 q 399 418 419 400 q 322 444 367 444 q 236 412 272 444 q 200 321 200 379 l 200 139 q 213 49 200 79 q 241 7 225 18 q 257 0 257 -4 l 57 0 q 72 6 57 -4 q 99 48 88 17 q 111 139 111 79 l 111 349 q 92 428 111 407 q 50 450 74 450 l 200 517 l 200 422 m 478 899 l 324 635 l 169 899 l 324 765 l 478 899 z "},"ņ":{"ha":644,"x_min":50,"x_max":589,"o":"m 200 422 q 276 491 232 465 q 368 517 319 517 q 488 469 443 517 q 533 331 533 421 l 533 138 q 546 49 533 79 q 574 7 558 18 q 589 0 589 -4 l 389 0 q 404 6 389 -4 q 432 47 419 17 q 444 139 444 78 l 444 297 q 432 372 444 344 q 399 418 419 400 q 322 444 367 444 q 236 412 272 444 q 200 321 200 379 l 200 139 q 213 49 200 79 q 241 7 225 18 q 257 0 257 -4 l 57 0 q 72 6 57 -4 q 99 48 88 17 q 111 139 111 79 l 111 349 q 92 428 111 407 q 50 450 74 450 l 200 517 l 200 422 m 251 -339 q 306 -290 283 -328 q 328 -207 328 -253 l 319 -207 q 274 -191 289 -207 q 258 -151 258 -175 q 274 -109 258 -126 q 318 -92 290 -92 q 371 -117 349 -92 q 393 -189 393 -142 q 356 -292 393 -247 q 251 -339 319 -336 z "},"ŋ":{"ha":644,"x_min":50,"x_max":533,"o":"m 200 422 q 276 491 232 465 q 368 517 319 517 q 488 469 443 517 q 533 331 533 421 l 533 -131 q 494 -276 533 -224 q 390 -329 454 -329 q 306 -308 351 -329 l 331 -304 q 422 -253 399 -290 q 444 -132 444 -215 l 444 297 q 432 372 444 344 q 399 418 419 400 q 322 444 367 444 q 236 412 272 444 q 200 321 200 379 l 200 139 q 219 32 200 61 q 256 0 239 3 l 58 0 q 93 31 75 3 q 111 139 111 60 l 111 349 q 92 428 111 407 q 50 450 74 450 l 200 517 l 200 422 z "},"ñ":{"ha":644,"x_min":50,"x_max":589,"o":"m 200 422 q 276 491 232 465 q 368 517 319 517 q 488 469 443 517 q 533 331 533 421 l 533 138 q 546 49 533 79 q 574 7 558 18 q 589 0 589 -4 l 389 0 q 404 6 389 -4 q 432 47 419 17 q 444 139 444 78 l 444 297 q 432 372 444 344 q 399 418 419 400 q 322 444 367 444 q 236 412 272 444 q 200 321 200 379 l 200 139 q 213 49 200 79 q 241 7 225 18 q 257 0 257 -4 l 57 0 q 72 6 57 -4 q 99 48 88 17 q 111 139 111 79 l 111 349 q 92 428 111 407 q 50 450 74 450 l 200 517 l 200 422 m 150 715 q 176 778 150 756 q 242 801 201 801 q 340 776 282 801 q 408 758 385 758 q 456 819 456 758 q 454 843 456 835 q 481 776 481 819 q 455 713 481 736 q 389 690 429 690 q 290 715 349 690 q 222 733 246 733 q 175 672 175 733 q 176 649 175 657 q 150 715 150 672 z "},"o":{"ha":644,"x_min":56,"x_max":589,"o":"m 56 238 q 91 374 56 310 q 189 478 126 439 q 328 517 251 517 q 461 483 401 517 q 555 390 521 449 q 589 263 589 332 q 553 126 589 190 q 456 22 518 61 q 317 -17 393 -17 q 183 17 243 -17 q 90 110 124 51 q 56 238 56 168 m 489 222 q 467 338 489 281 q 404 431 444 394 q 311 467 364 467 q 197 411 238 467 q 156 278 156 356 q 178 163 156 219 q 240 69 200 106 q 333 33 281 33 q 448 89 407 33 q 489 222 489 144 z "},"ó":{"ha":644,"x_min":56,"x_max":589,"o":"m 56 238 q 91 374 56 310 q 189 478 126 439 q 328 517 251 517 q 461 483 401 517 q 555 390 521 449 q 589 263 589 332 q 553 126 589 190 q 456 22 518 61 q 317 -17 393 -17 q 183 17 243 -17 q 90 110 124 51 q 56 238 56 168 m 489 222 q 467 338 489 281 q 404 431 444 394 q 311 467 364 467 q 197 411 238 467 q 156 278 156 356 q 178 163 156 219 q 240 69 200 106 q 333 33 281 33 q 448 89 407 33 q 489 222 489 144 m 369 885 l 493 885 l 268 621 l 369 885 z "},"ŏ":{"ha":644,"x_min":56,"x_max":589,"o":"m 56 238 q 91 374 56 310 q 189 478 126 439 q 328 517 251 517 q 461 483 401 517 q 555 390 521 449 q 589 263 589 332 q 553 126 589 190 q 456 22 518 61 q 317 -17 393 -17 q 183 17 243 -17 q 90 110 124 51 q 56 238 56 168 m 489 222 q 467 338 489 281 q 404 431 444 394 q 311 467 364 467 q 197 411 238 467 q 156 278 156 356 q 178 163 156 219 q 240 69 200 106 q 333 33 281 33 q 448 89 407 33 q 489 222 489 144 m 210 785 q 215 826 210 803 q 231 861 221 849 q 225 831 225 844 q 255 772 225 796 q 324 747 285 747 q 392 772 363 747 q 422 831 422 796 q 417 861 422 844 q 432 826 426 849 q 438 785 438 803 q 406 704 438 740 q 324 668 374 668 q 242 704 274 668 q 210 785 210 740 z "},"ô":{"ha":644,"x_min":56,"x_max":589,"o":"m 56 238 q 91 374 56 310 q 189 478 126 439 q 328 517 251 517 q 461 483 401 517 q 555 390 521 449 q 589 263 589 332 q 553 126 589 190 q 456 22 518 61 q 317 -17 393 -17 q 183 17 243 -17 q 90 110 124 51 q 56 238 56 168 m 489 222 q 467 338 489 281 q 404 431 444 394 q 311 467 364 467 q 197 411 238 467 q 156 278 156 356 q 178 163 156 219 q 240 69 200 106 q 333 33 281 33 q 448 89 407 33 q 489 222 489 144 m 322 899 l 476 635 l 322 768 l 168 635 l 322 899 z "},"ö":{"ha":644,"x_min":56,"x_max":589,"o":"m 56 238 q 91 374 56 310 q 189 478 126 439 q 328 517 251 517 q 461 483 401 517 q 555 390 521 449 q 589 263 589 332 q 553 126 589 190 q 456 22 518 61 q 317 -17 393 -17 q 183 17 243 -17 q 90 110 124 51 q 56 238 56 168 m 489 222 q 467 338 489 281 q 404 431 444 394 q 311 467 364 467 q 197 411 238 467 q 156 278 156 356 q 178 163 156 219 q 240 69 200 106 q 333 33 281 33 q 448 89 407 33 q 489 222 489 144 m 214 678 q 174 694 189 678 q 160 733 160 711 q 174 772 160 756 q 214 789 189 789 q 253 772 239 789 q 268 733 268 756 q 253 694 268 711 q 214 678 239 678 m 431 678 q 391 694 406 678 q 376 733 376 711 q 391 772 376 756 q 431 789 406 789 q 470 772 456 789 q 485 733 485 756 q 470 694 485 711 q 431 678 456 678 z "},"ò":{"ha":644,"x_min":56,"x_max":589,"o":"m 56 238 q 91 374 56 310 q 189 478 126 439 q 328 517 251 517 q 461 483 401 517 q 555 390 521 449 q 589 263 589 332 q 553 126 589 190 q 456 22 518 61 q 317 -17 393 -17 q 183 17 243 -17 q 90 110 124 51 q 56 238 56 168 m 489 222 q 467 338 489 281 q 404 431 444 394 q 311 467 364 467 q 197 411 238 467 q 156 278 156 356 q 178 163 156 219 q 240 69 200 106 q 333 33 281 33 q 448 89 407 33 q 489 222 489 144 m 290 885 l 392 621 l 167 885 l 290 885 z "},"ő":{"ha":644,"x_min":56,"x_max":589,"o":"m 56 238 q 91 374 56 310 q 189 478 126 439 q 328 517 251 517 q 461 483 401 517 q 555 390 521 449 q 589 263 589 332 q 553 126 589 190 q 456 22 518 61 q 317 -17 393 -17 q 183 17 243 -17 q 90 110 124 51 q 56 238 56 168 m 489 222 q 467 338 489 281 q 404 431 444 394 q 311 467 364 467 q 197 411 238 467 q 156 278 156 356 q 178 163 156 219 q 240 69 200 106 q 333 33 281 33 q 448 89 407 33 q 489 222 489 144 m 285 843 l 407 843 l 183 621 l 285 843 m 454 843 l 578 843 l 351 621 l 454 843 z "},"ō":{"ha":644,"x_min":56,"x_max":589,"o":"m 56 238 q 91 374 56 310 q 189 478 126 439 q 328 517 251 517 q 461 483 401 517 q 555 390 521 449 q 589 263 589 332 q 553 126 589 190 q 456 22 518 61 q 317 -17 393 -17 q 183 17 243 -17 q 90 110 124 51 q 56 238 56 168 m 489 222 q 467 338 489 281 q 404 431 444 394 q 311 467 364 467 q 197 411 238 467 q 156 278 156 356 q 178 163 156 219 q 240 69 200 106 q 333 33 281 33 q 448 89 407 33 q 489 222 489 144 m 153 778 l 492 778 l 492 714 l 153 714 l 153 778 z "},"ø":{"ha":644,"x_min":56,"x_max":589,"o":"m 111 -17 l 74 17 l 119 67 q 56 238 56 139 q 91 374 56 310 q 189 478 126 439 q 328 517 251 517 q 488 465 418 517 l 535 517 l 571 485 l 524 433 q 589 263 589 361 q 553 126 589 190 q 456 22 518 61 q 317 -17 393 -17 q 157 33 225 -17 l 111 -17 m 429 403 q 311 467 382 467 q 197 411 238 467 q 156 278 156 356 q 188 140 156 204 l 429 403 m 489 222 q 457 360 489 296 l 214 96 q 333 33 265 33 q 448 89 407 33 q 489 222 489 144 z "},"õ":{"ha":644,"x_min":56,"x_max":589,"o":"m 56 238 q 91 374 56 310 q 189 478 126 439 q 328 517 251 517 q 461 483 401 517 q 555 390 521 449 q 589 263 589 332 q 553 126 589 190 q 456 22 518 61 q 317 -17 393 -17 q 183 17 243 -17 q 90 110 124 51 q 56 238 56 168 m 489 222 q 467 338 489 281 q 404 431 444 394 q 311 467 364 467 q 197 411 238 467 q 156 278 156 356 q 178 163 156 219 q 240 69 200 106 q 333 33 281 33 q 448 89 407 33 q 489 222 489 144 m 150 715 q 176 778 150 756 q 242 801 201 801 q 340 776 282 801 q 408 758 385 758 q 456 819 456 758 q 454 843 456 835 q 481 776 481 819 q 455 713 481 736 q 389 690 429 690 q 290 715 349 690 q 222 733 246 733 q 175 672 175 733 q 176 649 175 657 q 150 715 150 672 z "},"œ":{"ha":993,"x_min":56,"x_max":938,"o":"m 733 -17 q 615 13 667 -17 q 533 93 564 43 q 439 13 496 43 q 317 -17 382 -17 q 183 17 243 -17 q 90 110 124 51 q 56 238 56 168 q 91 374 56 310 q 189 478 126 439 q 328 517 251 517 q 449 489 393 517 q 540 413 504 461 q 624 490 574 463 q 728 517 675 517 q 872 456 811 517 q 938 289 932 396 l 576 289 q 601 172 576 222 q 669 94 626 121 q 761 67 711 67 q 938 150 892 67 q 869 29 925 75 q 733 -17 814 -17 m 718 471 q 625 433 664 471 q 578 333 586 394 l 831 333 q 797 434 831 397 q 718 471 763 471 m 489 222 q 467 338 489 281 q 404 431 444 394 q 311 467 364 467 q 197 411 238 467 q 156 278 156 356 q 178 163 156 219 q 240 69 200 106 q 333 33 281 33 q 448 89 407 33 q 489 222 489 144 z "},"p":{"ha":644,"x_min":50,"x_max":589,"o":"m 200 -183 q 213 -275 200 -244 q 240 -316 225 -306 q 256 -322 256 -326 l 56 -322 q 71 -316 56 -326 q 99 -274 86 -306 q 111 -183 111 -243 l 111 349 q 92 428 111 407 q 50 450 74 450 l 200 517 l 200 426 q 260 485 217 454 q 375 517 304 517 q 485 486 436 517 q 561 401 533 456 q 589 281 589 347 q 554 131 589 196 q 464 26 519 65 q 328 -17 401 -17 q 247 -3 279 -17 q 200 21 215 10 l 200 -183 m 489 239 q 448 391 489 326 q 329 456 407 456 q 269 440 300 456 q 219 396 239 424 q 200 333 200 368 l 200 169 q 210 97 200 125 q 243 56 221 69 q 328 33 278 33 q 443 90 397 33 q 489 239 489 146 z "},"þ":{"ha":644,"x_min":42,"x_max":589,"o":"m 111 854 q 92 934 111 913 q 50 956 74 956 l 42 956 l 200 1028 l 200 426 q 260 485 217 454 q 375 517 304 517 q 485 486 436 517 q 561 401 533 456 q 589 281 589 347 q 554 131 589 196 q 464 26 519 65 q 328 -17 401 -17 q 247 -3 279 -17 q 200 21 215 10 l 200 -183 q 213 -275 200 -244 q 240 -316 225 -306 q 256 -322 256 -326 l 56 -322 q 71 -316 56 -326 q 99 -274 86 -306 q 111 -183 111 -243 l 111 854 m 489 239 q 448 391 489 326 q 329 456 407 456 q 269 440 300 456 q 219 396 239 424 q 200 333 200 368 l 200 169 q 210 97 200 125 q 243 56 221 69 q 328 33 278 33 q 443 90 397 33 q 489 239 489 146 z "},"q":{"ha":644,"x_min":56,"x_max":589,"o":"m 444 74 q 384 15 428 46 q 269 -17 340 -17 q 160 14 208 -17 q 83 99 111 44 q 56 219 56 153 q 90 369 56 304 q 181 474 125 435 q 322 517 243 517 q 440 493 378 517 q 485 482 469 482 q 533 510 508 482 l 533 -183 q 546 -275 533 -244 q 574 -316 558 -306 q 589 -322 589 -326 l 389 -322 q 404 -316 389 -326 q 432 -274 419 -306 q 444 -183 444 -243 l 444 74 m 444 331 q 435 403 444 375 q 401 444 425 431 q 313 467 367 467 q 201 410 246 467 q 156 261 156 354 q 197 109 156 174 q 315 44 238 44 q 375 60 344 44 q 425 104 406 76 q 444 167 444 132 l 444 331 z "},"r":{"ha":444,"x_min":50,"x_max":411,"o":"m 200 390 q 269 476 221 435 q 365 517 317 517 q 411 508 396 517 l 411 394 q 325 432 381 432 q 233 381 267 432 q 200 251 200 331 l 200 139 q 218 32 200 61 q 253 0 236 3 l 57 0 q 92 31 74 3 q 111 139 111 60 l 111 349 q 92 428 111 407 q 50 450 74 450 l 200 517 l 200 390 z "},"ŕ":{"ha":444,"x_min":50,"x_max":411,"o":"m 200 390 q 269 476 221 435 q 365 517 317 517 q 411 508 396 517 l 411 394 q 325 432 381 432 q 233 381 267 432 q 200 251 200 331 l 200 139 q 218 32 200 61 q 253 0 236 3 l 57 0 q 92 31 74 3 q 111 139 111 60 l 111 349 q 92 428 111 407 q 50 450 74 450 l 200 517 l 200 390 m 249 885 l 372 885 l 147 621 l 249 885 z "},"ř":{"ha":444,"x_min":50,"x_max":411,"o":"m 200 390 q 269 476 221 435 q 365 517 317 517 q 411 508 396 517 l 411 394 q 325 432 381 432 q 233 381 267 432 q 200 251 200 331 l 200 139 q 218 32 200 61 q 253 0 236 3 l 57 0 q 92 31 74 3 q 111 139 111 60 l 111 349 q 92 428 111 407 q 50 450 74 450 l 200 517 l 200 390 m 379 899 l 225 635 l 71 899 l 225 765 l 379 899 z "},"ŗ":{"ha":444,"x_min":50,"x_max":411,"o":"m 200 390 q 269 476 221 435 q 365 517 317 517 q 411 508 396 517 l 411 394 q 325 432 381 432 q 233 381 267 432 q 200 251 200 331 l 200 139 q 218 32 200 61 q 253 0 236 3 l 57 0 q 92 31 74 3 q 111 139 111 60 l 111 349 q 92 428 111 407 q 50 450 74 450 l 200 517 l 200 390 m 131 -339 q 185 -290 163 -328 q 207 -207 207 -253 l 199 -207 q 153 -191 168 -207 q 138 -151 138 -175 q 153 -109 138 -126 q 197 -92 169 -92 q 250 -117 228 -92 q 272 -189 272 -142 q 235 -292 272 -247 q 131 -339 199 -336 z "},"s":{"ha":478,"x_min":78,"x_max":422,"o":"m 238 -17 q 151 -3 196 -17 q 78 33 107 11 l 78 156 q 149 62 104 90 q 247 33 194 33 q 317 57 290 33 q 344 108 344 81 q 317 160 344 139 q 232 207 289 181 q 118 275 158 242 q 78 365 78 308 q 125 472 78 428 q 249 517 172 517 q 340 504 301 517 q 399 476 379 492 l 376 372 q 321 443 360 419 q 239 467 282 467 q 177 444 201 467 q 153 394 153 422 q 183 335 153 357 q 274 286 213 313 q 384 224 346 256 q 422 136 422 193 q 400 61 422 96 q 335 5 378 26 q 238 -17 293 -17 z "},"ś":{"ha":478,"x_min":78,"x_max":422,"o":"m 238 -17 q 151 -3 196 -17 q 78 33 107 11 l 78 156 q 149 62 104 90 q 247 33 194 33 q 317 57 290 33 q 344 108 344 81 q 317 160 344 139 q 232 207 289 181 q 118 275 158 242 q 78 365 78 308 q 125 472 78 428 q 249 517 172 517 q 340 504 301 517 q 399 476 379 492 l 376 372 q 321 443 360 419 q 239 467 282 467 q 177 444 201 467 q 153 394 153 422 q 183 335 153 357 q 274 286 213 313 q 384 224 346 256 q 422 136 422 193 q 400 61 422 96 q 335 5 378 26 q 238 -17 293 -17 m 278 885 l 401 885 l 176 621 l 278 885 z "},"š":{"ha":478,"x_min":78,"x_max":422,"o":"m 238 -17 q 151 -3 196 -17 q 78 33 107 11 l 78 156 q 149 62 104 90 q 247 33 194 33 q 317 57 290 33 q 344 108 344 81 q 317 160 344 139 q 232 207 289 181 q 118 275 158 242 q 78 365 78 308 q 125 472 78 428 q 249 517 172 517 q 340 504 301 517 q 399 476 379 492 l 376 372 q 321 443 360 419 q 239 467 282 467 q 177 444 201 467 q 153 394 153 422 q 183 335 153 357 q 274 286 213 313 q 384 224 346 256 q 422 136 422 193 q 400 61 422 96 q 335 5 378 26 q 238 -17 293 -17 m 400 899 l 246 635 l 92 899 l 246 765 l 400 899 z "},"ş":{"ha":478,"x_min":78,"x_max":422,"o":"m 339 -164 q 310 -227 339 -200 q 231 -254 282 -254 q 170 -240 199 -254 q 126 -196 142 -225 q 200 -211 169 -211 q 245 -195 229 -211 q 261 -157 261 -179 q 246 -120 261 -136 q 201 -104 231 -104 l 189 -104 l 226 -17 q 145 -1 186 -14 q 78 33 104 13 l 78 156 q 149 62 104 90 q 247 33 194 33 q 317 57 290 33 q 344 108 344 81 q 317 160 344 139 q 232 207 289 181 q 118 275 158 242 q 78 365 78 308 q 125 472 78 428 q 249 517 172 517 q 340 504 301 517 q 399 476 379 492 l 376 372 q 321 443 360 419 q 239 467 282 467 q 177 444 201 467 q 153 394 153 422 q 183 335 153 357 q 274 286 213 313 q 384 224 346 256 q 422 136 422 193 q 384 41 422 83 q 279 -12 346 -1 l 250 -78 q 316 -108 293 -83 q 339 -164 339 -132 z "},"ŝ":{"ha":478,"x_min":78,"x_max":422,"o":"m 238 -17 q 151 -3 196 -17 q 78 33 107 11 l 78 156 q 149 62 104 90 q 247 33 194 33 q 317 57 290 33 q 344 108 344 81 q 317 160 344 139 q 232 207 289 181 q 118 275 158 242 q 78 365 78 308 q 125 472 78 428 q 249 517 172 517 q 340 504 301 517 q 399 476 379 492 l 376 372 q 321 443 360 419 q 239 467 282 467 q 177 444 201 467 q 153 394 153 422 q 183 335 153 357 q 274 286 213 313 q 384 224 346 256 q 422 136 422 193 q 400 61 422 96 q 335 5 378 26 q 238 -17 293 -17 m 243 899 l 397 635 l 243 768 l 89 635 l 243 899 z "},"ș":{"ha":478,"x_min":78,"x_max":422,"o":"m 238 -17 q 151 -3 196 -17 q 78 33 107 11 l 78 156 q 149 62 104 90 q 247 33 194 33 q 317 57 290 33 q 344 108 344 81 q 317 160 344 139 q 232 207 289 181 q 118 275 158 242 q 78 365 78 308 q 125 472 78 428 q 249 517 172 517 q 340 504 301 517 q 399 476 379 492 l 376 372 q 321 443 360 419 q 239 467 282 467 q 177 444 201 467 q 153 394 153 422 q 183 335 153 357 q 274 286 213 313 q 384 224 346 256 q 422 136 422 193 q 400 61 422 96 q 335 5 378 26 q 238 -17 293 -17 m 168 -339 q 222 -290 200 -328 q 244 -207 244 -253 l 236 -207 q 190 -191 206 -207 q 175 -151 175 -175 q 191 -109 175 -126 q 235 -92 207 -92 q 288 -117 265 -92 q 310 -189 310 -142 q 273 -292 310 -247 q 168 -339 236 -336 z "},"ß":{"ha":667,"x_min":67,"x_max":629,"o":"m 425 -10 q 359 -4 397 -10 q 290 10 321 1 l 306 146 q 356 65 313 89 q 447 40 399 40 q 521 68 494 40 q 547 142 547 96 q 513 219 547 188 q 414 288 479 250 q 313 356 347 324 q 279 435 279 388 q 298 509 279 475 q 358 597 317 543 q 433 707 407 658 q 458 821 458 756 q 424 931 458 892 q 335 971 390 971 q 200 778 200 971 l 200 129 q 210 45 200 74 q 233 7 221 17 q 246 0 246 -3 l 67 0 q 79 6 67 -4 q 101 45 92 17 q 111 129 111 74 l 111 743 q 147 898 111 835 q 240 992 183 961 q 358 1024 296 1024 q 494 974 438 1024 q 550 835 550 924 q 522 724 550 772 q 439 613 493 675 q 375 531 396 564 q 354 463 354 499 q 376 428 354 444 q 444 385 397 411 q 538 328 501 354 q 602 263 575 303 q 629 169 629 224 q 605 82 629 124 q 535 15 581 40 q 425 -10 489 -10 z "},"ſ":{"ha":311,"x_min":33,"x_max":465,"o":"m 200 139 q 213 48 200 79 q 240 6 225 17 q 256 0 256 -4 l 54 0 q 70 6 54 -4 q 99 48 86 17 q 111 139 111 79 l 111 450 l 33 450 l 33 506 l 111 506 l 111 699 q 144 870 111 796 q 235 986 176 944 q 371 1028 294 1028 q 465 1015 431 1028 l 465 907 q 405 947 440 932 q 333 961 369 961 q 232 912 264 961 q 200 785 200 863 l 200 139 z "},"t":{"ha":422,"x_min":33,"x_max":389,"o":"m 249 -17 q 146 30 181 -17 q 111 142 111 76 l 111 450 l 33 450 l 200 639 l 200 506 l 378 506 l 378 450 l 200 450 l 200 157 q 228 77 200 104 q 292 50 256 50 q 346 67 319 50 q 389 113 372 83 q 249 -17 368 -17 z "},"ŧ":{"ha":422,"x_min":33,"x_max":389,"o":"m 249 -17 q 146 30 181 -17 q 111 142 111 76 l 111 254 l 39 254 l 39 310 l 111 310 l 111 450 l 33 450 l 200 639 l 200 506 l 378 506 l 378 450 l 200 450 l 200 310 l 378 310 l 378 254 l 200 254 l 200 157 q 228 77 200 104 q 292 50 256 50 q 346 67 319 50 q 389 113 372 83 q 249 -17 368 -17 z "},"ť":{"ha":422,"x_min":33,"x_max":424,"o":"m 249 -17 q 146 30 181 -17 q 111 142 111 76 l 111 450 l 33 450 l 200 639 l 200 506 l 378 506 l 378 450 l 200 450 l 200 157 q 228 77 200 104 q 292 50 256 50 q 346 67 319 50 q 389 113 372 83 q 249 -17 368 -17 m 328 972 l 424 972 l 283 713 l 328 972 z "},"ţ":{"ha":422,"x_min":33,"x_max":389,"o":"m 324 -153 q 295 -216 324 -189 q 215 -243 267 -243 q 155 -228 183 -243 q 111 -185 126 -214 q 185 -200 154 -200 q 230 -184 214 -200 q 246 -146 246 -168 q 231 -109 246 -125 q 186 -93 215 -93 l 174 -93 l 208 -11 q 135 44 160 1 q 111 142 111 88 l 111 450 l 33 450 l 200 639 l 200 506 l 378 506 l 378 450 l 200 450 l 200 157 q 228 77 200 104 q 292 50 256 50 q 346 67 319 50 q 389 113 372 83 q 257 -17 368 -11 l 235 -67 q 301 -97 278 -72 q 324 -153 324 -121 z "},"ț":{"ha":422,"x_min":33,"x_max":389,"o":"m 249 -17 q 146 30 181 -17 q 111 142 111 76 l 111 450 l 33 450 l 200 639 l 200 506 l 378 506 l 378 450 l 200 450 l 200 157 q 228 77 200 104 q 292 50 256 50 q 346 67 319 50 q 389 113 372 83 q 249 -17 368 -17 m 139 -339 q 193 -290 171 -328 q 215 -207 215 -253 l 207 -207 q 161 -191 176 -207 q 146 -151 146 -175 q 162 -109 146 -126 q 206 -92 178 -92 q 258 -117 236 -92 q 281 -189 281 -142 q 244 -292 281 -247 q 139 -339 207 -336 z "},"u":{"ha":644,"x_min":32,"x_max":603,"o":"m 444 81 q 274 -17 375 -17 q 157 30 203 -17 q 111 172 111 76 l 111 369 q 94 457 111 426 q 54 499 76 488 q 32 506 32 510 l 200 506 l 200 193 q 235 93 200 128 q 319 58 271 58 q 406 91 368 58 q 444 176 444 124 l 444 379 q 431 461 444 433 q 399 499 417 489 q 381 506 381 508 l 533 506 l 533 157 q 552 77 533 99 q 594 56 571 56 l 603 56 l 444 -17 l 444 81 z "},"ú":{"ha":644,"x_min":32,"x_max":603,"o":"m 444 81 q 274 -17 375 -17 q 157 30 203 -17 q 111 172 111 76 l 111 369 q 94 457 111 426 q 54 499 76 488 q 32 506 32 510 l 200 506 l 200 193 q 235 93 200 128 q 319 58 271 58 q 406 91 368 58 q 444 176 444 124 l 444 379 q 431 461 444 433 q 399 499 417 489 q 381 506 381 508 l 533 506 l 533 157 q 552 77 533 99 q 594 56 571 56 l 603 56 l 444 -17 l 444 81 m 369 885 l 493 885 l 268 621 l 369 885 z "},"ŭ":{"ha":644,"x_min":32,"x_max":603,"o":"m 444 81 q 274 -17 375 -17 q 157 30 203 -17 q 111 172 111 76 l 111 369 q 94 457 111 426 q 54 499 76 488 q 32 506 32 510 l 200 506 l 200 193 q 235 93 200 128 q 319 58 271 58 q 406 91 368 58 q 444 176 444 124 l 444 379 q 431 461 444 433 q 399 499 417 489 q 381 506 381 508 l 533 506 l 533 157 q 552 77 533 99 q 594 56 571 56 l 603 56 l 444 -17 l 444 81 m 210 785 q 215 826 210 803 q 231 861 221 849 q 225 831 225 844 q 255 772 225 796 q 324 747 285 747 q 392 772 363 747 q 422 831 422 796 q 417 861 422 844 q 432 826 426 849 q 438 785 438 803 q 406 704 438 740 q 324 668 374 668 q 242 704 274 668 q 210 785 210 740 z "},"û":{"ha":644,"x_min":32,"x_max":603,"o":"m 444 81 q 274 -17 375 -17 q 157 30 203 -17 q 111 172 111 76 l 111 369 q 94 457 111 426 q 54 499 76 488 q 32 506 32 510 l 200 506 l 200 193 q 235 93 200 128 q 319 58 271 58 q 406 91 368 58 q 444 176 444 124 l 444 379 q 431 461 444 433 q 399 499 417 489 q 381 506 381 508 l 533 506 l 533 157 q 552 77 533 99 q 594 56 571 56 l 603 56 l 444 -17 l 444 81 m 321 899 l 475 635 l 321 768 l 167 635 l 321 899 z "},"ü":{"ha":644,"x_min":32,"x_max":603,"o":"m 444 81 q 274 -17 375 -17 q 157 30 203 -17 q 111 172 111 76 l 111 369 q 94 457 111 426 q 54 499 76 488 q 32 506 32 510 l 200 506 l 200 193 q 235 93 200 128 q 319 58 271 58 q 406 91 368 58 q 444 176 444 124 l 444 379 q 431 461 444 433 q 399 499 417 489 q 381 506 381 508 l 533 506 l 533 157 q 552 77 533 99 q 594 56 571 56 l 603 56 l 444 -17 l 444 81 m 213 678 q 173 694 188 678 q 158 733 158 711 q 173 772 158 756 q 213 789 188 789 q 252 772 238 789 q 267 733 267 756 q 252 694 267 711 q 213 678 238 678 m 429 678 q 390 694 404 678 q 375 733 375 711 q 390 772 375 756 q 429 789 404 789 q 469 772 454 789 q 483 733 483 756 q 469 694 483 711 q 429 678 454 678 z "},"ù":{"ha":644,"x_min":32,"x_max":603,"o":"m 444 81 q 274 -17 375 -17 q 157 30 203 -17 q 111 172 111 76 l 111 369 q 94 457 111 426 q 54 499 76 488 q 32 506 32 510 l 200 506 l 200 193 q 235 93 200 128 q 319 58 271 58 q 406 91 368 58 q 444 176 444 124 l 444 379 q 431 461 444 433 q 399 499 417 489 q 381 506 381 508 l 533 506 l 533 157 q 552 77 533 99 q 594 56 571 56 l 603 56 l 444 -17 l 444 81 m 276 885 l 378 621 l 153 885 l 276 885 z "},"ű":{"ha":644,"x_min":32,"x_max":603,"o":"m 444 81 q 274 -17 375 -17 q 157 30 203 -17 q 111 172 111 76 l 111 369 q 94 457 111 426 q 54 499 76 488 q 32 506 32 510 l 200 506 l 200 193 q 235 93 200 128 q 319 58 271 58 q 406 91 368 58 q 444 176 444 124 l 444 379 q 431 461 444 433 q 399 499 417 489 q 381 506 381 508 l 533 506 l 533 157 q 552 77 533 99 q 594 56 571 56 l 603 56 l 444 -17 l 444 81 m 271 843 l 393 843 l 169 621 l 271 843 m 440 843 l 564 843 l 338 621 l 440 843 z "},"ū":{"ha":644,"x_min":32,"x_max":603,"o":"m 444 81 q 274 -17 375 -17 q 157 30 203 -17 q 111 172 111 76 l 111 369 q 94 457 111 426 q 54 499 76 488 q 32 506 32 510 l 200 506 l 200 193 q 235 93 200 128 q 319 58 271 58 q 406 91 368 58 q 444 176 444 124 l 444 379 q 431 461 444 433 q 399 499 417 489 q 381 506 381 508 l 533 506 l 533 157 q 552 77 533 99 q 594 56 571 56 l 603 56 l 444 -17 l 444 81 m 153 778 l 492 778 l 492 714 l 153 714 l 153 778 z "},"ų":{"ha":644,"x_min":33,"x_max":603,"o":"m 535 0 q 460 -75 483 -42 q 436 -139 436 -108 q 453 -180 436 -164 q 499 -196 471 -196 q 586 -167 535 -196 q 531 -226 564 -206 q 464 -246 499 -246 q 394 -219 422 -246 q 365 -147 365 -193 q 444 -15 365 -78 l 444 81 q 274 -17 375 -17 q 157 30 203 -17 q 111 172 111 76 l 111 369 q 85 472 111 443 q 33 506 58 500 l 200 506 l 200 193 q 235 93 200 128 q 319 58 271 58 q 406 91 368 58 q 444 176 444 124 l 444 379 q 424 474 444 449 q 382 506 403 500 l 533 506 l 533 157 q 552 77 533 99 q 594 56 571 56 l 603 56 l 535 0 z "},"ů":{"ha":644,"x_min":32,"x_max":603,"o":"m 444 81 q 274 -17 375 -17 q 157 30 203 -17 q 111 172 111 76 l 111 369 q 94 457 111 426 q 54 499 76 488 q 32 506 32 510 l 200 506 l 200 193 q 235 93 200 128 q 319 58 271 58 q 406 91 368 58 q 444 176 444 124 l 444 379 q 431 461 444 433 q 399 499 417 489 q 381 506 381 508 l 533 506 l 533 157 q 552 77 533 99 q 594 56 571 56 l 603 56 l 444 -17 l 444 81 m 226 733 q 255 801 226 774 q 322 829 283 829 q 390 801 363 829 q 418 733 418 774 q 390 665 418 693 q 322 636 361 636 q 255 665 283 636 q 226 733 226 693 m 381 733 q 363 772 381 756 q 322 789 346 789 q 281 772 299 789 q 264 733 264 756 q 281 694 264 711 q 322 676 299 676 q 363 694 346 676 q 381 733 381 711 z "},"ũ":{"ha":644,"x_min":32,"x_max":603,"o":"m 444 81 q 274 -17 375 -17 q 157 30 203 -17 q 111 172 111 76 l 111 369 q 94 457 111 426 q 54 499 76 488 q 32 506 32 510 l 200 506 l 200 193 q 235 93 200 128 q 319 58 271 58 q 406 91 368 58 q 444 176 444 124 l 444 379 q 431 461 444 433 q 399 499 417 489 q 381 506 381 508 l 533 506 l 533 157 q 552 77 533 99 q 594 56 571 56 l 603 56 l 444 -17 l 444 81 m 150 715 q 176 778 150 756 q 242 801 201 801 q 340 776 282 801 q 408 758 385 758 q 456 819 456 758 q 454 843 456 835 q 481 776 481 819 q 455 713 481 736 q 389 690 429 690 q 290 715 349 690 q 222 733 246 733 q 175 672 175 733 q 176 649 175 657 q 150 715 150 672 z "},"v":{"ha":556,"x_min":6,"x_max":551,"o":"m 278 -17 l 89 410 q 52 472 71 450 q 19 500 33 493 q 6 506 6 507 l 215 506 q 203 502 213 506 q 184 488 193 499 q 175 458 175 478 q 189 406 175 435 l 299 154 l 401 392 q 411 443 411 417 q 401 485 411 468 q 367 506 390 501 l 551 506 q 537 500 551 507 q 503 470 522 493 q 465 404 485 447 l 278 -17 z "},"w":{"ha":878,"x_min":7,"x_max":871,"o":"m 719 390 q 729 442 729 415 q 719 483 729 467 q 685 504 708 500 l 871 504 q 831 481 856 501 q 783 403 807 460 l 606 -18 l 435 342 l 271 -17 l 86 410 q 41 483 63 463 q 7 506 19 503 l 210 506 q 174 458 174 499 q 186 406 174 436 l 292 149 l 457 517 l 626 147 l 719 390 z "},"ẃ":{"ha":878,"x_min":7,"x_max":871,"o":"m 719 390 q 729 442 729 415 q 719 483 729 467 q 685 504 708 500 l 871 504 q 831 481 856 501 q 783 403 807 460 l 606 -18 l 435 342 l 271 -17 l 86 410 q 41 483 63 463 q 7 506 19 503 l 210 506 q 174 458 174 499 q 186 406 174 436 l 292 149 l 457 517 l 626 147 l 719 390 m 518 885 l 642 885 l 417 621 l 518 885 z "},"ŵ":{"ha":878,"x_min":7,"x_max":871,"o":"m 719 390 q 729 442 729 415 q 719 483 729 467 q 685 504 708 500 l 871 504 q 831 481 856 501 q 783 403 807 460 l 606 -18 l 435 342 l 271 -17 l 86 410 q 41 483 63 463 q 7 506 19 503 l 210 506 q 174 458 174 499 q 186 406 174 436 l 292 149 l 457 517 l 626 147 l 719 390 m 442 899 l 596 635 l 442 768 l 288 635 l 442 899 z "},"ẅ":{"ha":878,"x_min":7,"x_max":871,"o":"m 719 390 q 729 442 729 415 q 719 483 729 467 q 685 504 708 500 l 871 504 q 831 481 856 501 q 783 403 807 460 l 606 -18 l 435 342 l 271 -17 l 86 410 q 41 483 63 463 q 7 506 19 503 l 210 506 q 174 458 174 499 q 186 406 174 436 l 292 149 l 457 517 l 626 147 l 719 390 m 333 678 q 294 694 308 678 q 279 733 279 711 q 294 772 279 756 q 333 789 308 789 q 373 772 358 789 q 388 733 388 756 q 373 694 388 711 q 333 678 358 678 m 550 678 q 510 694 525 678 q 496 733 496 711 q 510 772 496 756 q 550 789 525 789 q 590 772 575 789 q 604 733 604 756 q 590 694 604 711 q 550 678 575 678 z "},"ẁ":{"ha":878,"x_min":7,"x_max":871,"o":"m 719 390 q 729 442 729 415 q 719 483 729 467 q 685 504 708 500 l 871 504 q 831 481 856 501 q 783 403 807 460 l 606 -18 l 435 342 l 271 -17 l 86 410 q 41 483 63 463 q 7 506 19 503 l 210 506 q 174 458 174 499 q 186 406 174 436 l 292 149 l 457 517 l 626 147 l 719 390 m 383 885 l 485 621 l 260 885 l 383 885 z "},"x":{"ha":556,"x_min":32,"x_max":549,"o":"m 332 0 q 342 2 335 0 q 357 11 350 4 q 364 32 364 18 q 342 92 364 60 l 272 194 l 213 113 q 178 38 178 64 q 186 14 178 22 q 203 3 194 6 q 214 0 211 0 l 32 0 q 46 7 32 -1 q 87 42 60 15 q 153 121 114 69 l 242 240 l 153 376 q 91 459 118 431 q 48 497 64 488 q 32 506 32 507 l 249 506 q 238 502 246 506 q 224 490 231 499 q 217 465 217 481 q 235 417 217 444 l 301 315 l 363 399 q 396 469 396 443 q 389 492 396 483 q 374 503 382 500 q 364 506 367 506 l 549 506 q 532 499 549 507 q 488 466 515 490 q 425 396 461 442 l 329 271 l 436 110 q 493 37 468 61 q 533 6 518 13 q 549 0 549 -1 l 332 0 z "},"y":{"ha":556,"x_min":8,"x_max":551,"o":"m 250 42 l 88 410 q 42 483 64 463 q 8 506 21 503 l 211 506 q 186 493 199 503 q 174 458 174 483 q 188 406 174 435 l 300 146 l 400 392 q 410 443 410 417 q 399 485 410 468 q 365 506 389 501 l 551 506 q 512 482 536 503 q 464 404 488 461 l 275 -35 q 219 -173 238 -122 q 185 -278 201 -224 q 171 -322 178 -304 l 29 -322 q 122 -221 67 -304 q 235 4 176 -137 l 250 42 z "},"ý":{"ha":556,"x_min":8,"x_max":551,"o":"m 250 42 l 88 410 q 42 483 64 463 q 8 506 21 503 l 211 506 q 186 493 199 503 q 174 458 174 483 q 188 406 174 435 l 300 146 l 400 392 q 410 443 410 417 q 399 485 410 468 q 365 506 389 501 l 551 506 q 512 482 536 503 q 464 404 488 461 l 275 -35 q 219 -173 238 -122 q 185 -278 201 -224 q 171 -322 178 -304 l 29 -322 q 122 -221 67 -304 q 235 4 176 -137 l 250 42 m 339 885 l 463 885 l 238 621 l 339 885 z "},"ŷ":{"ha":556,"x_min":8,"x_max":551,"o":"m 250 42 l 88 410 q 42 483 64 463 q 8 506 21 503 l 211 506 q 186 493 199 503 q 174 458 174 483 q 188 406 174 435 l 300 146 l 400 392 q 410 443 410 417 q 399 485 410 468 q 365 506 389 501 l 551 506 q 512 482 536 503 q 464 404 488 461 l 275 -35 q 219 -173 238 -122 q 185 -278 201 -224 q 171 -322 178 -304 l 29 -322 q 122 -221 67 -304 q 235 4 176 -137 l 250 42 m 288 899 l 442 635 l 288 768 l 133 635 l 288 899 z "},"ÿ":{"ha":556,"x_min":8,"x_max":551,"o":"m 250 42 l 88 410 q 42 483 64 463 q 8 506 21 503 l 211 506 q 186 493 199 503 q 174 458 174 483 q 188 406 174 435 l 300 146 l 400 392 q 410 443 410 417 q 399 485 410 468 q 365 506 389 501 l 551 506 q 512 482 536 503 q 464 404 488 461 l 275 -35 q 219 -173 238 -122 q 185 -278 201 -224 q 171 -322 178 -304 l 29 -322 q 122 -221 67 -304 q 235 4 176 -137 l 250 42 m 168 678 q 128 694 143 678 q 114 733 114 711 q 128 772 114 756 q 168 789 143 789 q 208 772 193 789 q 222 733 222 756 q 208 694 222 711 q 168 678 193 678 m 385 678 q 345 694 360 678 q 331 733 331 711 q 345 772 331 756 q 385 789 360 789 q 424 772 410 789 q 439 733 439 756 q 424 694 439 711 q 385 678 410 678 z "},"z":{"ha":533,"x_min":53,"x_max":469,"o":"m 367 56 q 441 85 421 56 q 467 143 461 114 l 467 0 l 53 0 l 333 450 l 188 450 q 103 419 126 450 q 76 360 79 388 l 76 506 l 469 506 l 193 56 l 367 56 z "},"ź":{"ha":533,"x_min":53,"x_max":469,"o":"m 367 56 q 441 85 421 56 q 467 143 461 114 l 467 0 l 53 0 l 333 450 l 188 450 q 103 419 126 450 q 76 360 79 388 l 76 506 l 469 506 l 193 56 l 367 56 m 286 885 l 410 885 l 185 621 l 286 885 z "},"ž":{"ha":533,"x_min":53,"x_max":469,"o":"m 367 56 q 441 85 421 56 q 467 143 461 114 l 467 0 l 53 0 l 333 450 l 188 450 q 103 419 126 450 q 76 360 79 388 l 76 506 l 469 506 l 193 56 l 367 56 m 422 899 l 268 635 l 114 899 l 268 765 l 422 899 z "},"ż":{"ha":533,"x_min":53,"x_max":469,"o":"m 367 56 q 441 85 421 56 q 467 143 461 114 l 467 0 l 53 0 l 333 450 l 188 450 q 103 419 126 450 q 76 360 79 388 l 76 506 l 469 506 l 193 56 l 367 56 m 264 685 q 216 705 233 685 q 199 751 199 725 q 216 798 199 778 q 264 818 233 818 q 312 798 294 818 q 329 751 329 778 q 312 705 329 725 q 264 685 294 685 z "},"ﬁ":{"ha":667,"x_min":33,"x_max":611,"o":"m 465 907 q 405 947 440 932 q 333 961 369 961 q 232 912 264 961 q 200 785 200 863 l 200 506 l 344 506 l 344 450 l 200 450 l 200 139 q 213 48 200 79 q 240 6 225 17 q 256 0 256 -4 l 54 0 q 70 6 54 -4 q 99 48 86 17 q 111 139 111 79 l 111 450 l 33 450 l 33 506 l 111 506 l 111 699 q 144 870 111 796 q 235 986 176 944 q 371 1028 294 1028 q 465 1015 431 1028 l 465 907 m 467 349 q 448 428 467 407 q 406 450 429 450 l 556 517 l 556 139 q 568 47 556 78 q 596 6 581 17 q 611 0 611 -4 l 411 0 q 426 6 411 -4 q 454 47 442 17 q 467 139 467 78 l 467 349 m 510 685 q 462 705 479 685 q 444 751 444 725 q 462 798 444 778 q 510 818 479 818 q 558 798 540 818 q 575 751 575 778 q 558 705 575 725 q 510 685 540 685 z "},"ﬂ":{"ha":667,"x_min":33,"x_max":610,"o":"m 200 450 l 200 139 q 219 32 200 61 q 254 0 238 3 l 56 0 q 92 31 72 3 q 111 139 111 60 l 111 450 l 33 450 l 33 506 l 111 506 l 111 699 q 144 870 111 796 q 235 986 176 944 q 371 1028 294 1028 q 432 1021 400 1028 q 489 997 464 1014 l 556 1028 l 556 139 q 574 32 556 61 q 610 0 593 3 l 413 0 q 448 31 429 3 q 467 139 467 60 l 467 450 l 200 450 m 467 506 l 467 906 q 333 961 415 961 q 232 912 264 961 q 200 785 200 863 l 200 506 l 467 506 z "},"ª":{"ha":422,"x_min":56,"x_max":415,"o":"m 351 589 q 293 606 315 590 q 268 643 271 622 q 226 603 256 617 q 164 589 196 589 q 88 613 119 589 q 56 685 56 638 q 263 797 56 797 l 263 821 q 239 894 263 869 q 181 918 215 918 q 113 894 142 918 q 85 826 85 869 q 72 871 72 843 q 108 946 72 919 q 194 972 144 972 q 286 939 247 972 q 325 844 325 906 l 325 704 q 345 658 325 678 q 396 639 365 639 q 415 644 404 639 l 351 589 m 263 765 q 151 747 181 765 q 122 692 122 728 q 141 650 122 667 q 188 633 160 633 q 240 656 218 633 q 263 707 263 678 l 263 765 z "},"º":{"ha":500,"x_min":56,"x_max":444,"o":"m 56 774 q 85 881 56 836 q 160 949 114 926 q 258 972 207 972 q 390 924 335 972 q 444 789 444 876 q 415 681 444 726 q 340 613 386 636 q 242 589 293 589 q 110 638 165 589 q 56 774 56 686 m 372 764 q 353 858 372 818 q 303 917 333 897 q 240 938 272 938 q 161 901 194 938 q 128 799 128 864 q 147 704 128 744 q 197 644 167 664 q 260 624 228 624 q 338 661 304 624 q 372 764 372 699 z "},"Δ":{"ha":967,"x_min":56,"x_max":903,"o":"m 490 1000 l 903 0 l 56 0 l 490 1000 m 465 799 q 382 603 419 689 q 319 458 344 517 q 157 78 193 165 l 758 78 l 465 799 z "},"Ω":{"ha":1178,"x_min":43,"x_max":1153,"o":"m 676 0 q 823 78 754 15 q 935 243 892 142 q 978 468 978 344 q 926 697 978 594 q 783 856 874 799 q 578 914 692 914 q 392 861 474 914 q 265 712 311 808 q 219 488 219 615 q 295 179 219 304 q 511 0 371 54 l 67 0 q 43 185 61 51 q 94 111 68 135 q 166 78 121 88 q 299 69 211 69 q 161 232 214 129 q 108 467 108 335 q 172 729 108 614 q 349 908 235 844 q 614 972 464 972 q 848 917 739 972 q 1023 753 957 863 q 1089 489 1089 643 q 1035 245 1089 354 q 883 69 981 136 l 943 69 q 1051 80 1014 69 q 1108 113 1088 90 q 1153 185 1128 135 q 1129 0 1135 51 l 676 0 z "},"μ":{"ha":607,"x_min":49,"x_max":575,"o":"m 422 65 q 360 6 394 26 q 290 -15 325 -15 q 215 15 246 -15 l 215 -322 l 128 -322 l 126 369 q 109 457 126 426 q 70 499 92 488 q 49 506 49 510 l 217 506 l 217 179 q 244 85 217 117 q 311 53 271 53 q 383 83 351 53 q 415 164 415 114 l 415 379 q 401 461 415 433 q 368 499 386 489 q 350 506 350 508 l 504 506 l 503 150 q 522 69 503 90 q 563 47 540 47 q 571 48 568 47 q 575 49 574 49 l 425 -26 l 422 65 z "},"π":{"ha":733,"x_min":44,"x_max":689,"o":"m 244 450 l 244 147 q 261 35 244 68 q 296 0 278 3 l 97 0 q 136 33 117 1 q 156 147 156 65 l 156 450 l 44 450 l 44 506 l 689 506 l 689 450 l 578 450 l 578 147 q 596 34 578 67 q 632 0 614 1 l 439 0 q 472 29 456 1 q 489 126 489 57 l 489 450 l 244 450 z "},"א":{"ha":654,"x_min":49,"x_max":596,"o":"m 236 383 q 183 269 200 358 q 167 92 167 181 l 254 92 l 208 -3 l 49 -3 l 79 142 q 133 325 104 263 q 207 419 161 388 q 158 471 179 453 q 106 511 136 489 q 91 522 99 517 q 76 533 83 528 l 125 633 q 140 610 129 621 q 172 583 150 600 q 288 469 242 529 l 360 372 l 406 308 q 453 396 433 343 q 475 488 474 449 q 417 533 438 510 l 465 633 q 480 615 468 625 q 507 593 492 604 q 569 538 547 564 q 578 510 578 528 q 540 407 578 475 q 429 275 500 335 l 493 183 q 562 88 544 110 q 596 54 579 65 l 510 -18 q 399 156 479 39 q 247 368 319 274 l 236 383 z "},"ב":{"ha":542,"x_min":35,"x_max":493,"o":"m 493 89 l 449 -3 l 35 -3 l 79 89 l 389 89 q 347 215 347 147 l 347 379 q 228 508 347 508 l 60 508 l 136 633 q 148 610 140 617 q 171 603 156 603 l 260 603 q 429 414 429 603 l 429 168 q 431 122 429 143 q 438 89 432 100 l 493 89 z "},"ג":{"ha":424,"x_min":14,"x_max":361,"o":"m 288 -18 l 242 113 q 174 29 211 61 q 106 -3 136 -3 l 14 -3 l 60 92 l 121 92 q 180 108 153 92 q 235 167 207 125 l 211 414 q 202 457 208 443 q 185 478 196 471 q 146 499 174 486 q 115 511 133 503 q 83 533 89 528 l 132 633 q 143 619 135 625 q 169 605 151 614 q 200 589 188 596 q 215 582 208 585 q 226 576 222 579 q 274 544 260 563 q 293 475 289 526 l 315 185 l 361 22 l 288 -18 z "},"ד":{"ha":543,"x_min":10,"x_max":501,"o":"m 501 603 l 457 508 l 433 508 q 383 458 394 504 q 372 342 372 411 l 372 185 q 377 96 374 129 q 386 22 381 63 l 289 -18 l 289 322 q 317 447 289 401 q 372 508 344 493 l 10 508 l 86 633 q 98 610 90 617 q 121 603 106 603 l 501 603 z "},"ה":{"ha":597,"x_min":56,"x_max":514,"o":"m 332 603 q 501 414 501 603 l 501 186 q 506 99 503 135 q 514 22 508 63 l 419 -18 l 419 379 q 300 508 419 508 l 56 508 l 132 633 q 144 610 136 617 q 167 603 151 603 l 332 603 m 160 251 q 154 150 154 185 q 164 22 154 92 l 67 -18 l 81 296 l 164 318 l 160 251 z "},"ו":{"ha":354,"x_min":35,"x_max":257,"o":"m 151 589 q 181 575 161 583 q 229 544 214 563 q 244 475 244 525 l 244 210 q 248 107 246 144 q 257 22 250 69 l 163 -18 l 163 414 q 157 456 163 442 q 140 478 151 471 q 100 497 128 486 q 67 511 94 499 q 35 533 42 525 l 83 633 q 95 618 86 624 q 123 603 104 613 q 151 589 142 594 z "},"ז":{"ha":347,"x_min":28,"x_max":306,"o":"m 219 508 q 169 403 169 496 q 181 291 169 376 q 222 22 193 206 l 142 -18 l 129 78 q 108 244 115 185 q 101 338 101 304 q 168 508 101 475 l 28 508 l 104 633 q 116 610 108 617 q 139 603 124 603 l 306 603 l 261 508 l 219 508 z "},"ח":{"ha":653,"x_min":69,"x_max":569,"o":"m 475 -18 l 475 379 q 356 508 475 508 l 236 508 q 189 458 200 504 q 178 342 178 411 l 178 186 q 183 96 179 129 q 192 22 186 63 l 94 -18 l 94 322 q 122 447 94 401 q 175 508 149 493 l 69 508 l 146 633 q 158 610 150 617 q 181 603 165 603 l 388 603 q 557 414 557 603 l 557 186 q 561 99 558 135 q 569 22 564 63 l 475 -18 z "},"ט":{"ha":625,"x_min":7,"x_max":569,"o":"m 404 613 q 524 562 479 613 q 569 408 569 511 q 482 98 569 207 q 232 -11 394 -11 q 184 -4 210 -11 q 143 13 158 3 l 88 414 q 69 474 82 456 q 32 513 57 493 q 7 533 19 521 l 56 633 q 73 613 60 622 q 90 599 86 603 q 143 550 122 576 q 169 475 164 524 l 213 94 q 286 86 249 86 q 375 95 331 86 q 439 118 419 104 q 467 217 457 139 q 478 382 478 296 q 457 478 478 444 q 388 511 436 511 q 326 499 354 511 q 263 457 297 488 l 308 574 q 404 613 343 613 z "},"י":{"ha":326,"x_min":28,"x_max":264,"o":"m 107 490 q 72 506 100 493 q 28 533 43 519 l 76 633 q 92 615 81 622 q 165 579 104 608 q 200 563 186 571 q 249 523 233 546 q 264 468 264 500 q 234 338 264 422 q 176 213 204 254 l 85 239 q 140 322 107 253 q 172 426 172 392 q 139 476 172 464 l 107 490 z "},"ך":{"ha":507,"x_min":0,"x_max":424,"o":"m 242 603 q 411 414 411 603 l 411 -99 q 415 -201 413 -164 q 424 -286 417 -239 l 329 -326 l 329 379 q 210 508 329 508 l 0 508 l 76 633 q 88 610 81 617 q 111 603 96 603 l 242 603 z "},"כ":{"ha":515,"x_min":35,"x_max":432,"o":"m 79 89 l 272 89 q 334 106 318 89 q 350 168 350 122 l 350 379 q 324 476 350 444 q 217 508 299 508 l 47 508 l 124 633 q 135 610 128 617 q 158 603 143 603 l 247 603 q 431 414 431 603 q 432 156 432 338 q 380 32 432 67 q 258 -3 328 -3 l 35 -3 l 79 89 z "},"ל":{"ha":482,"x_min":14,"x_max":426,"o":"m 311 603 q 426 486 426 603 q 391 218 426 319 q 280 62 356 117 q 76 -18 204 7 l 114 94 q 140 93 122 93 q 226 103 185 93 q 281 125 268 113 q 316 216 301 142 q 331 382 331 290 q 328 465 331 444 q 314 497 326 486 q 268 508 301 508 l 24 508 q 39 650 39 572 q 14 865 39 761 l 126 929 q 113 781 114 853 q 111 697 111 708 l 111 664 q 100 603 110 635 l 311 603 z "},"ם":{"ha":646,"x_min":69,"x_max":563,"o":"m 557 310 q 563 58 557 154 l 514 -3 l 94 -3 l 94 322 q 122 447 94 401 q 175 508 149 493 l 69 508 l 146 633 q 158 610 150 617 q 181 603 165 603 l 388 603 q 557 414 557 603 l 557 310 m 475 89 l 475 379 q 356 508 475 508 l 225 508 q 186 453 194 496 q 178 342 178 410 l 178 186 q 183 89 179 125 l 475 89 z "},"מ":{"ha":657,"x_min":49,"x_max":581,"o":"m 576 204 q 581 58 576 136 l 532 -3 l 274 -3 l 319 89 l 490 89 q 493 213 493 156 q 465 432 493 353 q 356 511 436 511 q 264 485 301 511 q 213 415 226 460 l 213 410 q 174 22 213 306 l 81 -18 q 114 187 100 72 q 128 364 128 301 q 111 458 128 426 q 75 508 94 489 q 49 533 56 526 l 97 633 q 131 592 103 619 q 174 544 157 567 q 201 488 192 521 q 269 572 219 532 q 376 613 318 613 q 503 560 460 613 q 562 419 547 507 q 576 204 576 332 z "},"ן":{"ha":354,"x_min":35,"x_max":257,"o":"m 151 589 q 181 575 161 583 q 229 544 214 563 q 244 475 244 525 l 244 -94 q 248 -197 246 -160 q 257 -282 250 -235 l 163 -322 l 163 414 q 157 456 163 442 q 140 478 151 471 q 100 497 128 486 q 67 511 94 499 q 35 533 42 525 l 83 633 q 95 618 86 624 q 123 603 104 613 q 151 589 142 594 z "},"נ":{"ha":425,"x_min":7,"x_max":328,"o":"m 325 138 q 326 94 326 117 q 328 57 326 72 l 279 -3 l 7 -3 l 51 89 l 242 89 l 242 414 q 236 456 242 442 q 219 478 231 471 q 179 497 207 486 q 146 511 174 499 q 114 533 119 528 l 163 633 q 174 618 165 624 q 202 603 183 613 q 231 589 221 594 q 260 576 246 581 q 296 558 283 567 q 316 529 308 549 q 324 475 324 510 l 324 186 l 325 138 z "},"ס":{"ha":624,"x_min":56,"x_max":568,"o":"m 444 603 q 539 547 510 603 q 568 408 568 490 q 481 95 568 201 q 222 -11 393 -11 q 118 13 157 -11 q 100 199 106 132 q 94 299 94 265 q 112 428 94 374 q 163 508 129 483 l 56 508 l 132 633 q 147 613 135 622 q 167 603 158 603 l 444 603 m 438 121 q 467 216 457 140 q 476 354 476 292 q 472 435 476 404 q 451 487 468 465 q 397 508 435 508 l 211 508 q 175 400 175 493 q 189 135 175 335 l 192 94 q 272 86 219 86 q 438 121 378 86 z "},"ע":{"ha":582,"x_min":0,"x_max":513,"o":"m 435 590 q 490 547 468 571 q 513 478 513 524 q 483 247 513 369 q 414 72 454 124 q 253 -8 381 31 q 0 -65 125 -46 l 56 42 q 279 78 165 51 q 228 141 254 99 q 189 221 201 183 q 168 303 185 235 q 138 413 151 372 q 109 476 122 457 q 81 509 96 494 q 56 533 65 524 l 104 633 q 116 614 108 622 q 139 594 124 606 q 188 546 169 569 q 219 476 207 522 l 253 349 q 325 90 296 179 q 376 113 361 103 q 408 245 397 157 q 419 421 419 333 q 403 481 419 457 q 370 513 386 504 q 328 533 354 521 l 376 633 q 435 590 383 617 z "},"ף":{"ha":579,"x_min":35,"x_max":496,"o":"m 401 -326 l 401 379 q 282 508 401 508 l 179 508 q 137 428 147 494 q 126 246 126 363 l 283 246 l 242 157 l 35 157 q 55 340 46 278 q 81 444 64 401 q 129 508 99 486 l 44 508 l 121 633 q 133 610 125 617 q 156 603 140 603 l 314 603 q 483 414 483 603 l 483 -99 q 487 -201 485 -164 q 496 -286 489 -239 l 401 -326 z "},"פ":{"ha":606,"x_min":63,"x_max":522,"o":"m 521 414 q 522 156 522 338 q 470 32 522 67 q 349 -3 418 -3 l 63 -3 l 107 89 l 363 89 q 424 106 408 89 q 440 168 440 122 l 440 379 q 415 476 440 444 q 307 508 389 508 l 229 508 q 194 461 204 499 q 182 349 183 424 l 321 349 l 276 254 l 85 254 q 120 424 103 369 q 182 508 138 478 l 75 508 l 151 633 q 163 610 156 617 q 186 603 171 603 l 338 603 q 521 414 521 603 z "},"ץ":{"ha":547,"x_min":21,"x_max":485,"o":"m 290 176 q 360 -142 321 43 q 401 -281 382 -244 l 307 -326 q 144 413 206 210 q 126 464 133 450 q 106 485 118 478 q 53 511 94 493 q 21 533 28 525 l 69 633 q 86 616 74 624 q 138 589 99 608 q 165 574 143 586 q 197 541 186 563 q 219 475 208 519 q 279 225 244 379 q 357 352 331 285 q 383 488 383 419 l 361 504 q 325 533 333 524 l 374 633 q 388 615 376 625 q 415 593 400 604 q 478 538 456 564 q 485 513 485 526 q 455 393 485 461 q 379 265 425 325 q 290 176 333 206 z "},"צ":{"ha":579,"x_min":21,"x_max":503,"o":"m 465 407 q 358 278 428 339 q 489 63 456 106 l 439 -3 l 21 -3 l 65 92 l 385 92 q 289 199 324 135 q 243 286 286 204 l 185 399 q 138 465 161 443 q 82 507 115 488 q 46 533 57 524 l 94 633 q 111 611 99 622 q 139 589 124 600 q 202 538 174 565 q 256 465 231 511 l 310 365 q 325 339 318 351 q 338 317 332 326 q 382 401 364 351 q 400 488 400 450 q 342 533 363 510 l 390 633 q 405 615 393 625 q 432 593 417 604 q 494 538 472 564 q 503 510 503 528 q 465 407 503 475 z "},"ק":{"ha":589,"x_min":56,"x_max":522,"o":"m 132 633 q 144 610 136 617 q 167 603 151 603 l 410 603 q 522 486 522 603 q 455 149 522 276 q 257 -18 388 21 l 288 94 q 348 108 328 101 q 382 126 368 114 q 416 228 401 143 q 431 399 431 314 q 427 469 431 447 q 410 499 424 490 q 367 508 397 508 l 56 508 l 132 633 m 164 360 q 158 179 161 296 q 156 -49 156 63 q 164 -282 156 -224 l 67 -322 l 81 338 l 164 360 z "},"ר":{"ha":499,"x_min":10,"x_max":415,"o":"m 233 603 q 403 414 403 603 l 403 210 q 406 107 404 144 q 415 22 408 69 l 321 -18 l 321 379 q 201 508 321 508 l 10 508 l 86 633 q 98 610 90 617 q 121 603 106 603 l 233 603 z "},"ש":{"ha":714,"x_min":14,"x_max":644,"o":"m 572 586 q 622 543 600 571 q 644 454 644 515 q 552 108 644 228 q 276 -11 460 -11 q 197 -5 231 -11 q 153 13 164 1 l 131 161 q 94 414 107 318 q 75 479 89 458 q 42 513 61 500 q 14 533 24 525 l 63 633 q 75 615 67 624 q 99 597 83 607 q 152 550 132 575 q 176 475 172 525 q 204 229 188 328 q 288 290 251 247 q 324 413 324 332 q 313 472 324 450 q 288 505 303 494 q 239 533 272 515 l 288 633 q 317 605 293 618 q 346 589 342 592 q 367 576 349 588 q 398 540 386 565 q 410 476 410 514 q 211 185 410 226 q 231 93 217 154 q 325 86 265 86 q 503 124 458 86 q 538 224 524 140 q 551 411 551 308 q 544 464 551 446 q 520 494 536 482 q 460 533 504 506 l 508 633 q 540 604 514 618 q 572 586 567 590 z "},"ת":{"ha":672,"x_min":0,"x_max":589,"o":"m 494 -18 l 494 379 q 375 508 494 508 l 247 508 q 219 473 228 500 q 210 396 210 446 l 211 356 l 225 58 l 176 -3 l 0 -3 l 44 92 l 147 92 l 132 292 q 131 338 131 307 q 194 508 131 469 l 89 508 l 165 633 q 177 610 169 617 q 200 603 185 603 l 407 603 q 576 414 576 603 l 576 210 q 580 107 578 144 q 589 22 582 69 l 494 -18 z "},"שׁ":{"ha":714,"x_min":14,"x_max":644,"o":"m 572 586 q 622 543 600 571 q 644 454 644 515 q 552 108 644 228 q 276 -11 460 -11 q 197 -5 231 -11 q 153 13 164 1 l 131 161 q 94 414 107 318 q 75 479 89 458 q 42 513 61 500 q 14 533 24 525 l 63 633 q 75 615 67 624 q 99 597 83 607 q 152 550 132 575 q 176 475 172 525 q 204 229 188 328 q 288 290 251 247 q 324 413 324 332 q 313 472 324 450 q 288 505 303 494 q 239 533 272 515 l 288 633 q 317 605 293 618 q 346 589 342 592 q 367 576 349 588 q 398 540 386 565 q 410 476 410 514 q 211 185 410 226 q 231 93 217 154 q 325 86 265 86 q 503 124 458 86 q 538 224 524 140 q 551 411 551 308 q 544 464 551 446 q 520 494 536 482 q 460 533 504 506 l 508 633 q 540 604 514 618 q 572 586 567 590 m 592 660 q 556 674 571 660 q 540 711 540 688 q 556 749 540 736 q 592 763 571 763 q 628 749 613 763 q 643 711 643 736 q 628 674 643 688 q 592 660 613 660 z "},"שׂ":{"ha":714,"x_min":14,"x_max":644,"o":"m 572 586 q 622 543 600 571 q 644 454 644 515 q 552 108 644 228 q 276 -11 460 -11 q 197 -5 231 -11 q 153 13 164 1 l 131 161 q 94 414 107 318 q 75 479 89 458 q 42 513 61 500 q 14 533 24 525 l 63 633 q 75 615 67 624 q 99 597 83 607 q 152 550 132 575 q 176 475 172 525 q 204 229 188 328 q 288 290 251 247 q 324 413 324 332 q 313 472 324 450 q 288 505 303 494 q 239 533 272 515 l 288 633 q 317 605 293 618 q 346 589 342 592 q 367 576 349 588 q 398 540 386 565 q 410 476 410 514 q 211 185 410 226 q 231 93 217 154 q 325 86 265 86 q 503 124 458 86 q 538 224 524 140 q 551 411 551 308 q 544 464 551 446 q 520 494 536 482 q 460 533 504 506 l 508 633 q 540 604 514 618 q 572 586 567 590 m 136 660 q 100 674 115 660 q 85 711 85 688 q 100 749 85 736 q 136 763 115 763 q 172 749 157 763 q 188 711 188 736 q 172 674 188 688 q 136 660 157 660 z "},"שּׁ":{"ha":714,"x_min":14,"x_max":644,"o":"m 572 586 q 622 543 600 571 q 644 454 644 515 q 552 108 644 228 q 276 -11 460 -11 q 197 -5 231 -11 q 153 13 164 1 l 131 161 q 94 414 107 318 q 75 479 89 458 q 42 513 61 500 q 14 533 24 525 l 63 633 q 75 615 67 624 q 99 597 83 607 q 152 550 132 575 q 176 475 172 525 q 204 229 188 328 q 288 290 251 247 q 324 413 324 332 q 313 472 324 450 q 288 505 303 494 q 239 533 272 515 l 288 633 q 317 605 293 618 q 346 589 342 592 q 367 576 349 588 q 398 540 386 565 q 410 476 410 514 q 211 185 410 226 q 231 93 217 154 q 325 86 265 86 q 503 124 458 86 q 538 224 524 140 q 551 411 551 308 q 544 464 551 446 q 520 494 536 482 q 460 533 504 506 l 508 633 q 540 604 514 618 q 572 586 567 590 m 592 660 q 556 674 571 660 q 540 711 540 688 q 556 749 540 736 q 592 763 571 763 q 628 749 613 763 q 643 711 643 736 q 628 674 643 688 q 592 660 613 660 m 439 182 q 403 196 418 182 q 388 233 388 210 q 403 272 388 258 q 439 285 418 285 q 475 272 460 285 q 490 233 490 258 q 475 196 490 210 q 439 182 460 182 z "},"שּׂ":{"ha":714,"x_min":14,"x_max":644,"o":"m 572 586 q 622 543 600 571 q 644 454 644 515 q 552 108 644 228 q 276 -11 460 -11 q 197 -5 231 -11 q 153 13 164 1 l 131 161 q 94 414 107 318 q 75 479 89 458 q 42 513 61 500 q 14 533 24 525 l 63 633 q 75 615 67 624 q 99 597 83 607 q 152 550 132 575 q 176 475 172 525 q 204 229 188 328 q 288 290 251 247 q 324 413 324 332 q 313 472 324 450 q 288 505 303 494 q 239 533 272 515 l 288 633 q 317 605 293 618 q 346 589 342 592 q 367 576 349 588 q 398 540 386 565 q 410 476 410 514 q 211 185 410 226 q 231 93 217 154 q 325 86 265 86 q 503 124 458 86 q 538 224 524 140 q 551 411 551 308 q 544 464 551 446 q 520 494 536 482 q 460 533 504 506 l 508 633 q 540 604 514 618 q 572 586 567 590 m 136 660 q 100 674 115 660 q 85 711 85 688 q 100 749 85 736 q 136 763 115 763 q 172 749 157 763 q 188 711 188 736 q 172 674 188 688 q 136 660 157 660 m 439 182 q 403 196 418 182 q 388 233 388 210 q 403 272 388 258 q 439 285 418 285 q 475 272 460 285 q 490 233 490 258 q 475 196 490 210 q 439 182 460 182 z "},"אַ":{"ha":654,"x_min":49,"x_max":596,"o":"m 236 383 q 183 269 200 358 q 167 92 167 181 l 254 92 l 208 -3 l 49 -3 l 79 142 q 133 325 104 263 q 207 419 161 388 q 158 471 179 453 q 106 511 136 489 q 91 522 99 517 q 76 533 83 528 l 125 633 q 140 610 129 621 q 172 583 150 600 q 288 469 242 529 l 360 372 l 406 308 q 453 396 433 343 q 475 488 474 449 q 417 533 438 510 l 465 633 q 480 615 468 625 q 507 593 492 604 q 569 538 547 564 q 578 510 578 528 q 540 407 578 475 q 429 275 500 335 l 493 183 q 562 88 544 110 q 596 54 579 65 l 510 -18 q 399 156 479 39 q 247 368 319 274 l 236 383 m 224 -89 l 468 -89 l 468 -164 l 224 -164 l 224 -89 z "},"אָ":{"ha":654,"x_min":49,"x_max":596,"o":"m 236 383 q 183 269 200 358 q 167 92 167 181 l 254 92 l 208 -3 l 49 -3 l 79 142 q 133 325 104 263 q 207 419 161 388 q 158 471 179 453 q 106 511 136 489 q 91 522 99 517 q 76 533 83 528 l 125 633 q 140 610 129 621 q 172 583 150 600 q 288 469 242 529 l 360 372 l 406 308 q 453 396 433 343 q 475 488 474 449 q 417 533 438 510 l 465 633 q 480 615 468 625 q 507 593 492 604 q 569 538 547 564 q 578 510 578 528 q 540 407 578 475 q 429 275 500 335 l 493 183 q 562 88 544 110 q 596 54 579 65 l 510 -18 q 399 156 479 39 q 247 368 319 274 l 236 383 m 464 -164 l 375 -164 q 386 -256 386 -219 l 306 -256 q 317 -164 306 -233 l 219 -164 l 219 -89 l 464 -89 l 464 -164 z "},"אּ":{"ha":654,"x_min":49,"x_max":596,"o":"m 236 383 q 183 269 200 358 q 167 92 167 181 l 254 92 l 208 -3 l 49 -3 l 79 142 q 133 325 104 263 q 207 419 161 388 q 158 471 179 453 q 106 511 136 489 q 91 522 99 517 q 76 533 83 528 l 125 633 q 140 610 129 621 q 172 583 150 600 q 288 469 242 529 l 360 372 l 406 308 q 453 396 433 343 q 475 488 474 449 q 417 533 438 510 l 465 633 q 480 615 468 625 q 507 593 492 604 q 569 538 547 564 q 578 510 578 528 q 540 407 578 475 q 429 275 500 335 l 493 183 q 562 88 544 110 q 596 54 579 65 l 510 -18 q 399 156 479 39 q 247 368 319 274 l 236 383 m 271 142 q 235 156 250 142 q 219 193 219 169 q 235 231 219 218 q 271 244 250 244 q 307 231 292 244 q 322 193 322 218 q 307 156 322 169 q 271 142 292 142 z "},"בּ":{"ha":542,"x_min":35,"x_max":493,"o":"m 493 89 l 449 -3 l 35 -3 l 79 89 l 389 89 q 347 215 347 147 l 347 379 q 228 508 347 508 l 60 508 l 136 633 q 148 610 140 617 q 171 603 156 603 l 260 603 q 429 414 429 603 l 429 168 q 431 122 429 143 q 438 89 432 100 l 493 89 m 197 250 q 161 264 176 250 q 146 301 146 278 q 161 340 146 326 q 197 353 176 353 q 233 340 218 353 q 249 301 249 326 q 233 264 249 278 q 197 250 218 250 z "},"גּ":{"ha":424,"x_min":14,"x_max":361,"o":"m 288 -18 l 242 113 q 174 29 211 61 q 106 -3 136 -3 l 14 -3 l 60 92 l 121 92 q 180 108 153 92 q 235 167 207 125 l 211 414 q 202 457 208 443 q 185 478 196 471 q 146 499 174 486 q 115 511 133 503 q 83 533 89 528 l 132 633 q 143 619 135 625 q 169 605 151 614 q 200 589 188 596 q 215 582 208 585 q 226 576 222 579 q 274 544 260 563 q 293 475 289 526 l 315 185 l 361 22 l 288 -18 m 131 250 q 94 264 110 250 q 79 301 79 278 q 94 340 79 326 q 131 353 110 353 q 167 340 151 353 q 182 301 182 326 q 167 264 182 278 q 131 250 151 250 z "},"דּ":{"ha":543,"x_min":10,"x_max":501,"o":"m 501 603 l 457 508 l 433 508 q 383 458 394 504 q 372 342 372 411 l 372 185 q 377 96 374 129 q 386 22 381 63 l 289 -18 l 289 322 q 317 447 289 401 q 372 508 344 493 l 10 508 l 86 633 q 98 610 90 617 q 121 603 106 603 l 501 603 m 153 250 q 117 264 132 250 q 101 301 101 278 q 117 340 101 326 q 153 353 132 353 q 189 340 174 353 q 204 301 204 326 q 189 264 204 278 q 153 250 174 250 z "},"הּ":{"ha":597,"x_min":56,"x_max":514,"o":"m 332 603 q 501 414 501 603 l 501 186 q 506 99 503 135 q 514 22 508 63 l 419 -18 l 419 379 q 300 508 419 508 l 56 508 l 132 633 q 144 610 136 617 q 167 603 151 603 l 332 603 m 160 251 q 154 150 154 185 q 164 22 154 92 l 67 -18 l 81 296 l 164 318 l 160 251 m 303 250 q 267 264 282 250 q 251 301 251 278 q 267 340 251 326 q 303 353 282 353 q 339 340 324 353 q 354 301 354 326 q 339 264 354 278 q 303 250 324 250 z "},"וּ":{"ha":354,"x_min":25,"x_max":257,"o":"m 151 589 q 181 575 161 583 q 229 544 214 563 q 244 475 244 525 l 244 210 q 248 107 246 144 q 257 22 250 69 l 163 -18 l 163 414 q 157 456 163 442 q 140 478 151 471 q 100 497 128 486 q 67 511 94 499 q 35 533 42 525 l 83 633 q 95 618 86 624 q 123 603 104 613 q 151 589 142 594 m 76 250 q 40 264 56 250 q 25 301 25 278 q 40 340 25 326 q 76 353 56 353 q 113 340 97 353 q 128 301 128 326 q 113 264 128 278 q 76 250 97 250 z "},"זּ":{"ha":347,"x_min":28,"x_max":306,"o":"m 219 508 q 169 403 169 496 q 181 291 169 376 q 222 22 193 206 l 142 -18 l 129 78 q 108 244 115 185 q 101 338 101 304 q 168 508 101 475 l 28 508 l 104 633 q 116 610 108 617 q 139 603 124 603 l 306 603 l 261 508 l 219 508 m 253 344 q 217 358 232 344 q 201 396 201 372 q 217 434 201 421 q 253 447 232 447 q 289 434 274 447 q 304 396 304 421 q 289 358 304 372 q 253 344 274 344 z "},"טּ":{"ha":625,"x_min":7,"x_max":569,"o":"m 404 613 q 524 562 479 613 q 569 408 569 511 q 482 98 569 207 q 232 -11 394 -11 q 184 -4 210 -11 q 143 13 158 3 l 88 414 q 69 474 82 456 q 32 513 57 493 q 7 533 19 521 l 56 633 q 73 613 60 622 q 90 599 86 603 q 143 550 122 576 q 169 475 164 524 l 213 94 q 286 86 249 86 q 375 95 331 86 q 439 118 419 104 q 467 217 457 139 q 478 382 478 296 q 457 478 478 444 q 388 511 436 511 q 326 499 354 511 q 263 457 297 488 l 308 574 q 404 613 343 613 m 324 250 q 288 264 303 250 q 272 301 272 278 q 288 340 272 326 q 324 353 303 353 q 360 340 344 353 q 375 301 375 326 q 360 264 375 278 q 324 250 344 250 z "},"יּ":{"ha":326,"x_min":18,"x_max":264,"o":"m 107 490 q 72 506 100 493 q 28 533 43 519 l 76 633 q 92 615 81 622 q 165 579 104 608 q 200 563 186 571 q 249 523 233 546 q 264 468 264 500 q 234 338 264 422 q 176 213 204 254 l 85 239 q 140 322 107 253 q 172 426 172 392 q 139 476 172 464 l 107 490 m 69 344 q 33 358 49 344 q 18 396 18 372 q 33 434 18 421 q 69 447 49 447 q 106 434 90 447 q 121 396 121 421 q 106 358 121 372 q 69 344 90 344 z "},"ךּ":{"ha":507,"x_min":0,"x_max":424,"o":"m 242 603 q 411 414 411 603 l 411 -99 q 415 -201 413 -164 q 424 -286 417 -239 l 329 -326 l 329 379 q 210 508 329 508 l 0 508 l 76 633 q 88 610 81 617 q 111 603 96 603 l 242 603 m 165 250 q 129 264 144 250 q 114 301 114 278 q 129 340 114 326 q 165 353 144 353 q 201 340 186 353 q 217 301 217 326 q 201 264 217 278 q 165 250 186 250 z "},"כּ":{"ha":515,"x_min":35,"x_max":432,"o":"m 79 89 l 272 89 q 334 106 318 89 q 350 168 350 122 l 350 379 q 324 476 350 444 q 217 508 299 508 l 47 508 l 124 633 q 135 610 128 617 q 158 603 143 603 l 247 603 q 431 414 431 603 q 432 156 432 338 q 380 32 432 67 q 258 -3 328 -3 l 35 -3 l 79 89 m 192 250 q 156 264 171 250 q 140 301 140 278 q 156 340 140 326 q 192 353 171 353 q 228 340 213 353 q 243 301 243 326 q 228 264 243 278 q 192 250 213 250 z "},"לּ":{"ha":482,"x_min":14,"x_max":426,"o":"m 311 603 q 426 486 426 603 q 391 218 426 319 q 280 62 356 117 q 76 -18 204 7 l 114 94 q 140 93 122 93 q 226 103 185 93 q 281 125 268 113 q 316 216 301 142 q 331 382 331 290 q 328 465 331 444 q 314 497 326 486 q 268 508 301 508 l 24 508 q 39 650 39 572 q 14 865 39 761 l 126 929 q 113 781 114 853 q 111 697 111 708 l 111 664 q 100 603 110 635 l 311 603 m 178 250 q 142 264 157 250 q 126 301 126 278 q 142 340 126 326 q 178 353 157 353 q 214 340 199 353 q 229 301 229 326 q 214 264 229 278 q 178 250 199 250 z "},"מּ":{"ha":657,"x_min":49,"x_max":581,"o":"m 576 204 q 581 58 576 136 l 532 -3 l 274 -3 l 319 89 l 490 89 q 493 213 493 156 q 465 432 493 353 q 356 511 436 511 q 264 485 301 511 q 213 415 226 460 l 213 410 q 174 22 213 306 l 81 -18 q 114 187 100 72 q 128 364 128 301 q 111 458 128 426 q 75 508 94 489 q 49 533 56 526 l 97 633 q 131 592 103 619 q 174 544 157 567 q 201 488 192 521 q 269 572 219 532 q 376 613 318 613 q 503 560 460 613 q 562 419 547 507 q 576 204 576 332 m 344 250 q 308 264 324 250 q 293 301 293 278 q 308 340 293 326 q 344 353 324 353 q 381 340 365 353 q 396 301 396 326 q 381 264 396 278 q 344 250 365 250 z "},"נּ":{"ha":425,"x_min":7,"x_max":328,"o":"m 325 138 q 326 94 326 117 q 328 57 326 72 l 279 -3 l 7 -3 l 51 89 l 242 89 l 242 414 q 236 456 242 442 q 219 478 231 471 q 179 497 207 486 q 146 511 174 499 q 114 533 119 528 l 163 633 q 174 618 165 624 q 202 603 183 613 q 231 589 221 594 q 260 576 246 581 q 296 558 283 567 q 316 529 308 549 q 324 475 324 510 l 324 186 l 325 138 m 138 250 q 101 264 117 250 q 86 301 86 278 q 101 340 86 326 q 138 353 117 353 q 174 340 158 353 q 189 301 189 326 q 174 264 189 278 q 138 250 158 250 z "},"סּ":{"ha":624,"x_min":56,"x_max":568,"o":"m 444 603 q 539 547 510 603 q 568 408 568 490 q 481 95 568 201 q 222 -11 393 -11 q 118 13 157 -11 q 100 199 106 132 q 94 299 94 265 q 112 428 94 374 q 163 508 129 483 l 56 508 l 132 633 q 147 613 135 622 q 167 603 158 603 l 444 603 m 438 121 q 467 216 457 140 q 476 354 476 292 q 472 435 476 404 q 451 487 468 465 q 397 508 435 508 l 211 508 q 175 400 175 493 q 189 135 175 335 l 192 94 q 272 86 219 86 q 438 121 378 86 m 326 250 q 290 264 306 250 q 275 301 275 278 q 290 340 275 326 q 326 353 306 353 q 363 340 347 353 q 378 301 378 326 q 363 264 378 278 q 326 250 347 250 z "},"ףּ":{"ha":579,"x_min":35,"x_max":496,"o":"m 401 -326 l 401 379 q 282 508 401 508 l 179 508 q 137 428 147 494 q 126 246 126 363 l 283 246 l 242 157 l 35 157 q 55 340 46 278 q 81 444 64 401 q 129 508 99 486 l 44 508 l 121 633 q 133 610 125 617 q 156 603 140 603 l 314 603 q 483 414 483 603 l 483 -99 q 487 -201 485 -164 q 496 -286 489 -239 l 401 -326 m 333 240 q 363 229 350 240 q 375 197 375 218 q 363 167 375 178 q 333 156 350 156 q 303 167 317 156 q 290 197 290 178 q 303 229 290 218 q 333 240 317 240 z "},"פּ":{"ha":606,"x_min":63,"x_max":522,"o":"m 521 414 q 522 156 522 338 q 470 32 522 67 q 349 -3 418 -3 l 63 -3 l 107 89 l 363 89 q 424 106 408 89 q 440 168 440 122 l 440 379 q 415 476 440 444 q 307 508 389 508 l 229 508 q 194 461 204 499 q 182 349 183 424 l 321 349 l 276 254 l 85 254 q 120 424 103 369 q 182 508 138 478 l 75 508 l 151 633 q 163 610 156 617 q 186 603 171 603 l 338 603 q 521 414 521 603 m 415 299 q 403 268 415 279 q 374 257 390 257 q 344 268 357 257 q 331 299 331 279 q 344 331 331 319 q 374 342 357 342 q 403 331 390 342 q 415 299 415 319 z "},"צּ":{"ha":579,"x_min":21,"x_max":503,"o":"m 465 407 q 358 278 428 339 q 489 63 456 106 l 439 -3 l 21 -3 l 65 92 l 385 92 q 289 199 324 135 q 243 286 286 204 l 185 399 q 138 465 161 443 q 82 507 115 488 q 46 533 57 524 l 94 633 q 111 611 99 622 q 139 589 124 600 q 202 538 174 565 q 256 465 231 511 l 310 365 q 325 339 318 351 q 338 317 332 326 q 382 401 364 351 q 400 488 400 450 q 342 533 363 510 l 390 633 q 405 615 393 625 q 432 593 417 604 q 494 538 472 564 q 503 510 503 528 q 465 407 503 475 m 165 161 q 129 175 144 161 q 114 213 114 189 q 129 251 114 238 q 165 264 144 264 q 201 251 186 264 q 217 213 217 238 q 201 175 217 189 q 165 161 186 161 z "},"קּ":{"ha":589,"x_min":56,"x_max":522,"o":"m 132 633 q 144 610 136 617 q 167 603 151 603 l 410 603 q 522 486 522 603 q 455 149 522 276 q 257 -18 388 21 l 288 94 q 348 108 328 101 q 382 126 368 114 q 416 228 401 143 q 431 399 431 314 q 427 469 431 447 q 410 499 424 490 q 367 508 397 508 l 56 508 l 132 633 m 164 360 q 158 179 161 296 q 156 -49 156 63 q 164 -282 156 -224 l 67 -322 l 81 338 l 164 360 m 296 250 q 260 264 275 250 q 244 301 244 278 q 260 340 244 326 q 296 353 275 353 q 332 340 317 353 q 347 301 347 326 q 332 264 347 278 q 296 250 317 250 z "},"רּ":{"ha":499,"x_min":10,"x_max":415,"o":"m 233 603 q 403 414 403 603 l 403 210 q 406 107 404 144 q 415 22 408 69 l 321 -18 l 321 379 q 201 508 321 508 l 10 508 l 86 633 q 98 610 90 617 q 121 603 106 603 l 233 603 m 175 250 q 139 264 154 250 q 124 301 124 278 q 139 340 124 326 q 175 353 154 353 q 211 340 196 353 q 226 301 226 326 q 211 264 226 278 q 175 250 196 250 z "},"שּ":{"ha":714,"x_min":14,"x_max":644,"o":"m 572 586 q 622 543 600 571 q 644 454 644 515 q 552 108 644 228 q 276 -11 460 -11 q 197 -5 231 -11 q 153 13 164 1 l 131 161 q 94 414 107 318 q 75 479 89 458 q 42 513 61 500 q 14 533 24 525 l 63 633 q 75 615 67 624 q 99 597 83 607 q 152 550 132 575 q 176 475 172 525 q 204 229 188 328 q 288 290 251 247 q 324 413 324 332 q 313 472 324 450 q 288 505 303 494 q 239 533 272 515 l 288 633 q 317 605 293 618 q 346 589 342 592 q 367 576 349 588 q 398 540 386 565 q 410 476 410 514 q 211 185 410 226 q 231 93 217 154 q 325 86 265 86 q 503 124 458 86 q 538 224 524 140 q 551 411 551 308 q 544 464 551 446 q 520 494 536 482 q 460 533 504 506 l 508 633 q 540 604 514 618 q 572 586 567 590 m 439 182 q 403 196 418 182 q 388 233 388 210 q 403 272 388 258 q 439 285 418 285 q 475 272 460 285 q 490 233 490 258 q 475 196 490 210 q 439 182 460 182 z "},"תּ":{"ha":672,"x_min":0,"x_max":589,"o":"m 494 -18 l 494 379 q 375 508 494 508 l 247 508 q 219 473 228 500 q 210 396 210 446 l 211 356 l 225 58 l 176 -3 l 0 -3 l 44 92 l 147 92 l 132 292 q 131 338 131 307 q 194 508 131 469 l 89 508 l 165 633 q 177 610 169 617 q 200 603 185 603 l 407 603 q 576 414 576 603 l 576 210 q 580 107 578 144 q 589 22 582 69 l 494 -18 m 353 250 q 317 264 332 250 q 301 301 301 278 q 317 340 301 326 q 353 353 332 353 q 389 340 374 353 q 404 301 404 326 q 389 264 404 278 q 353 250 374 250 z "},"וֹ":{"ha":354,"x_min":35,"x_max":257,"o":"m 151 589 q 181 575 161 583 q 229 544 214 563 q 244 475 244 525 l 244 210 q 248 107 246 144 q 257 22 250 69 l 163 -18 l 163 414 q 157 456 163 442 q 140 478 151 471 q 100 497 128 486 q 67 511 94 499 q 35 533 42 525 l 83 633 q 95 618 86 624 q 123 603 104 613 q 151 589 142 594 m 182 660 q 146 674 161 660 q 131 711 131 688 q 146 749 131 736 q 182 763 161 763 q 218 749 203 763 q 233 711 233 736 q 218 674 233 688 q 182 660 203 660 z "},"¹":{"ha":433,"x_min":39,"x_max":217,"o":"m 69 486 q 111 564 111 507 l 111 910 l 74 908 q 39 907 61 907 l 39 919 l 175 985 l 175 564 q 217 486 175 507 l 69 486 z "},"²":{"ha":422,"x_min":51,"x_max":371,"o":"m 113 560 q 236 717 203 664 q 261 772 253 747 q 269 825 269 797 q 246 896 269 871 q 190 921 222 921 q 123 888 149 921 q 97 796 97 854 q 74 861 74 822 q 106 939 74 906 q 200 972 138 972 q 297 935 257 972 q 338 838 338 899 q 285 701 338 774 q 200 603 261 667 l 154 551 l 143 538 l 275 538 q 321 546 301 538 q 353 564 340 554 q 371 576 365 574 l 351 486 l 51 486 l 113 560 z "},"³":{"ha":422,"x_min":61,"x_max":356,"o":"m 264 843 q 242 898 264 875 q 189 921 219 921 q 126 890 150 921 q 103 810 103 858 q 81 874 81 840 q 114 943 81 914 q 196 972 147 972 q 285 942 247 972 q 324 863 324 911 q 304 803 324 833 q 249 754 285 774 q 328 708 300 742 q 356 631 356 674 q 309 522 356 564 q 188 479 263 479 q 61 515 115 479 l 61 586 q 116 537 82 554 q 186 519 150 519 q 260 547 233 519 q 286 617 286 574 q 254 691 286 665 q 176 717 222 717 l 158 717 l 158 735 q 233 775 203 746 q 264 843 264 804 z "},"⁄":{"ha":111,"x_min":-222,"x_max":333,"o":"m -222 0 l 271 956 l 333 956 l -157 0 l -222 0 z "},"½":{"ha":967,"x_min":51,"x_max":1189,"o":"m 113 560 q 236 717 203 664 q 261 772 253 747 q 269 825 269 797 q 246 896 269 871 q 190 921 222 921 q 123 888 149 921 q 97 796 97 854 q 74 861 74 822 q 106 939 74 906 q 200 972 138 972 q 297 935 257 972 q 338 838 338 899 q 285 701 338 774 q 200 603 261 667 l 154 551 l 143 538 l 275 538 q 321 546 301 538 q 353 564 340 554 q 371 576 365 574 l 351 486 l 51 486 l 113 560 m 492 486 q 533 564 533 507 l 533 910 l 496 908 q 461 907 483 907 l 461 919 l 597 985 l 597 564 q 639 486 597 507 l 492 486 m 633 0 l 1126 956 l 1189 956 l 699 0 l 633 0 z "},"¼":{"ha":933,"x_min":106,"x_max":840,"o":"m 136 486 q 178 564 178 507 l 178 910 l 140 908 q 106 907 128 907 l 106 919 l 242 985 l 242 564 q 283 486 242 507 l 136 486 m 156 0 l 649 956 l 711 956 l 221 0 l 156 0 m 469 143 l 767 557 l 767 189 l 840 189 l 840 143 l 767 143 l 767 78 q 808 0 767 21 l 658 0 q 700 78 700 21 l 700 143 l 469 143 m 700 389 l 558 189 l 700 189 l 700 389 z "},"¾":{"ha":933,"x_min":61,"x_max":840,"o":"m 264 843 q 242 898 264 875 q 189 921 219 921 q 126 890 150 921 q 103 810 103 858 q 81 874 81 840 q 114 943 81 914 q 196 972 147 972 q 285 942 247 972 q 324 863 324 911 q 304 803 324 833 q 249 754 285 774 q 328 708 300 742 q 356 631 356 674 q 309 522 356 564 q 188 479 263 479 q 61 515 115 479 l 61 586 q 116 537 82 554 q 186 519 150 519 q 260 547 233 519 q 286 617 286 574 q 254 691 286 665 q 176 717 222 717 l 158 717 l 158 735 q 233 775 203 746 q 264 843 264 804 m 156 0 l 649 956 l 711 956 l 221 0 l 156 0 m 479 143 l 767 554 l 767 189 l 840 189 l 840 143 l 767 143 l 767 78 q 808 0 767 21 l 658 0 q 700 78 700 21 l 700 143 l 479 143 m 700 386 l 558 189 l 700 189 l 700 386 z "},"*":{"ha":472,"x_min":88,"x_max":421,"o":"m 272 801 q 343 770 294 789 q 419 751 392 751 l 351 658 q 333 688 347 665 q 299 739 319 711 q 258 783 278 767 q 251 742 254 771 q 247 686 247 714 q 256 629 247 653 l 144 664 q 168 691 150 669 q 207 741 186 713 q 238 792 228 769 q 179 779 213 789 q 120 760 146 769 q 88 747 94 750 l 88 861 q 120 847 94 858 q 180 826 146 836 q 239 814 214 815 q 209 865 229 836 q 172 915 189 893 q 149 942 154 936 l 257 978 q 251 921 251 957 q 261 818 251 864 q 300 863 279 835 q 335 915 321 892 q 353 946 349 939 l 421 851 q 345 832 396 851 q 272 801 294 813 z "},"\\":{"ha":644,"x_min":72,"x_max":572,"o":"m 135 1010 l 572 -40 l 506 -40 l 72 1010 l 135 1010 z "},"·":{"ha":356,"x_min":107,"x_max":249,"o":"m 178 222 q 128 241 150 222 q 107 293 107 260 q 128 344 107 326 q 178 363 149 363 q 228 344 207 363 q 249 293 249 326 q 227 241 249 260 q 178 222 206 222 z "},"•":{"ha":689,"x_min":219,"x_max":469,"o":"m 344 428 q 436 390 403 428 q 469 299 469 351 q 436 208 469 247 q 344 169 403 169 q 253 208 286 169 q 219 299 219 247 q 253 390 219 351 q 344 428 286 428 z "},":":{"ha":356,"x_min":107,"x_max":249,"o":"m 178 -14 q 128 5 150 -14 q 107 57 107 24 q 128 108 107 90 q 178 126 149 126 q 228 108 207 126 q 249 57 249 90 q 227 5 249 24 q 178 -14 206 -14 m 178 371 q 128 390 150 371 q 107 442 107 408 q 128 493 107 475 q 178 511 149 511 q 228 493 207 511 q 249 442 249 475 q 227 390 249 408 q 178 371 206 371 z "},",":{"ha":356,"x_min":99,"x_max":261,"o":"m 99 -185 q 162 -122 136 -171 q 188 -24 188 -72 q 186 -6 188 -11 l 176 -6 q 124 13 142 -6 q 106 58 106 32 q 124 106 106 86 q 175 126 143 126 q 235 98 210 126 q 261 15 261 69 q 243 -73 261 -28 q 188 -150 225 -118 q 99 -185 150 -182 z "},"…":{"ha":1067,"x_min":107,"x_max":960,"o":"m 178 -14 q 128 5 150 -14 q 107 57 107 24 q 128 108 107 90 q 178 126 149 126 q 228 108 207 126 q 249 57 249 90 q 227 5 249 24 q 178 -14 206 -14 m 533 -14 q 484 5 506 -14 q 463 57 463 24 q 483 108 463 90 q 533 126 504 126 q 583 108 563 126 q 604 57 604 90 q 583 5 604 24 q 533 -14 561 -14 m 889 -14 q 840 5 861 -14 q 818 57 818 24 q 839 108 818 90 q 889 126 860 126 q 939 108 918 126 q 960 57 960 90 q 938 5 960 24 q 889 -14 917 -14 z "},"!":{"ha":443,"x_min":151,"x_max":292,"o":"m 178 822 q 172 911 178 882 q 159 950 167 940 q 151 956 151 960 l 289 956 q 274 931 282 956 q 267 822 267 906 l 267 492 q 257 346 267 400 q 238 263 249 303 q 222 213 226 224 q 208 263 218 224 q 189 344 197 303 q 178 493 178 396 l 178 822 m 224 125 q 274 104 256 125 q 292 56 292 83 q 274 6 292 26 q 224 -15 256 -15 q 174 6 192 -15 q 157 56 157 26 q 174 105 157 85 q 224 125 192 125 z "},"¡":{"ha":422,"x_min":153,"x_max":293,"o":"m 221 506 q 171 526 189 506 q 153 575 153 547 q 171 625 153 604 q 221 646 189 646 q 270 625 253 646 q 288 575 288 604 q 270 526 288 546 q 221 506 253 506 m 267 -189 q 272 -278 267 -249 q 285 -317 278 -307 q 293 -322 293 -326 l 154 -322 q 169 -297 161 -322 q 178 -189 178 -271 l 178 142 q 188 288 178 235 q 207 370 196 331 q 222 421 218 410 q 237 370 226 410 q 256 289 247 331 q 267 140 267 238 l 267 -189 z "},"#":{"ha":672,"x_min":64,"x_max":633,"o":"m 488 269 l 597 269 l 597 214 l 476 214 l 433 0 l 369 0 l 413 214 l 231 214 l 188 0 l 124 0 l 167 214 l 64 214 l 64 269 l 178 269 l 214 450 l 103 450 l 103 506 l 225 506 l 264 703 l 328 703 l 289 506 l 471 506 l 511 703 l 574 703 l 535 506 l 633 506 l 633 450 l 524 450 l 488 269 m 242 269 l 424 269 l 460 450 l 278 450 l 242 269 z "},".":{"ha":356,"x_min":107,"x_max":249,"o":"m 178 -14 q 128 5 150 -14 q 107 57 107 24 q 128 108 107 90 q 178 126 149 126 q 228 108 207 126 q 249 57 249 90 q 227 5 249 24 q 178 -14 206 -14 z "},"?":{"ha":617,"x_min":81,"x_max":533,"o":"m 256 300 q 268 215 256 275 q 214 279 232 244 q 196 349 196 314 q 224 450 196 406 q 308 551 253 494 q 395 657 367 613 q 424 763 424 701 q 378 876 424 836 q 269 915 333 915 q 164 885 215 915 q 81 807 113 854 l 81 925 q 281 969 172 969 q 466 913 399 969 q 533 763 533 856 q 497 637 533 690 q 388 515 460 583 q 317 442 342 469 q 274 378 292 414 q 256 300 256 342 m 251 -14 q 202 5 224 -14 q 181 57 181 24 q 201 108 181 90 q 251 126 222 126 q 301 108 281 126 q 322 57 322 90 q 301 5 322 24 q 251 -14 279 -14 z "},"¿":{"ha":556,"x_min":38,"x_max":492,"o":"m 321 646 q 370 625 353 646 q 388 575 388 604 q 370 526 388 546 q 321 506 353 506 q 271 526 289 506 q 253 575 253 547 q 271 625 253 604 q 321 646 289 646 m 315 332 q 303 417 315 357 q 358 353 339 388 q 376 283 376 318 q 348 181 376 225 q 263 79 319 138 q 176 -26 204 18 q 147 -132 147 -71 q 192 -245 147 -206 q 301 -285 238 -285 q 408 -254 357 -285 q 492 -176 460 -224 l 492 -294 q 290 -339 400 -339 q 105 -282 172 -339 q 38 -132 38 -225 q 58 -39 38 -82 q 106 38 78 4 q 183 117 135 71 q 283 226 250 181 q 315 332 315 272 z "},"\"":{"ha":622,"x_min":139,"x_max":483,"o":"m 183 524 q 169 566 179 532 q 149 655 158 600 q 139 769 139 710 l 139 956 l 228 956 l 228 769 q 218 655 228 710 q 198 566 208 600 q 183 524 188 532 m 438 525 q 423 567 433 533 q 403 656 413 601 q 393 769 393 710 l 393 956 l 483 956 l 483 769 q 473 656 483 710 q 452 567 463 601 q 438 525 442 533 z "},"'":{"ha":311,"x_min":61,"x_max":249,"o":"m 160 956 l 249 956 l 150 653 l 61 653 l 160 956 z "},";":{"ha":356,"x_min":99,"x_max":261,"o":"m 99 -185 q 162 -122 136 -171 q 188 -24 188 -72 q 186 -6 188 -11 l 176 -6 q 124 13 142 -6 q 106 58 106 32 q 124 106 106 86 q 175 126 143 126 q 235 98 210 126 q 261 15 261 69 q 243 -73 261 -28 q 188 -150 225 -118 q 99 -185 150 -182 m 178 371 q 128 390 150 371 q 107 442 107 408 q 128 493 107 475 q 178 511 149 511 q 228 493 207 511 q 249 442 249 475 q 227 390 249 408 q 178 371 206 371 z "},"/":{"ha":572,"x_min":72,"x_max":572,"o":"m 72 -40 l 510 1010 l 572 1010 l 139 -40 l 72 -40 z "},"_":{"ha":644,"x_min":0,"x_max":644,"o":"m 0 -89 l 644 -89 l 644 -144 l 0 -144 l 0 -89 z "},"{":{"ha":511,"x_min":24,"x_max":450,"o":"m 140 344 q 278 172 278 315 l 278 -167 q 295 -247 278 -215 q 351 -278 313 -278 l 450 -278 l 450 -322 l 399 -322 q 238 -291 299 -322 q 178 -168 178 -260 l 178 211 q 158 299 178 276 q 88 322 138 322 l 24 322 l 24 367 l 88 367 q 158 390 138 367 q 178 478 178 413 l 178 856 q 238 978 178 947 q 399 1010 299 1010 l 450 1010 l 450 965 l 351 965 q 294 940 311 965 q 278 868 278 914 l 278 517 q 140 344 278 374 z "},"}":{"ha":511,"x_min":61,"x_max":489,"o":"m 233 868 q 217 940 233 914 q 160 965 200 965 l 61 965 l 61 1010 l 113 1010 q 273 978 213 1010 q 333 856 333 947 l 333 478 q 353 390 333 413 q 425 367 374 367 l 489 367 l 489 322 l 425 322 q 353 299 374 322 q 333 211 333 276 l 333 -168 q 273 -291 333 -260 q 113 -322 213 -322 l 61 -322 l 61 -278 l 160 -278 q 216 -247 199 -278 q 233 -167 233 -215 l 233 172 q 266 283 233 236 q 372 344 299 329 q 233 517 233 374 l 233 868 z "},"[":{"ha":511,"x_min":111,"x_max":450,"o":"m 111 1010 l 450 1010 l 450 954 l 200 954 l 200 -267 l 450 -267 l 450 -322 l 111 -322 l 111 1010 z "},"]":{"ha":511,"x_min":61,"x_max":400,"o":"m 61 -267 l 311 -267 l 311 954 l 61 954 l 61 1010 l 400 1010 l 400 -322 l 61 -322 l 61 -267 z "},"(":{"ha":511,"x_min":85,"x_max":474,"o":"m 474 1015 q 267 715 338 892 q 196 344 196 539 q 267 -26 196 150 q 474 -326 338 -203 l 453 -337 q 179 -37 274 -221 q 85 344 85 146 q 179 726 85 543 q 453 1026 274 910 l 474 1015 z "},")":{"ha":511,"x_min":38,"x_max":426,"o":"m 38 -326 q 244 -26 174 -203 q 315 344 315 150 q 244 715 315 539 q 38 1015 174 892 l 58 1026 q 332 726 238 910 q 426 344 426 543 q 332 -37 426 146 q 58 -337 238 -221 l 38 -326 z "},"—":{"ha":1389,"x_min":100,"x_max":1289,"o":"m 100 336 l 1289 336 l 1289 261 l 100 261 l 100 336 z "},"–":{"ha":778,"x_min":100,"x_max":678,"o":"m 100 336 l 678 336 l 678 261 l 100 261 l 100 336 z "},"-":{"ha":422,"x_min":89,"x_max":333,"o":"m 89 336 l 333 336 l 333 256 l 89 256 l 89 336 z "},"­":{"ha":422,"x_min":89,"x_max":333,"o":"m 89 331 l 333 331 l 333 250 l 89 250 l 89 331 z "},"«":{"ha":622,"x_min":104,"x_max":518,"o":"m 104 283 l 235 489 l 307 489 l 185 283 l 307 72 l 235 72 l 104 283 m 315 283 l 446 489 l 518 489 l 396 283 l 518 72 l 446 72 l 315 283 z "},"»":{"ha":622,"x_min":104,"x_max":518,"o":"m 104 72 l 224 281 l 104 489 l 175 489 l 307 281 l 175 72 l 104 72 m 315 72 l 435 281 l 315 489 l 386 489 l 518 281 l 386 72 l 315 72 z "},"‹":{"ha":422,"x_min":110,"x_max":313,"o":"m 110 283 l 240 489 l 313 489 l 190 283 l 313 72 l 240 72 l 110 283 z "},"›":{"ha":422,"x_min":110,"x_max":313,"o":"m 110 72 l 229 281 l 110 489 l 181 489 l 313 281 l 181 72 l 110 72 z "},"„":{"ha":622,"x_min":106,"x_max":507,"o":"m 106 -185 q 169 -122 143 -171 q 194 -24 194 -72 q 193 -6 194 -11 l 183 -6 q 131 13 149 -6 q 113 58 113 32 q 131 106 113 86 q 182 126 150 126 q 242 98 217 126 q 268 15 268 69 q 250 -73 268 -28 q 194 -150 232 -118 q 106 -185 157 -182 m 344 -185 q 408 -122 382 -171 q 433 -24 433 -72 q 432 -6 433 -11 l 422 -6 q 369 13 388 -6 q 351 58 351 32 q 370 106 351 86 q 421 126 389 126 q 481 98 456 126 q 507 15 507 69 q 489 -73 507 -28 q 433 -150 471 -118 q 344 -185 396 -182 z "},"“":{"ha":622,"x_min":117,"x_max":518,"o":"m 190 829 q 192 811 190 817 l 201 811 q 254 793 236 811 q 272 749 272 775 q 253 701 272 721 q 203 681 235 681 q 142 709 168 681 q 117 792 117 738 q 135 880 117 835 q 190 957 153 925 q 279 992 228 989 q 216 928 242 978 q 190 829 190 878 m 429 829 q 431 811 429 817 l 440 811 q 493 793 475 811 q 511 749 511 775 q 492 701 511 721 q 442 681 474 681 q 381 709 407 681 q 356 792 356 738 q 374 880 356 835 q 429 957 392 925 q 518 992 467 989 q 455 928 481 978 q 429 829 429 878 z "},"”":{"ha":622,"x_min":106,"x_max":506,"o":"m 106 661 q 169 725 143 675 q 194 824 194 775 q 193 842 194 836 l 183 842 q 131 860 149 842 q 113 904 113 878 q 131 952 113 932 q 182 972 150 972 q 242 944 217 972 q 268 861 268 915 q 250 773 268 818 q 194 696 232 728 q 106 661 157 664 m 343 661 q 406 725 381 675 q 432 824 432 775 q 431 842 432 836 l 421 842 q 368 860 386 842 q 350 904 350 878 q 369 952 350 932 q 419 972 388 972 q 480 944 454 972 q 506 861 506 915 q 488 773 506 818 q 432 696 469 728 q 343 661 394 664 z "},"‘":{"ha":311,"x_min":86,"x_max":249,"o":"m 160 829 q 161 811 160 817 l 171 811 q 224 793 206 811 q 242 749 242 775 q 223 701 242 721 q 172 681 204 681 q 112 709 138 681 q 86 792 86 738 q 104 880 86 835 q 160 957 122 925 q 249 992 197 989 q 185 928 211 978 q 160 829 160 878 z "},"’":{"ha":311,"x_min":61,"x_max":224,"o":"m 61 661 q 124 725 99 675 q 150 824 150 775 q 149 842 150 836 l 139 842 q 86 860 104 842 q 68 904 68 878 q 87 952 68 932 q 138 972 106 972 q 198 944 172 972 q 224 861 224 915 q 206 773 224 818 q 150 696 188 728 q 61 661 113 664 z "},"‚":{"ha":311,"x_min":85,"x_max":247,"o":"m 85 -185 q 148 -122 122 -171 q 174 -24 174 -72 q 172 -6 174 -11 l 163 -6 q 110 13 128 -6 q 92 58 92 32 q 110 106 92 86 q 161 126 129 126 q 222 98 196 126 q 247 15 247 69 q 229 -73 247 -28 q 174 -150 211 -118 q 85 -185 136 -182 z "},"׳":{"ha":229,"x_min":42,"x_max":188,"o":"m 42 432 q 64 590 64 508 q 60 667 64 629 l 188 667 q 94 431 147 493 l 42 432 z "},"־":{"ha":321,"x_min":28,"x_max":272,"o":"m 28 558 l 272 558 l 272 469 l 28 469 l 28 558 z "}," ":{"ha":356,"x_min":0,"x_max":0,"o":""},"¢":{"ha":556,"x_min":86,"x_max":508,"o":"m 342 106 l 286 106 l 286 310 q 145 384 204 321 q 86 547 86 447 q 144 733 86 660 q 286 826 203 806 l 286 1010 l 342 1010 l 342 831 q 427 818 394 829 q 490 781 460 807 l 446 696 q 342 768 407 756 l 342 371 q 435 404 390 375 q 508 482 481 433 q 451 363 497 407 q 342 310 406 318 l 342 106 m 286 769 q 201 709 232 761 q 169 590 169 657 q 201 448 169 500 q 286 379 233 396 l 286 769 z "},"¤":{"ha":632,"x_min":103,"x_max":550,"o":"m 451 94 q 328 54 397 54 q 204 94 254 54 l 143 38 l 103 79 l 161 138 q 119 261 119 192 q 161 386 119 331 l 106 443 l 147 486 l 204 428 q 263 460 233 450 q 328 471 292 471 q 451 428 394 471 l 511 486 l 550 443 l 494 386 q 524 329 515 358 q 533 263 533 300 q 493 138 533 192 l 550 78 l 508 36 l 451 94 m 328 414 q 222 371 265 414 q 178 263 178 328 q 221 155 178 199 q 328 111 264 111 q 434 154 390 111 q 478 263 478 197 q 434 371 478 328 q 328 414 390 414 z "},"$":{"ha":700,"x_min":96,"x_max":604,"o":"m 367 -6 q 369 -87 367 -44 q 372 -147 371 -131 l 308 -147 q 310 -88 308 -131 q 313 -8 313 -46 q 96 68 183 -1 l 96 250 q 186 107 128 157 q 313 49 244 57 l 313 454 q 200 518 243 489 q 128 595 157 547 q 100 714 100 643 q 160 886 100 821 q 313 961 221 951 q 310 1040 313 997 q 308 1099 308 1082 l 372 1099 q 369 1039 371 1082 q 367 963 367 996 q 467 944 419 960 q 551 901 515 929 l 551 738 q 471 856 519 815 q 367 906 422 897 l 367 532 q 490 461 443 493 q 571 376 538 429 q 604 246 604 324 q 535 70 604 136 q 367 -6 467 4 m 313 906 q 211 853 251 899 q 171 736 171 807 q 207 635 171 675 q 313 558 243 594 l 313 906 m 367 49 q 477 105 432 58 q 522 219 522 151 q 482 342 522 296 q 367 428 442 388 l 367 49 z "},"€":{"ha":778,"x_min":29,"x_max":739,"o":"m 158 604 q 286 868 190 764 q 528 972 382 972 q 640 956 582 972 q 739 913 699 939 l 694 807 q 608 888 658 857 q 501 919 558 919 q 342 830 407 919 q 253 604 278 740 l 606 604 l 582 549 l 246 549 q 242 469 242 510 q 243 410 242 429 l 524 410 l 501 354 l 250 354 q 347 134 272 208 q 521 60 422 60 q 636 86 579 60 q 739 163 693 113 q 701 75 736 117 q 613 8 667 33 q 499 -17 558 -17 q 265 88 354 -17 q 151 354 175 193 l 29 354 l 51 410 l 146 410 q 144 460 144 426 q 150 549 144 510 l 29 549 l 51 604 l 158 604 z "},"ƒ":{"ha":479,"x_min":-53,"x_max":485,"o":"m 439 890 q 425 900 436 893 q 399 913 414 907 q 369 919 383 919 q 333 904 347 919 q 309 844 319 889 q 290 715 299 800 l 260 410 l 335 410 l 322 363 l 257 363 l 235 96 q 181 -106 225 -17 q 40 -196 136 -196 q -53 -172 -8 -196 l -14 -114 q -1 -124 -11 -117 q 25 -137 10 -131 q 54 -143 40 -143 q 111 -98 90 -143 q 143 65 132 -53 l 171 363 l 100 363 l 113 410 l 172 410 l 200 683 q 256 886 211 800 q 399 972 300 972 q 485 953 446 972 l 439 890 z "},"₣":{"ha":667,"x_min":54,"x_max":588,"o":"m 267 900 l 267 506 l 479 506 l 479 450 l 267 450 l 267 129 q 288 31 267 60 q 326 0 308 3 l 119 0 q 157 30 136 3 q 178 129 178 57 l 178 450 l 54 450 l 54 506 l 178 506 l 178 819 q 157 924 178 896 q 118 956 136 951 l 588 956 l 588 814 q 549 874 581 847 q 458 900 517 900 l 267 900 z "},"₤":{"ha":667,"x_min":24,"x_max":625,"o":"m 215 593 q 232 738 222 669 q 315 906 249 839 q 481 972 381 972 q 538 964 511 972 q 575 936 565 956 l 524 851 q 494 901 519 881 q 438 922 468 922 q 354 881 386 922 q 315 775 322 839 q 306 593 308 696 l 478 593 l 460 538 l 306 538 q 303 461 306 511 l 301 424 l 478 424 l 460 368 l 297 368 q 288 285 292 313 q 263 189 278 224 q 224 131 249 154 q 151 82 199 108 q 267 71 194 79 q 407 60 367 60 q 539 85 486 60 q 611 147 592 110 l 625 46 q 564 2 607 19 q 461 -15 521 -15 q 310 11 404 -15 q 224 30 257 24 q 157 36 192 36 q 87 22 126 36 q 24 -10 47 7 l 24 71 q 158 134 121 75 q 201 289 196 193 l 206 368 l 74 368 l 92 424 l 207 424 q 213 538 210 499 l 74 538 l 92 593 l 215 593 z "},"₧":{"ha":1661,"x_min":118,"x_max":1594,"o":"m 692 697 q 613 496 692 574 q 392 418 535 418 q 267 431 333 418 l 267 128 q 281 45 267 74 q 311 7 294 17 q 328 0 328 -3 l 118 0 q 135 7 118 -3 q 165 44 151 17 q 178 128 178 72 l 178 824 q 165 908 178 879 q 135 948 151 938 q 118 956 118 958 l 365 956 q 482 947 436 956 q 563 919 528 938 q 658 827 625 888 q 692 697 692 767 m 599 679 q 538 839 599 778 q 375 900 476 900 l 267 900 l 267 485 q 392 474 326 474 q 544 530 489 474 q 599 679 599 586 m 999 -17 q 896 30 931 -17 q 861 142 861 76 l 861 450 l 783 450 l 950 639 l 950 506 l 1128 506 l 1128 450 l 950 450 l 950 157 q 978 77 950 104 q 1042 50 1006 50 q 1096 67 1069 50 q 1139 113 1122 83 q 999 -17 1118 -17 m 1410 -17 q 1324 -3 1368 -17 q 1250 33 1279 11 l 1250 156 q 1322 62 1276 90 q 1419 33 1367 33 q 1490 56 1463 33 q 1517 104 1517 78 q 1489 156 1517 135 q 1404 204 1461 178 q 1290 274 1331 240 q 1250 365 1250 308 q 1297 472 1250 428 q 1421 517 1344 517 q 1513 504 1474 517 q 1571 476 1551 492 l 1549 372 q 1492 443 1532 419 q 1408 467 1451 467 q 1349 447 1371 467 q 1328 399 1328 426 q 1356 343 1328 364 q 1442 294 1383 322 q 1521 253 1490 272 q 1573 205 1551 235 q 1594 132 1594 175 q 1544 27 1594 71 q 1410 -17 1494 -17 z "},"₪":{"ha":881,"x_min":69,"x_max":811,"o":"m 475 379 q 356 508 475 508 l 236 508 q 189 458 200 504 q 178 342 178 411 l 178 186 q 183 96 179 129 q 192 22 186 63 l 94 -18 l 94 322 q 122 447 94 401 q 175 508 149 493 l 69 508 l 146 633 q 158 610 150 617 q 181 603 165 603 l 388 603 q 557 414 557 603 l 557 217 l 475 217 l 475 379 m 739 586 q 789 543 767 571 q 811 454 811 515 q 719 108 811 228 q 443 -11 626 -11 q 364 -5 397 -11 q 319 13 331 1 q 303 179 314 51 q 281 389 290 311 l 364 389 q 376 288 369 351 q 401 92 390 165 q 492 86 439 86 q 669 124 625 86 q 704 224 690 140 q 718 411 718 308 q 710 464 718 446 q 687 494 703 482 q 626 533 671 506 l 675 633 q 707 604 681 618 q 739 586 733 590 z "},"£":{"ha":667,"x_min":24,"x_max":625,"o":"m 461 -15 q 310 11 404 -15 q 224 30 257 24 q 157 36 192 36 q 87 22 126 36 q 24 -10 47 7 l 24 71 q 156 133 119 75 q 201 290 193 192 l 210 450 l 97 450 l 97 506 l 214 506 q 220 619 215 535 q 232 738 225 704 q 317 906 253 840 q 481 972 382 972 q 538 964 511 972 q 575 936 565 956 l 524 851 q 494 901 519 881 q 438 922 468 922 q 354 881 386 922 q 315 775 322 839 q 310 586 310 722 q 308 506 310 522 l 456 506 l 456 450 l 308 450 q 296 293 301 329 q 251 163 282 206 q 151 82 221 121 q 267 71 194 79 q 407 60 367 60 q 539 85 486 60 q 611 147 592 110 l 625 46 q 564 2 607 19 q 461 -15 521 -15 z "},"¥":{"ha":778,"x_min":46,"x_max":732,"o":"m 732 956 q 684 925 717 953 q 608 822 651 897 l 454 551 l 636 551 l 636 496 l 433 496 l 433 357 l 636 357 l 636 301 l 433 301 l 433 126 q 453 38 433 72 q 497 0 474 4 l 282 0 q 325 37 306 6 q 344 126 344 68 l 344 301 l 142 301 l 142 357 l 344 357 l 344 496 l 142 496 l 142 551 l 324 551 l 160 824 q 88 922 117 894 q 46 956 60 950 l 260 956 q 234 943 247 953 q 221 910 221 933 q 249 832 221 881 l 403 565 l 547 825 q 574 906 574 872 q 559 943 574 932 q 531 956 544 954 l 732 956 z "},"∙":{"ha":356,"x_min":107,"x_max":249,"o":"m 178 222 q 128 241 150 222 q 107 293 107 260 q 128 344 107 326 q 178 363 149 363 q 228 344 207 363 q 249 293 249 326 q 227 241 249 260 q 178 222 206 222 z "},"∕":{"ha":111,"x_min":-222,"x_max":333,"o":"m -222 0 l 271 956 l 333 956 l -157 0 l -222 0 z "},"+":{"ha":778,"x_min":100,"x_max":678,"o":"m 100 261 l 100 336 l 350 336 l 350 597 l 428 597 l 428 336 l 678 336 l 678 261 l 428 261 l 428 0 l 350 0 l 350 261 l 100 261 z "},"−":{"ha":778,"x_min":100,"x_max":678,"o":"m 100 336 l 678 336 l 678 261 l 100 261 l 100 336 z "},"×":{"ha":778,"x_min":96,"x_max":682,"o":"m 389 244 l 149 3 l 96 57 l 336 297 l 96 540 l 147 592 l 389 349 l 629 592 l 682 539 l 442 296 l 682 56 l 629 3 l 389 244 z "},"÷":{"ha":778,"x_min":100,"x_max":678,"o":"m 389 444 q 341 465 358 444 q 324 511 324 485 q 341 558 324 538 q 389 578 358 578 q 437 558 419 578 q 454 511 454 538 q 437 465 454 485 q 389 444 419 444 m 100 336 l 678 336 l 678 261 l 100 261 l 100 336 m 389 19 q 341 40 358 19 q 324 86 324 60 q 341 133 324 113 q 389 153 358 153 q 437 133 419 153 q 454 86 454 113 q 437 40 454 60 q 389 19 419 19 z "},"=":{"ha":778,"x_min":100,"x_max":678,"o":"m 100 464 l 678 464 l 678 389 l 100 389 l 100 464 m 100 215 l 678 215 l 678 140 l 100 140 l 100 215 z "},"≠":{"ha":778,"x_min":100,"x_max":678,"o":"m 224 0 l 139 0 l 236 140 l 100 140 l 100 215 l 288 215 l 408 389 l 100 389 l 100 464 l 460 464 l 557 604 l 639 604 l 542 464 l 678 464 l 678 389 l 490 389 l 371 215 l 678 215 l 678 140 l 319 140 l 224 0 z "},">":{"ha":778,"x_min":135,"x_max":643,"o":"m 135 76 l 550 299 l 550 303 l 135 522 l 135 608 l 643 329 l 643 267 l 135 -11 l 135 76 z "},"<":{"ha":778,"x_min":135,"x_max":643,"o":"m 135 331 l 643 610 l 643 524 l 229 300 l 229 294 l 643 78 l 643 -10 l 135 268 l 135 331 z "},"≥":{"ha":778,"x_min":135,"x_max":643,"o":"m 135 244 l 549 461 l 549 467 l 135 690 l 135 776 l 643 497 l 643 435 l 135 157 l 135 244 m 135 75 l 643 75 l 643 0 l 135 0 l 135 75 z "},"≤":{"ha":778,"x_min":135,"x_max":643,"o":"m 135 497 l 643 776 l 643 690 l 229 467 l 229 461 l 643 244 l 643 157 l 135 435 l 135 497 m 135 75 l 643 75 l 643 0 l 135 0 l 135 75 z "},"±":{"ha":778,"x_min":107,"x_max":671,"o":"m 428 149 l 350 149 l 350 360 l 107 360 l 107 435 l 350 435 l 350 643 l 428 643 l 428 435 l 671 435 l 671 360 l 428 360 l 428 149 m 107 75 l 671 75 l 671 0 l 107 0 l 107 75 z "},"≈":{"ha":778,"x_min":82,"x_max":693,"o":"m 693 436 q 622 382 665 399 q 532 365 578 365 q 453 373 489 365 q 368 394 417 381 q 243 419 293 419 q 172 406 207 419 q 110 363 136 392 l 82 424 q 152 476 110 460 q 240 493 194 493 q 310 486 279 493 q 386 465 340 479 q 463 445 433 451 q 529 439 492 439 q 604 452 567 439 q 664 493 642 465 l 693 436 m 693 189 q 622 135 665 151 q 532 118 578 118 q 456 125 490 118 q 372 147 422 132 q 300 166 326 160 q 243 172 274 172 q 172 158 207 172 q 110 115 136 144 l 82 178 q 152 231 110 214 q 240 247 194 247 q 310 240 279 247 q 386 219 340 233 q 463 199 433 206 q 529 193 492 193 q 604 206 567 193 q 664 247 642 219 l 693 189 z "},"~":{"ha":778,"x_min":108,"x_max":667,"o":"m 533 225 q 455 240 492 225 q 363 285 418 254 q 295 319 319 308 q 247 331 271 331 q 188 233 189 331 l 108 233 q 151 368 108 324 q 256 413 193 413 q 330 398 294 413 q 418 354 365 383 q 483 319 458 331 q 532 308 508 308 q 589 406 586 308 l 667 406 q 633 271 667 317 q 533 225 599 225 z "},"¬":{"ha":778,"x_min":108,"x_max":686,"o":"m 611 357 l 108 357 l 108 432 l 686 432 l 686 147 l 611 147 l 611 357 z "},"∞":{"ha":1156,"x_min":92,"x_max":1063,"o":"m 575 269 q 462 131 521 181 q 319 82 403 82 q 193 119 244 82 q 117 215 142 156 q 92 344 92 275 q 117 475 92 414 q 193 574 142 536 q 318 611 244 611 q 472 560 411 611 q 586 417 532 510 q 703 561 644 510 q 842 613 763 613 q 1006 536 950 613 q 1063 351 1063 460 q 1038 220 1063 282 q 962 120 1013 158 q 838 82 911 82 q 688 131 749 82 q 575 269 628 181 m 536 338 q 468 447 497 406 q 399 515 439 488 q 306 542 358 542 q 192 483 232 542 q 151 349 151 425 q 195 207 151 268 q 319 146 239 146 q 430 194 382 146 q 536 338 478 243 m 624 349 q 688 241 660 282 q 757 173 717 200 q 850 146 797 146 q 964 205 924 146 q 1004 342 1004 264 q 964 481 1004 421 q 850 542 924 542 q 729 492 779 542 q 624 349 679 443 z "},"∫":{"ha":506,"x_min":32,"x_max":458,"o":"m 197 847 q 240 981 197 935 q 358 1028 282 1028 q 458 1015 408 1028 l 458 907 q 421 940 446 925 q 372 954 396 954 q 315 928 336 954 q 293 856 293 901 l 293 -150 q 251 -285 293 -237 q 133 -332 208 -332 q 81 -328 101 -332 q 32 -318 60 -325 l 32 -210 q 118 -258 81 -258 q 176 -232 154 -258 q 197 -158 197 -206 l 197 847 z "},"Ω":{"ha":1178,"x_min":43,"x_max":1153,"o":"m 676 0 q 823 78 754 15 q 935 243 892 142 q 978 468 978 344 q 926 697 978 594 q 783 856 874 799 q 578 914 692 914 q 392 861 474 914 q 265 712 311 808 q 219 488 219 615 q 295 179 219 304 q 511 0 371 54 l 67 0 q 43 185 61 51 q 94 111 68 135 q 166 78 121 88 q 299 69 211 69 q 161 232 214 129 q 108 467 108 335 q 172 729 108 614 q 349 908 235 844 q 614 972 464 972 q 848 917 739 972 q 1023 753 957 863 q 1089 489 1089 643 q 1035 245 1089 354 q 883 69 981 136 l 943 69 q 1051 80 1014 69 q 1108 113 1088 90 q 1153 185 1128 135 q 1129 0 1135 51 l 676 0 z "},"∆":{"ha":967,"x_min":56,"x_max":903,"o":"m 490 1000 l 903 0 l 56 0 l 490 1000 m 465 799 q 382 603 419 689 q 319 458 344 517 q 157 78 193 165 l 758 78 l 465 799 z "},"∏":{"ha":1111,"x_min":114,"x_max":997,"o":"m 933 -92 q 955 -190 933 -162 q 997 -221 976 -217 l 768 -221 q 810 -192 788 -218 q 833 -92 833 -165 l 833 900 l 278 900 l 278 -92 q 299 -190 278 -164 q 342 -221 319 -217 l 114 -221 q 156 -192 133 -218 q 178 -92 178 -165 l 178 828 q 156 925 178 899 q 114 956 135 951 l 997 956 q 956 927 978 953 q 933 828 933 901 l 933 -92 z "},"∑":{"ha":978,"x_min":53,"x_max":911,"o":"m 874 956 l 874 800 q 863 831 872 804 q 816 879 853 858 q 718 900 779 900 l 228 900 l 592 378 l 210 -165 l 735 -165 q 847 -134 806 -165 q 911 -49 888 -103 l 904 -108 q 890 -221 892 -206 l 53 -221 l 478 378 l 67 956 l 874 956 z "},"√":{"ha":761,"x_min":44,"x_max":714,"o":"m 44 261 q 215 349 157 319 l 268 232 l 438 -144 l 482 114 q 635 993 532 407 l 714 993 q 607 358 674 746 l 499 -278 l 406 -278 q 169 243 321 -96 l 74 194 l 44 261 z "},"∂":{"ha":738,"x_min":60,"x_max":678,"o":"m 117 850 q 82 921 82 917 q 157 955 108 940 q 261 969 206 969 q 481 888 386 969 q 626 674 575 806 q 678 400 678 542 q 636 181 678 275 q 519 35 594 86 q 346 -17 444 -17 q 193 26 258 -17 q 94 142 128 69 q 60 300 60 214 q 94 461 60 389 q 192 575 129 533 q 333 617 254 617 q 437 599 379 617 q 554 536 494 581 q 437 800 513 713 q 256 888 361 888 q 186 878 224 888 q 117 850 149 868 m 160 311 q 185 182 160 239 q 254 93 210 125 q 356 61 299 61 q 467 98 418 61 q 544 201 517 135 q 572 351 572 267 q 563 469 572 403 q 350 540 458 540 q 213 477 265 540 q 160 311 160 414 z "},"µ":{"ha":607,"x_min":49,"x_max":575,"o":"m 422 65 q 360 6 394 26 q 290 -15 325 -15 q 215 15 246 -15 l 215 -322 l 128 -322 l 126 369 q 109 457 126 426 q 70 499 92 488 q 49 506 49 510 l 217 506 l 217 179 q 244 85 217 117 q 311 53 271 53 q 383 83 351 53 q 415 164 415 114 l 415 379 q 401 461 415 433 q 368 499 386 489 q 350 506 350 508 l 504 506 l 503 150 q 522 69 503 90 q 563 47 540 47 q 571 48 568 47 q 575 49 574 49 l 425 -26 l 422 65 z "},"%":{"ha":722,"x_min":61,"x_max":661,"o":"m 207 661 q 103 702 146 661 q 61 817 61 743 q 83 897 61 861 q 141 951 106 932 q 215 971 176 971 q 319 931 276 971 q 363 817 363 890 q 341 742 363 778 q 283 683 319 706 q 207 661 247 661 m 82 0 l 576 956 l 639 956 l 147 0 l 82 0 m 211 922 q 145 894 171 922 q 119 817 119 867 q 147 738 119 767 q 211 710 174 710 q 279 740 256 710 q 303 817 303 769 q 276 894 303 867 q 211 922 249 922 m 507 -15 q 404 25 447 -15 q 361 139 361 65 q 383 214 361 178 q 440 272 404 250 q 515 294 475 294 q 619 253 576 294 q 661 139 661 213 q 640 65 661 101 q 584 7 619 29 q 507 -15 549 -15 m 511 246 q 444 214 469 246 q 419 139 419 182 q 447 61 419 89 q 511 33 474 33 q 578 64 551 33 q 604 139 604 94 q 576 217 604 189 q 511 246 549 246 z "},"‰":{"ha":1089,"x_min":61,"x_max":1028,"o":"m 207 661 q 103 702 146 661 q 61 817 61 743 q 83 897 61 861 q 141 951 106 932 q 215 971 176 971 q 319 931 276 971 q 363 817 363 890 q 341 742 363 778 q 283 683 319 706 q 207 661 247 661 m 82 0 l 576 956 l 639 956 l 147 0 l 82 0 m 211 922 q 145 894 171 922 q 119 817 119 867 q 147 738 119 767 q 211 710 174 710 q 279 740 256 710 q 303 817 303 769 q 276 894 303 867 q 211 922 249 922 m 507 -15 q 404 25 447 -15 q 361 139 361 65 q 383 214 361 178 q 440 272 404 250 q 515 294 475 294 q 619 253 576 294 q 661 139 661 213 q 640 65 661 101 q 584 7 619 29 q 507 -15 549 -15 m 874 -15 q 771 25 814 -15 q 728 139 728 65 q 749 214 728 178 q 806 272 771 250 q 882 294 842 294 q 985 253 943 294 q 1028 139 1028 213 q 1007 65 1028 101 q 951 7 986 29 q 874 -15 915 -15 m 511 246 q 444 214 469 246 q 419 139 419 182 q 447 61 419 89 q 511 33 474 33 q 578 64 551 33 q 604 139 604 94 q 576 217 604 189 q 511 246 549 246 m 878 246 q 811 214 836 246 q 786 139 786 182 q 813 61 786 89 q 878 33 840 33 q 944 64 918 33 q 971 139 971 94 q 943 217 971 189 q 878 246 915 246 z "},"◊":{"ha":694,"x_min":111,"x_max":583,"o":"m 347 978 l 583 474 l 347 -28 l 111 476 l 347 978 m 347 136 l 506 475 l 347 813 l 188 475 l 347 136 z "}}}
